<?xml version="1.0" encoding="utf-8"?>
<svg version="1.1" id="Layer_1" xmlns="http://www.w3.org/2000/svg" xmlns:xlink="http://www.w3.org/1999/xlink" x="0px" y="0px"
	 viewBox="0 0 587 576.6" style="enable-background:new 0 0 587 576.6;" xml:space="preserve">
<g>
	<g>
		<path class="st0" d="M147.4,163.2c-4.4,0-6.8-2.3-6.8-6.6c0-8.7,10.5-24.4,14.1-24.4c0.9,0,1.5,0.3,2,1.1c0.3,0.5,0.5,1.2,0.5,1.8
			c0,0.9-1,2.5-3.1,5.8c-2.8,4.4-6.6,10.3-6.6,13.8c0,1.8,1.2,2.7,3.5,2.7c9.7,0,24.6-9,31.1-15.4l0.5-0.5l3,3.3l-0.4,0.5
			C180,151.3,160,163.2,147.4,163.2z M163.9,120.4c-1.4,0-2.5-1.3-2.5-2.7c0-2.4,3.2-6.2,6-6.2c1.3,0,2.1,1,2.1,2.5
			C169.4,116.3,166.6,120.4,163.9,120.4z"/>
		<path class="st0" d="M182.6,142.7l2,2.2c-5.3,6.1-24.9,17.6-37.2,17.6c-4.5,0-6.1-2.4-6.1-5.9c0-8.7,10.5-23.7,13.4-23.7
			c0.6,0,1,0.2,1.4,0.8c0.2,0.4,0.4,1,0.4,1.4c0,2-9.7,13.8-9.7,19.6c0,2,1.2,3.4,4.2,3.4C160.9,158.3,175.9,149.4,182.6,142.7z
			 M167.3,112.2c1,0,1.4,0.8,1.4,1.8c0,2-2.6,5.7-4.9,5.7c-1,0-1.8-1-1.8-2C162,115.7,164.9,112.2,167.3,112.2z"/>
		<path class="st0" d="M183,164.7c-8.5,0-10.2-3.9-10.2-7.2c0-2.6,2.1-4.8,4.8-4.8c1.4,0,2.3,0.8,2.5,2.2c0.4,2.9,1.1,3.3,2,3.4
			c8.9-0.5,20.5-16.6,20.5-22.3c0-1.3-0.5-1.5-1.3-1.5c-2.5,0-7.5,3.2-13.1,8.3l-4.7,4.1c-0.9,0.9-2,1-2.5,1c-1.6,0-3-0.9-3-0.9
			l-0.8-0.6l0.8-0.6c1.1-0.8,2-1.7,3-2.5c0.5-0.4,0.9-0.8,1.4-1.3c11.2-10.4,16.6-13.9,21.3-13.9c3.7,0,5.8,2,5.8,5.4
			c0,6.7-7.3,17.6-16.1,24.5c14.2-2.5,24.8-7.6,33.5-15.9l0.5-0.5l2.9,3.2l-0.4,0.5c-2.4,2.8-7.8,6.7-13.8,9.9
			C205.8,160.6,191.9,164.7,183,164.7z"/>
		<path class="st0" d="M227.3,142.5l2,2.2c-2.2,2.6-7.5,6.5-13.6,9.7c-10.1,5.5-23.9,9.5-32.8,9.5c-5.7,0-9.5-1.8-9.5-6.5
			c0-2.2,1.8-4,4-4c0.8,0,1.6,0.4,1.8,1.6c0.4,3,1.2,3.8,2.6,4c9.3-0.4,21.2-17,21.2-23.1c0-1.4-0.6-2.2-2-2.2
			c-3,0-8.5,3.8-13.6,8.5l-4.7,4c-0.6,0.6-1.4,0.8-2,0.8c-1.4,0-2.6-0.8-2.6-0.8c1.6-1.2,2.8-2.4,4.5-3.8
			c11.5-10.7,16.6-13.8,20.8-13.8c3.4,0,5.1,1.8,5.1,4.7c0,6.9-8.3,19-18.2,25.7C204,157.1,216.8,152.6,227.3,142.5z"/>
		<path class="st0" d="M228.1,163c-4.8,0-7.6-2.4-7.6-6.6c0-8.4,15.7-30.6,31.3-51.5l-3.5-0.1c-11.8-0.2-17.6-0.3-24.4-0.3
			c-10.8,0-9.7,0.1-17.6,0.1c-5.4,0-10,0.1-13.4,0.1c-3,0-7.4-1.1-7.4-3.4v-0.1l0-0.1c0.7-2.5,4.7-2.5,5.1-2.5
			c5.6,0,59.6,0.6,65.3,0.6c7.9-10.6,14.8-19.9,20.5-28.3c3-4.4,5.4-5.4,6.9-5.4c1.2,0,2.5,0.9,2.5,2.3c0,1.1-0.6,2.6-1.5,4
			c-4.7,6.9-11.6,15.9-20.3,27.3c13.2,0,42.8,0.4,43.3,0.4c0,0,0,0,0,0c1.4,0,4.7,0,4.7,2.3c0,3.3-1.7,4.6-6.2,4.6h-0.1l-0.1,0
			c-2.6-0.4-20.6-1.2-46.1-1.6c-14.4,18.8-34,44.3-34,49.9c0,3.3,1.4,3.7,2.5,3.7c9.7,0,28.1-10.2,34.5-16.6l0.5-0.5l3,3.3l-0.4,0.5
			C260.7,151.1,240.8,163,228.1,163z"/>
		<path class="st0" d="M264.1,163.2c-4.4,0-6.8-2.3-6.8-6.6c0-8.7,10.5-24.4,14.1-24.4c0.9,0,1.5,0.3,2,1.1c0.3,0.5,0.5,1.2,0.5,1.8
			c0,0.9-1,2.5-3.1,5.8c-2.8,4.4-6.6,10.3-6.6,13.8c0,1.8,1.2,2.7,3.5,2.7c9.7,0,24.6-9,31.1-15.4l0.5-0.5l3,3.3l-0.4,0.5
			C296.7,151.3,276.8,163.2,264.1,163.2z M280.6,120.4c-1.4,0-2.5-1.3-2.5-2.7c0-2.4,3.2-6.2,6-6.2c1.3,0,2.1,1,2.1,2.5
			C286.2,116.3,283.4,120.4,280.6,120.4z"/>
		<path class="st0" d="M299.3,142.7l2,2.2c-5.3,6.1-24.9,17.6-37.2,17.6c-4.5,0-6.1-2.4-6.1-5.9c0-8.7,10.5-23.7,13.4-23.7
			c0.6,0,1,0.2,1.4,0.8c0.2,0.4,0.4,1,0.4,1.4c0,2-9.7,13.8-9.7,19.6c0,2,1.2,3.4,4.2,3.4C277.7,158.3,292.6,149.4,299.3,142.7z
			 M284.1,112.2c1,0,1.4,0.8,1.4,1.8c0,2-2.6,5.7-4.9,5.7c-1,0-1.8-1-1.8-2C278.8,115.7,281.6,112.2,284.1,112.2z"/>
		<path class="st0" d="M336.8,163.6c-5.8,0-9-2.6-9-7.2c0-2,0.7-4.1,1.6-6.1c-1.1,0.6-2.8,1.5-4.5,2.5c-10,5.5-20,10.9-23.6,10.9
			c-2.4,0-3.8-1.3-3.8-3.6c0-4.3,4.9-11.9,8.2-17c0.5-0.7,0.9-1.5,1.3-2.1c-1.1,0.8-2.4,2-3.4,3c-1.2,1-2.4,2.1-3.3,2.9
			c-0.9,0.9-2,1-2.5,1c-1.6,0-3-0.9-3-0.9l-0.8-0.6l0.8-0.6c1.1-0.8,2-1.7,3-2.5c0.5-0.4,0.9-0.8,1.4-1.3c0,0,8.3-8.3,13-8.3
			c1.4,0,3.1,0.7,3.1,4.2c0,1.3-1.6,4-4.3,8.3c-2.5,4.1-5.6,9.1-5.6,11.2c0,0,0,0.1,0,0.1c2.6-0.2,13.7-7.1,21.1-11.7
			c7.6-4.7,10.3-6.3,11.2-6.3c1.6,0,2.3,2.5,2.3,3.6c0,1-0.7,2.4-2,4.7c-1.5,2.7-3.3,6.1-3.3,8.4c0,1.6,0.5,3.3,4.5,3.3
			c9.6,0,28.4-10.7,35.1-17.4l0.5-0.5l3,3.3l-0.4,0.5C372,151.4,350.2,163.6,336.8,163.6z"/>
		<path class="st0" d="M337.6,140.1c1,0,1.6,2,1.6,2.8c0,2-5.3,8.9-5.3,13.2c0,3,2,4,5.3,4c9.9,0,28.9-10.9,35.6-17.6l2,2.2
			c-5.3,6.1-26.9,18.2-40.1,18.2c-4.9,0-8.3-1.8-8.3-6.5c0-2.4,1.2-5.3,2.2-7.5c0.4-1-23.9,14-29.5,14c-2.2,0-3-1.2-3-2.8
			c0-6.1,10.9-20,10.5-20.8c-1.4,0-6.1,4.9-8.9,7.1c-0.6,0.6-1.4,0.8-2,0.8c-1.4,0-2.6-0.8-2.6-0.8c1.6-1.2,2.8-2.4,4.5-3.8
			c2.2-2.2,8.9-8.1,12.5-8.1c1.4,0,2.4,0.8,2.4,3.4s-9.9,15.4-9.9,19.4c0,0.4,0.2,0.8,0.6,0.8C309.4,158.1,335.7,140.1,337.6,140.1z
			"/>
		<path class="st0" d="M378.6,165.3c-3.7,0-12.3-0.8-12.3-8.6c0-10.2,16-26.8,28.6-26.8c2.8,0,4.8,1.7,4.8,4.2
			c0,2.4-1.6,5.8-4.6,5.8c-1.5,0-2.5-1-2.5-2.3c0-0.5,0.2-0.8,0.4-1.1c0.2-0.3,0.2-0.5,0.2-0.7c0-0.1,0-0.3-0.7-0.3
			c-7.1,0-19.5,12.5-19.5,19.7c0,4.1,4.3,4.9,8,4.9c8.8,0,28.3-11.2,35.1-18l0.5-0.5l3,3.3l-0.4,0.5
			C413.7,151.6,390.9,165.3,378.6,165.3z"/>
		<path class="st0" d="M416.7,142.5l2,2.2c-5.3,6.1-27.7,19.8-40.1,19.8c-8.3,0-11.5-3.4-11.5-7.9c0-10.1,16-26.1,27.9-26.1
			c2.2,0,4,1.2,4,3.4c0,2-1.4,5.1-3.8,5.1c-1,0-1.8-0.6-1.8-1.6c0-0.6,0.6-1,0.6-1.8c0-0.6-0.4-1-1.4-1c-7.3,0-20.2,12.7-20.2,20.4
			c0,3.2,2.4,5.7,8.7,5.7C390.2,160.7,410,149.2,416.7,142.5z"/>
		<path class="st0" d="M417.5,163c-4.8,0-7.6-2.4-7.6-6.6c0-8.4,15.7-30.6,31.3-51.5l-3.5-0.1c-11.8-0.2-11.3-0.3-18-0.3
			c-10.8,0-8.5,0.1-16.4,0.1c-5.4,0-10,0.1-13.4,0.1c-3,0-7.4-1.1-7.4-3.4v-0.1l0-0.1c0.7-2.5,4.7-2.5,5.1-2.5
			c5.6,0,52.1,0.6,57.8,0.6c7.9-10.6,16.1-21.7,21.8-30c3-4.4,5.4-5.4,6.9-5.4c1.2,0,2.5,0.9,2.5,2.3c0,1.1-0.6,2.6-1.5,4
			c-4.7,6.9-12.9,17.6-21.6,29c13.2,0,76.8,0.4,77.2,0.4c0,0,0,0,0,0c1.4,0,4.7,0,4.7,2.3c0,3.3-1.7,4.6-6.2,4.6h-0.1l-0.1,0
			c-2.6-0.4-54.5-1.2-80-1.6c-14.4,18.8-34,44.3-34,49.9c0,3.3,1.4,3.7,2.5,3.7c9.7,0,28.1-10.2,34.5-16.6l0.5-0.5l3,3.3l-0.4,0.5
			C450.1,151.1,430.1,163,417.5,163z"/>
		<path class="st0" d="M453.5,163.2c-4.4,0-6.8-2.3-6.8-6.6c0-8.7,10.5-24.4,14.1-24.4c0.9,0,1.5,0.3,2,1.1c0.3,0.5,0.5,1.2,0.5,1.8
			c0,0.9-1,2.5-3.1,5.8c-2.8,4.4-6.6,10.3-6.6,13.8c0,1.8,1.2,2.7,3.5,2.7c9.7,0,24.6-9,31.1-15.4l0.5-0.5l3,3.3l-0.4,0.5
			C486.1,151.3,466.2,163.2,453.5,163.2z M470,120.4c-1.4,0-2.5-1.3-2.5-2.7c0-2.4,3.2-6.2,6-6.2c1.3,0,2.1,1,2.1,2.5
			C475.6,116.3,472.8,120.4,470,120.4z"/>
		<path class="st0" d="M488.7,142.7l2,2.2c-5.3,6.1-24.9,17.6-37.2,17.6c-4.5,0-6.1-2.4-6.1-5.9c0-8.7,10.5-23.7,13.4-23.7
			c0.6,0,1,0.2,1.4,0.8c0.2,0.4,0.4,1,0.4,1.4c0,2-9.7,13.8-9.7,19.6c0,2,1.2,3.4,4.2,3.4C467.1,158.3,482,149.4,488.7,142.7z
			 M473.4,112.2c1,0,1.4,0.8,1.4,1.8c0,2-2.6,5.7-4.9,5.7c-1,0-1.8-1-1.8-2C468.2,115.7,471,112.2,473.4,112.2z"/>
		<path class="st0" d="M486.1,164.7c-3.6,0-5.6-1.9-5.6-5.6c0-3.6,2.1-9.1,5.7-14.6c2.6-4,6.3-8.6,8.6-8.6c1.7,0,2.9,1.2,2.9,2.7
			c0,1.1-1.2,2.6-3.5,5.3c-3.5,4.1-8.3,9.7-8.3,15.4c0,0.4,0.6,0.5,0.9,0.5c7.9,0,21.1-12.3,26.7-17.5l0.1-0.1
			c0.3-7.9,4.9-16.6,11-16.6c0.8,0,2.7,0.3,2.7,3.6c0,3-2.8,7.4-8.5,13.6c0.1,4.3,2.6,6.7,7.2,6.7c5.2,0,11.4-3,15.5-7.5l0.5-0.6
			l3,3.3l-0.5,0.5c-5.9,5.9-13.7,9.3-21.4,9.3c-4.6,0-7.9-2.5-9.1-7C505.4,155.9,493.1,164.7,486.1,164.7z"/>
		<path class="st0" d="M544.1,144.7c-6.1,6.1-13.8,9.1-20.8,9.1c-5.1,0-7.9-3.2-8.7-7.7c-9.3,9.1-21.9,17.8-28.5,17.8
			c-3.6,0-4.9-2-4.9-4.9c0-7.9,10.3-22.5,13.6-22.5c1.2,0,2.2,0.8,2.2,2c0,2.6-11.7,11.5-11.7,20.6c0,0.8,0.8,1.2,1.6,1.2
			c8.3,0,21.9-12.7,27.5-18c0.2-7.5,4.5-16.2,10.3-16.2c1.6,0,2,1.4,2,2.8c0,3-3.4,7.9-8.5,13.4c0,5.3,3.2,7.7,7.9,7.7
			c5.1,0,11.5-2.8,16-7.7L544.1,144.7z"/>
		<path class="st0" d="M544.8,165.3c-4.9,0-10.2-3.7-10.2-9.6c0-12.2,17.2-23.6,25-23.6c2.9,0,4.6,1.6,4.6,4.2
			c0,6.6-18.2,16.6-22.9,19c0.1,3.3,2,4.7,5.9,4.7c3.9,0,10.1-2.3,17.3-6.5c6.1-3.5,12.3-8.1,15.7-11.5l0.5-0.5
			c2.1-1.3,4.1,0.2,3,3.3c-0.1,0.1-0.3,0.4-0.4,0.5C578.3,151,557.5,165.3,544.8,165.3z M556.9,137.1c-4.6,0-11.7,5.7-14.5,13
			c10.1-5.2,15.4-10.2,15.4-12.5C557.8,137.5,557.8,137.1,556.9,137.1z"/>
	</g>
	<g>
		<path class="st0" d="M72.2,172.6c-26.4,5.1-45.2,3.1-64.8-9.4c-9.7-6.2-8.7-6.4-3.1-14.8c12.9-19.3,47.3-65.1,62.1-87.1
			C64,54.5,62,45.4,62,38.3c0.1-21,8.5-34.4,30.9-37.8c16.3-2.5,32.7,4.2,42.7,16.7c11.3,14.1,16.7,30.6,18.3,47.8
			c1.1,11.9-1.3,21.3-3.4,32.6c0-0.1,0.3-0.1,0.3-0.1c3.1-0.4,6.9-1.4,9.6-2.3c1.3-0.4,1.1-0.4,2.1-0.6c0.8-0.2,2-0.2,2.1,1.9
			c0,1.5-2,3.5-4,4c-2.2,0.6-4.6,1.2-6.9,1.7c-1.4,0.3-3.2,0.5-4.9,0.8C138.5,137.3,110.5,165.2,72.2,172.6z M71.1,166.6
			c36.8-7.3,58-31.9,70.6-62.7c-29.9,5.6-55.6-4.7-72.3-35.3C48.2,99,27.9,125.1,8,152.9c-1.6,2.2-0.9,3,2.2,5.1
			C29.7,171.4,50.8,170.6,71.1,166.6z M74.2,62.3c15,29.5,36.2,41.9,69.5,36.4c2.2-10.1,4.2-19.5,3.3-30c-1.5-16.9-6.6-33.3-17-46.9
			C121,10,105.8,4.7,92,6.5C75.7,8.7,70.2,19.5,68.6,34.7c-0.7,6.9,0.8,13.7,2.7,19.6c6.6-8.2,14.4-18.4,21.5-25.2
			c2.1-2,5.3-2.3,7.1-0.2c1.4,1.7-1.6,4.7-3,6C88.4,43.1,81.3,52.9,74.2,62.3z"/>
	</g>
</g>
<g>
	<path class="st0" d="M21.8,461.7l-3.2,0.8l-0.5-0.5l10.1-11.6l0.5,0.4c-3.3,8.1-4.1,16.7,0.7,21.1c4.1,3.8,8.7,2.4,11.5-0.6
		c2.4-2.7,2.4-6.4,0.1-10.6c-1.4-2.5-3.1-5.4-3.9-7.3c-2.3-5.1-1-10,2.4-13.8c4.5-4.9,12.4-5.4,19.2,0.8c4.1,3.7,6.1,7.6,6.8,10
		l2.7-0.6l0.5,0.5L59,461.2l-0.5-0.4c3.2-7.5,4.7-14.9-0.1-19.3c-3.3-3-7.4-2.1-10,0.6c-2.4,2.7-2.9,5.9-0.4,10.9
		c1.2,2.3,3.1,5.4,4,7.3c2.2,4.7,2.3,9.1-2.1,13.9c-5,5.5-13.6,5.3-20.6-1.2C24.1,468.2,22.6,464.1,21.8,461.7z"/>
	<path class="st0" d="M71.3,505c1.5,0.8,3.2,1.7,3.9,1.9c1.5,0.4,2.3-0.2,3.1-1.3l18.6-28.4c0.7-1.1,1.1-2.3,0.1-3.5
		c-0.7-0.8-2.1-2-3.3-2.9l0.2-0.4l18.9,12.4l-0.2,0.4c-0.9-0.5-2.9-1.6-3.9-1.9c-1.5-0.4-2.4,0.4-3.2,1.5l-18.6,28.3
		c-0.7,1.1-1,2.3-0.1,3.5c0.5,0.6,2.2,2,3.3,2.8l-0.2,0.4L71,505.4L71.3,505z"/>
	<path class="st0" d="M142.2,506.7l-9.9,23.1c-1.9,4.4-2.2,6.9-1.5,8.5c0.6,1.2,3.9,2.6,4.8,3.1l-0.2,0.4l-14.8-6.4l0.2-0.4
		c1,0.2,3.7,1.7,5.4,1.3c1.7-0.4,3.3-2.7,5.1-6.9L141,507c0.7-1.7,0.9-3.4,0.2-5.2c-0.7-1.7-2.5-2.9-4.4-4.3l0.2-0.5l14.4,6.2
		l8.5,34.3l7.2-16.7c1.9-4.3,2.2-6.9,1.4-8.5c-0.6-1.2-3.9-2.8-4.8-3.3l0.2-0.4l15,6.5l-0.2,0.4c-1-0.2-3.8-1.6-5.6-1.1
		c-1.6,0.4-3.3,2.7-5.1,6.9l-12.7,29.4l-2.5-1.1L142.2,506.7z"/>
	<path class="st0" d="M200.5,543.8c2.8-13,13.6-20,25.9-17.3c4.7,1,8.9,3.3,11.2,5.2l2.2-1.8l0.7,0.1l-3,15.4l-0.7-0.2
		c-1-10.8-4.9-16.7-10.2-17.9c-7.5-1.6-12.3,6.4-14.7,17.9c-2.7,12.5-0.7,20.3,7.4,22.1c6.2,1.3,11.7-1.4,16-6.7l0.6,0.4
		c-4,5.8-10.6,9.9-19.3,8C205.1,566.6,197.7,556.9,200.5,543.8z"/>
	<path class="st0" d="M269.9,575.4c1.7-0.1,3.5-0.2,4.2-0.5c1.5-0.5,1.9-1.4,1.9-2.8l0.7-33.9c0-1.3-0.3-2.5-1.8-3
		c-1-0.3-2.7-0.5-4.2-0.7l0-0.4l35.5,0.7l-0.2,10.9l-0.7,0c-0.9-2.8-5.1-9.6-8.3-10.1c-1.5-0.2-3.4-0.4-5.2-0.4l-4.8-0.1l-0.4,19
		l4,0.1c3.4,0.1,4.6-0.9,5.4-1.7c1.3-1.3,2.8-4.7,3.1-6.4l0.7,0l-0.4,17.4l-0.7,0c-0.2-1.9-1.8-5.7-2.9-6.8
		c-0.8-0.9-2.1-1.8-5.3-1.9l-4-0.1l-0.3,15.3c-0.1,4.5,0.8,5.2,6.4,5.3c3.4,0.1,6.7,0.1,8.2-1.3c2.6-2.4,6.1-8.2,7.4-10.4l0.6,0
		l-1.1,12.8l-37.8-0.8L269.9,575.4z"/>
	<path class="st0" d="M371.6,569c1.1-0.3,3.6-1.2,4.7-1.8c1-0.5,1.7-1.7,1.4-3.1l-6.2-28.2c-2.5,0.8-5.1,1.5-7.7,2.2l-0.1-0.5
		c3-1.1,4.6-1.6,8.7-3.6c3.4-1.7,5.6-3.4,7.1-4.8l0.6-0.1c0.1,2.8,0.7,6,1.5,9.6l5.1,23.3c0.4,1.6,1.2,2.2,2.4,2.5
		c1,0.2,3.7-0.1,4.7-0.2l0.1,0.4l-22.3,4.9L371.6,569z"/>
	<path class="st0" d="M428.6,554c-1-2.4,0.2-4.9,3-6c3.6-1.5,5.2,1.5,7.3,4.9c1,1.6,2,2.5,3.5,1.9c5.3-2.1,4.2-12.9,1.3-23.1l-0.2,0
		c-1,4.5-3.6,6.9-7.1,8.3c-5.8,2.3-12.4-0.2-15.4-7.8c-2.3-5.8-1.9-14.9,9.5-19.4c7.6-3,16.3,0.5,20.6,11.3
		c5.5,13.7,0.8,27.9-10.3,32.3C434.4,559,430,557.6,428.6,554z M440.4,522.8c-2.7-6.8-6.8-10.5-9.8-9.3c-5.1,2-2.2,10-0.3,14.6
		c2.4,6.1,5.8,9.6,9.3,8.3C442.6,535.1,443.4,530.5,440.4,522.8z"/>
	<path class="st0" d="M488.2,519.7c-1.9-3.1-0.7-5.8,1.4-7.1c2.2-1.3,4.7-0.9,5.8,0.9c1.6,2.7,1.1,4.5,1.3,6.4
		c0.9,1,3.7,0.7,5.7-0.5c3.7-2.3,2.8-9.1-0.7-14.8c-3.2-5.1-6.9-7.1-10.9-4.7c-2.9,1.8-4.9,6.3-4.7,9.6l-0.9,0.2l-6.9-20.1l0.6-0.4
		c1.2,0.4,6.5-1.2,10.5-3.7c3.6-2.3,7.3-5.3,8.5-8.5l0.6,0.1c-0.2,9-4.9,14.4-10.8,18c-1.2,0.7-4.9,2.8-5.3,3l3.1,9.1
		c0.6-2.3,1.3-6.2,7.2-9.8c6.9-4.2,14.1-4.2,17.9,1.8c4.7,7.6,0.9,15.1-7.8,20.5C497.4,523.2,491.1,524.4,488.2,519.7z"/>
	<path class="st0" d="M542.7,480.9c-3-3.3-1.6-8,0.6-12.1c-5.6,1.7-9.2,0.4-12-2.6c-4.3-4.8-2.7-13.1,3.2-18.3
		c5.7-5.1,12.1-6.2,15.5-2.5c2.7,3.1,1,7.7-0.3,10.4c6.9-2.2,10.7-1.7,13.8,1.8c5.2,5.8,3.2,14.4-3.9,20.7
		C553.4,483.8,546.4,485.1,542.7,480.9z M546,450c-2.8-3.2-7.4-4.6-11.4-1.1c-4.3,3.8-3.4,7.8-1.4,10c1.9,2.2,5.2,1.6,9.5-0.2
		c2.1-0.9,4.7-1.9,6.2-2.5C548.6,454,548.2,452.5,546,450z M561.6,465.5c-2.1-2.4-5.4-2.2-10.7,0.3c-2.1,1-5.2,2.2-6.9,2.8
		c0.1,2.6,0.7,4.9,3.4,7.9c3.1,3.5,8.3,4.3,12.7,0.5C564.4,473,564,468.2,561.6,465.5z"/>
</g>
<g>
	<path class="st0" d="M61.4,309.5L56.3,295h-32l-5.1,14.5H5.2l27.4-75.2h15.3l27.4,75.2H61.4z M40.3,247.5l-12.5,35.9h25.1
		L40.3,247.5z"/>
	<path class="st0" d="M93,298.9l6.9-10.3c4.7,5.5,12.3,10.5,22.1,10.5c10,0,13.9-5.3,13.9-10.4c0-15.8-40.6-6-40.6-33.6
		c0-12.5,10-22.1,25.4-22.1c10.8,0,19.7,3.8,26,10.6l-6.9,9.8c-5.5-6-13-8.7-20.3-8.7c-7.1,0-11.7,3.8-11.7,9.4
		c0,14.1,40.6,5.4,40.6,33.4c0,12.5-8.3,23.3-27,23.3C108.5,310.9,99.2,305.9,93,298.9z"/>
	<path class="st0" d="M170.7,298.9l6.9-10.3c4.7,5.5,12.3,10.5,22.1,10.5c10,0,13.9-5.3,13.9-10.4c0-15.8-40.6-6-40.6-33.6
		c0-12.5,10-22.1,25.4-22.1c10.8,0,19.7,3.8,26,10.6l-6.9,9.8c-5.5-6-13-8.7-20.3-8.7c-7.1,0-11.7,3.8-11.7,9.4
		c0,14.1,40.6,5.4,40.6,33.4c0,12.5-8.3,23.3-27,23.3C186.3,310.9,177,305.9,170.7,298.9z"/>
	<path class="st0" d="M253,309.5v-75.2h12.2v75.2H253z"/>
	<path class="st0" d="M291.3,298.9l6.9-10.3c4.7,5.5,12.3,10.5,22.1,10.5c10,0,13.9-5.3,13.9-10.4c0-15.8-40.6-6-40.6-33.6
		c0-12.5,10-22.1,25.4-22.1c10.8,0,19.7,3.8,26,10.6l-6.9,9.8c-5.5-6-13-8.7-20.3-8.7c-7.1,0-11.7,3.8-11.7,9.4
		c0,14.1,40.6,5.4,40.6,33.4c0,12.5-8.3,23.3-27,23.3C306.9,310.9,297.6,305.9,291.3,298.9z"/>
	<path class="st0" d="M389.2,309.5v-63.6H368v-11.6h54.5v11.6h-21.1v63.6H389.2z"/>
	<path class="st0" d="M448.6,309.5v-75.2h47.8v11.6h-35.6v19.4h34.8v11.6h-34.8v21h35.6v11.6H448.6z"/>
	<path class="st0" d="M524.6,309.5v-75.2h25.9c21.9,0,36.5,15.6,36.5,37.6c0,22.2-14.6,37.7-36.4,37.7H524.6z M574.5,271.8
		c0-14.4-8.4-25.9-23.8-25.9h-13.8v52h13.7C565.7,297.9,574.5,286.2,574.5,271.8z"/>
	<path class="st0" d="M101.7,398v-75.2H114v63.6h30.7V398H101.7z"/>
	<path class="st0" d="M171.2,398v-75.2h12.2V398H171.2z"/>
	<path class="st0" d="M234.1,398l-27.4-75.2h13.9l21.1,60.8l21.1-60.8h13.9L249.4,398H234.1z"/>
	<path class="st0" d="M300,398v-75.2h12.2V398H300z"/>
	<path class="st0" d="M391.4,398L355,344.2V398h-12.2v-75.2h12.5l35.7,52.1v-52.1h12.2V398H391.4z"/>
	<path class="st0" d="M430.7,360.5c0-23.7,16.3-38.9,36.6-38.9c13.6,0,22.5,7,28,15.6l-9.9,6.2c-3.8-5.6-10.4-10-18.1-10
		c-13.8,0-24,11.3-24,27.2c0,15.7,10.2,27.2,24,27.2c7.1,0,13.4-3.5,16.5-6.8v-11.6h-20.9v-11.6h33v28.1
		c-6.8,8.2-16.6,13.8-28.7,13.8C447,399.5,430.7,384.1,430.7,360.5z"/>
</g>
</svg>
