<?xml version="1.0" encoding="utf-8"?>
<svg version="1.1" id="Layer_1" xmlns="http://www.w3.org/2000/svg" xmlns:xlink="http://www.w3.org/1999/xlink" x="0px" y="0px"
	 viewBox="0 0 231.7 198" style="enable-background:new 0 0 231.7 198;" xml:space="preserve">
<g>
	<path class="st0" d="M154.2,132.1c-2.2,1.2-4.5,2.1-7,2.3c-20.9,1.1-31.5-19.7-33.8-46.9c-0.1-0.9-0.1-1.7-0.1-2.5l30.1-18.4
		c6.6-5.1,2.6-12.1-2.1-12.4c-5.2-0.3-8.2,3.5-8.4,7.8c-0.1,1.2,0.1,2.3,0.2,3.6c0.2,1.7-0.7,3.4-2.2,4.3l-40,24.5l17.5-45.6
		c0.2-0.5-0.2-1-0.7-1H82.1h-0.3c0,0,0,0,0,0l-13,0c-0.1,0-0.2,0-0.3,0c-0.1,0-0.2,0-0.4,0H68v0C62.1,48.1,57.3,53,57.3,59
		c0,5.5,3.9,10,9.1,11c0.4,0.1,0.8-0.2,0.9-0.5l0.7-2c0.1-0.3-0.1-0.7-0.5-0.7c-3.5-0.4-6.5-3.8-6.1-7.7c0.3-3.7,3.1-6.2,6.8-6.4v0
		h0c0,0,0.1,0,0.1,0l0.7,0c0,0,0.1,0,0.1,0h5.4c0,0,0,0,0,0l1.3,0c1.9,0,3.3,1.9,2.6,3.8c-6.1,15.7-28.6,74-28.6,74
		c-1.7,4-3.6,6.5-8,7.1l-5.7,0.5c-0.1,0-0.1,0-0.1,0.1l0,2.6h45.9l0-2.6c0-0.1,0-0.1-0.1-0.1l-5.1-0.7c-1.6-0.4-1.6-2.2-1.2-3.4
		l13-33.8c1.4,4.2,3.2,8.4,5.5,12.5c13.9,25,38.8,36.2,55.6,25.1c2-1.3,3.8-2.9,5.3-4.7C155.5,132.5,154.9,131.7,154.2,132.1z"/>
	<path class="st0" d="M165.4,168.1c-2.5-1.1-5.4-0.6-7.5,1.1c-7.3,6.2-15.6,11.1-24.5,14.7c-11,4.5-22.6,6.7-34.5,6.7
		c-7.2,0-14.2-0.9-21.1-2.5c-0.3-0.1-0.6-0.2-0.9-0.3c-9.3-2.3-18.1-6.1-26.3-11.2c-10.1-6.3-18.7-14.4-25.7-24
		c-7.2-9.9-12.3-21.1-15-33.1c-2.8-12.1-3.1-24.3-1-36.4c2-11.7,6.3-22.7,12.6-32.8c6.3-10.1,14.4-18.7,24-25.7
		c0.1-0.1,0.2-0.1,0.3-0.2c5.9-4.2,12.2-7.7,19-10.4c3.7-1.5,7.5-2.8,11.4-3.8c0,0,0,0,0.1,0c0,0,0.1,0,0.1,0
		c0.8-0.2,1.6-0.4,2.4-0.6c12.1-2.8,24.3-3.1,36.4-1c11.7,2,22.7,6.3,32.8,12.6c3.4,2.1,6.6,4.5,9.7,7c0,0,0,0,0,0
		c2.8,2.3,7,2,9.4-0.8l0.3-0.4l-0.5-0.4c-4.6-4.3-9.7-8.2-15.2-11.6c-10.9-6.8-22.8-11.4-35.4-13.6c-13-2.3-26.3-1.9-39.3,1.1
		c-12.4,2.9-23.9,8-34.2,15.2C38.1,20.8,33.9,24.2,30,28c-9.5,9.2-17,20.1-22.2,32.4C2.6,72.8,0,85.7,0,99c0,12.8,2.4,25.3,7.3,37.2
		C12.1,148.1,19,158.8,28,168c9.2,9.5,20.1,17,32.4,22.2c12.3,5.2,25.3,7.9,38.5,7.9c12.8,0,25.3-2.4,37.2-7.3
		c11.9-4.8,22.6-11.8,31.8-20.7c0.2-0.2,0.4-0.4,0.6-0.6L165.4,168.1z"/>
	<g>
		<path class="st0" d="M175.2,90.9c0.8,0,2.6-0.3,3.5-0.5c0.8-0.2,1.4-0.9,1.4-1.9V68.2c-1.8,0.2-3.7,0.3-5.6,0.3v-0.3
			c2.2-0.3,3.4-0.4,6.5-1.2c2.6-0.6,4.4-1.5,5.6-2.2h0.4c-0.3,1.9-0.4,4.2-0.4,6.8v16.8c0,1.2,0.5,1.7,1.2,2.1
			c0.6,0.3,2.5,0.5,3.3,0.6v0.3h-16V90.9z"/>
		<path class="st0" d="M206.8,90.9c0-1.8,1.4-3.1,3.5-3.1c2.8,0,3,2.4,3.5,5.1c0.2,1.3,0.6,2.2,1.8,2.2c4,0,6.1-7.3,6.9-14.7l-0.2,0
			c-1.8,2.7-4.2,3.6-6.8,3.6c-4.4,0-8-3.4-8-9.2c0-4.4,2.7-10.2,11.3-10.2c5.8,0,10.5,4.6,10.5,12.8c0,10.4-6.8,18.4-15.2,18.4
			C209.3,95.7,206.8,93.6,206.8,90.9z M222.6,73.7c0-5.1-1.7-8.6-4-8.6c-3.9,0-4,5.9-4,9.5c0,4.6,1.3,7.8,3.9,7.8
			C220.9,82.3,222.6,79.5,222.6,73.7z"/>
	</g>
	<g>
		<path class="st0" d="M171.9,127.6c0-2.5,1.7-3.7,3.5-3.7c1.8,0,3.1,1.2,3.1,2.7c0,2.2-1,3.1-1.5,4.3c0.1,0.9,1.9,1.8,3.6,1.8
			c3.1,0,5.1-4.4,5.1-9.1c0-4.2-1.5-6.8-4.8-6.8c-2.4,0-5.2,1.9-6.4,4l-0.6-0.2l3.3-14.6h0.5c0.6,0.7,4.3,1.7,7.6,1.7
			c3,0,6.4-0.5,8.2-1.9l0.3,0.3c-3.4,5.3-8.2,6.8-13.2,6.8c-1,0-4-0.1-4.3-0.2l-1.5,6.6c1.2-1.2,3.1-3.2,8-3.2c5.7,0,10,2.7,10,7.7
			c0,6.3-5,9.4-12.3,9.4C176.1,133.1,171.9,131.4,171.9,127.6z"/>
		<path class="st0" d="M209.9,126.7c0-3.1,2.9-4.9,5.9-6.1c-3.7-1.8-5.1-4.1-5.1-7c0-4.5,4.7-8.1,10.2-8.1c5.4,0,9.3,2.4,9.3,5.9
			c0,2.9-3.1,4.5-5,5.3c4.6,2.1,6.4,4.1,6.4,7.4c0,5.5-5,9.1-11.7,9.1C214.2,133.2,209.9,130.6,209.9,126.7z M227.1,127.4
			c0-2.3-1.8-3.7-5.8-4.8c-1.6-0.5-3.8-1.3-4.9-1.8c-1.2,1.5-1.9,2.9-1.9,5.7c0,3.3,2.3,6.1,6.4,6.1
			C225,132.7,227.1,129.9,227.1,127.4z M226.1,111.9c0-3-1.7-5.9-5.5-5.9c-4,0-5.4,2.5-5.4,4.6c0,2.1,2,3.3,5.1,4.3
			c1.5,0.5,3.4,1.2,4.4,1.5C225.6,115.3,226.1,114.3,226.1,111.9z"/>
	</g>
</g>
</svg>
