<?xml version="1.0" encoding="utf-8"?>
<svg version="1.1" id="Layer_1" xmlns="http://www.w3.org/2000/svg" xmlns:xlink="http://www.w3.org/1999/xlink" x="0px" y="0px"
	 viewBox="0 0 852.9 591.8" style="enable-background:new 0 0 852.9 591.8;" xml:space="preserve">
<g>
	<path class="st0" d="M0,324.8v-75.2h12.2v75.2H0z"/>
	<path class="st0" d="M91.4,324.8L55,271v53.8H42.8v-75.2h12.5L91,301.7v-52.1h12.2v75.2H91.4z"/>
	<path class="st0" d="M133.7,324.8v-75.2h25.9c21.9,0,36.5,15.6,36.5,37.6c0,22.2-14.6,37.7-36.4,37.7H133.7z M183.6,287.2
		c0-14.4-8.4-25.9-23.8-25.9H146v52h13.7C174.8,313.2,183.6,301.5,183.6,287.2z"/>
	<path class="st0" d="M223.7,324.8v-75.2h47.8v11.6h-35.6v19.4h34.8v11.6h-34.8v21h35.6v11.6H223.7z"/>
	<path class="st0" d="M299.7,324.8v-75.2h30.7c14.6,0,22.7,10.7,22.7,23.6c0,12.7-8.2,23.5-22.7,23.5h-18.5v28.2H299.7z
		 M340.6,273.2c0-7.2-4.9-12-11.8-12h-16.8V285h16.8C335.6,285,340.6,280.3,340.6,273.2z"/>
	<path class="st0" d="M379,324.8v-75.2h47.8v11.6h-35.6v19.4h34.8v11.6h-34.8v21h35.6v11.6H379z"/>
	<path class="st0" d="M503.7,324.8L467.3,271v53.8H455v-75.2h12.5l35.7,52.1v-52.1h12.2v75.2H503.7z"/>
	<path class="st0" d="M546,324.8v-75.2h25.9c21.9,0,36.5,15.6,36.5,37.6c0,22.2-14.6,37.7-36.4,37.7H546z M595.9,287.2
		c0-14.4-8.4-25.9-23.8-25.9h-13.8v52h13.7C587.1,313.2,595.9,301.5,595.9,287.2z"/>
	<path class="st0" d="M635.9,324.8v-75.2h47.8v11.6h-35.6v19.4H683v11.6h-34.8v21h35.6v11.6H635.9z"/>
	<path class="st0" d="M760.6,324.8L724.2,271v53.8h-12.2v-75.2h12.5l35.7,52.1v-52.1h12.2v75.2H760.6z"/>
	<path class="st0" d="M819.5,324.8v-63.6h-21.1v-11.6h54.5v11.6h-21.1v63.6H819.5z"/>
	<path class="st0" d="M227.7,413.4v-75.2H240v63.6h30.7v11.6H227.7z"/>
	<path class="st0" d="M297.2,413.4v-75.2h12.2v75.2H297.2z"/>
	<path class="st0" d="M360.1,413.4l-27.4-75.2h13.9l21.1,60.8l21.1-60.8h13.9l-27.4,75.2H360.1z"/>
	<path class="st0" d="M426,413.4v-75.2h12.2v75.2H426z"/>
	<path class="st0" d="M517.4,413.4L481,359.6v53.8h-12.2v-75.2h12.5l35.7,52.1v-52.1h12.2v75.2H517.4z"/>
	<path class="st0" d="M556.7,375.8c0-23.7,16.3-38.9,36.6-38.9c13.6,0,22.5,7,28,15.6l-9.9,6.2c-3.8-5.6-10.4-10-18.1-10
		c-13.8,0-24,11.3-24,27.2c0,15.7,10.2,27.2,24,27.2c7.1,0,13.4-3.5,16.5-6.8v-11.6h-20.9V373h33v28.1c-6.8,8.2-16.6,13.8-28.7,13.8
		C573,414.8,556.7,399.4,556.7,375.8z"/>
</g>
<g>
	<path class="st0" d="M125.3,168.4c-1.6,0-1.7-1.2-1.7-1.5c0-0.7,0.5-1.4,1.6-2.5c5-4.1,15.1-10.8,31.8-21.1
		c-11.8-5.8-16-13.6-16-18.7c0-2.5,1.3-6.6,10-6.6c3.3,0,10.5,1.4,20.5,3.3c5,1,10.7,2.1,16.8,3.1c3.8-2.3,7.7-4.6,11.7-7
		c23.5-14.1,50.2-30.1,74.1-45.5c1.4-5.4,2.6-11,3.8-16.5C286.1,18.5,324.9,0,344.2,0c7.1,0,11.2,2.5,11.2,7
		c0,13.1-24.1,34.6-75.8,67.6c-5.5,21.3-11.7,41.6-27.1,55.7c13.9-0.1,24.3-1.9,33-9.3c0.4-0.4,0.8-0.4,1.1-0.4
		c0.8,0,1.7,0.6,1.7,3.3v0.3l-0.3,0.2c-11.5,9.9-22.5,9.9-36.5,9.9h-4.2c-13.8,10.3-32.6,15.4-57.7,15.4c-10.2,0-19.5-1.5-27.6-4.4
		c-11.2,6.8-24,14.7-34.9,22C126.9,167.7,125.7,168.4,125.3,168.4z M166.9,142.6c7,2.2,15.4,3.3,25,3.3c18.7,0,33.9-3.9,46.3-11.8
		c-20.5-0.7-37.8-2.9-49.2-4.6L166.9,142.6z M154.4,123.9c-5.4,0-5.4,1.4-5.4,1.9c0,4.3,3.3,10.4,12.4,14.6l20.2-12
		c-5.6-0.9-10.6-1.8-14.7-2.6C160.9,124.7,156.4,123.9,154.4,123.9z M195.5,125.6c17.9,2.9,33.9,4.5,47.7,4.7
		c16.5-13.3,24-33.9,28.6-50.9C248.1,94.3,222.2,109.8,195.5,125.6z M342.8,4.1c-15.4,0-48.5,17.2-56.6,45.4
		c-1.5,5.2-2.8,10.4-4.1,15.4l-0.5,2c45.8-29.8,68.1-49,68.1-58.7C349.8,4.6,345.4,4.1,342.8,4.1z"/>
	<path class="st0" d="M251.7,133.7h-4.5c-12.5,9.5-30.8,15.4-57.5,15.4c-11.3,0-20.4-1.8-27.7-4.5c-13.4,8.1-25.1,15.4-35.2,22.3
		c-0.2,0.2-1.4,0.8-1.6,0.8c-0.6,0-1-0.2-1-0.8c0-0.4,0.4-1,1.4-2c5.7-4.7,17.6-12.3,32.8-21.7c-11.5-5.3-16.8-13-16.8-18.6
		c0-3.6,3-5.9,9.3-5.9c4.9,0,19.2,3.2,37.4,6.5c26.9-16.2,58.3-34.8,86.2-52.8c1.4-5.5,2.6-11.1,3.8-16.8
		c8.3-36.4,46.9-54.8,65.8-54.8c6.3,0,10.5,2,10.5,6.3c0,15-33.2,40.1-75.7,67.2c-5.7,22.1-12.1,42.9-28.3,56.9
		c13.8,0,25.7-1.2,35.4-9.5c0.2-0.2,0.4-0.2,0.6-0.2c1,0,1,2.2,1,2.6C276.4,133.7,265.5,133.7,251.7,133.7z M183.7,128
		c-15.2-2.4-25.7-4.9-29.3-4.9c-4,0-6.1,0.8-6.1,2.6c0,4.5,3.2,10.9,13.2,15.4L183.7,128z M165.1,142.8c6.5,2.2,15.2,3.8,26.7,3.8
		c21.2,0,36.8-5.1,48.6-13.2c-20-0.6-37.4-2.6-51.6-4.7L165.1,142.8z M243.4,131c16.2-13,24.1-32.6,29.5-53.2
		c-25.3,16-53.2,32.6-79.5,48.2C209,128.6,226.8,130.8,243.4,131z M280.5,68.5c39.1-25.3,70-48.6,70-60.3c0-3.2-3-4.9-7.7-4.9
		c-15.4,0-49,17-57.3,45.9C283.7,55.8,282.1,62.2,280.5,68.5z"/>
	<path class="st0" d="M286.9,142.1c-4.4,0-6.8-2.3-6.8-6.6c0-8.7,10.5-24.4,14.1-24.4c0.9,0,1.5,0.3,2,1.1c0.3,0.5,0.5,1.2,0.5,1.8
		c0,0.9-1,2.5-3.1,5.8c-2.8,4.4-6.6,10.3-6.6,13.8c0,1.8,1.2,2.7,3.5,2.7c9.7,0,24.6-9,31.1-15.4l0.5-0.5l3,3.3l-0.4,0.5
		C319.6,130.2,299.6,142.1,286.9,142.1z M312.4,90.3c-1.4,0-2.5-1.3-2.5-2.7c0-2.4,3.2-6.2,6-6.2c1.3,0,2.1,1,2.1,2.5
		C318,86.2,315.2,90.3,312.4,90.3z"/>
	<path class="st0" d="M322.1,121.5l2,2.2c-5.3,6.1-24.9,17.6-37.2,17.6c-4.5,0-6.1-2.4-6.1-5.9c0-8.7,10.5-23.7,13.4-23.7
		c0.6,0,1,0.2,1.4,0.8c0.2,0.4,0.4,1,0.4,1.4c0,2-9.7,13.8-9.7,19.6c0,2,1.2,3.4,4.2,3.4C300.5,137.1,315.5,128.2,322.1,121.5z
		 M315.9,82.1c1,0,1.4,0.8,1.4,1.8c0,2-2.6,5.7-4.9,5.7c-1,0-1.8-1-1.8-2C310.6,85.5,313.4,82.1,315.9,82.1z"/>
	<path class="st0" d="M264.9,229.7c-7,0-8-4.1-8-6.6c0-11.5,11.5-32.9,66.1-69.7c5.6-9.4,9.7-16.9,11.1-19.5
		c-3.8,2.6-12.5,8.1-17.8,8.1c-2.3,0-5-1-5-5.8c0-11.4,26.6-28.6,32.5-28.6c1.6,0,4.2,1.7,4.2,3.6c0,0.9-1.2,1.3-3.2,1.9
		c-12.7,3.3-27,17.2-27,20.6c0,1.3,1.1,2.1,2.9,2.1c5.9,0,18.5-11.8,22.5-16.9c1.8-2.5,3.2-3.5,4.6-3.5c1.2,0,2.5,0.9,2.5,2.3
		c0,0.8-0.3,1.9-0.4,2.3l0,0l0,0c-0.6,1.3-4.6,7-5.7,8.6c-3.2,4.3-7.7,11.4-12.2,18.7c9.7-6.2,19.8-12.3,29.9-18.1
		c4.2-2.5,8.5-5.7,11.2-8.4l0.5-0.5l3,3.3l-0.4,0.5c-1.9,2.1-5.6,5-9.9,7.6c-14.6,8.5-27.9,16.9-39.7,24.8
		C309.3,185.7,283.4,229.7,264.9,229.7z M317.1,163.1c-34.7,24.8-53.8,45.6-53.8,58.5c0,1.4,0.5,2.9,4.3,2.9
		C275.7,224.6,293.2,202.8,317.1,163.1z"/>
	<path class="st0" d="M326,155.9c-18.2,31-43.5,73-61.1,73c-5.3,0-7.3-2.4-7.3-5.9c0-17,25.7-42.1,66-69.2
		c7.1-11.9,11.7-20.6,11.7-20.6c0-0.6-0.6-0.6-0.6-0.6c-3.4,2.4-13,8.7-18.4,8.7c-2.6,0-4.2-1.4-4.2-5.1c0-11.1,26.5-27.9,31.8-27.9
		c1.2,0,3.4,1.4,3.4,2.8c0,0.4-1.2,0.8-2.6,1.2c-12.5,3.2-27.5,17.2-27.5,21.2c0,1.6,1.2,2.8,3.6,2.8c6.3,0,19-11.9,23.1-17.2
		c1.8-2.4,3-3.2,4-3.2c0.8,0,1.8,0.6,1.8,1.6c0,0.6-0.2,1.4-0.4,2c-0.6,1.2-4.5,6.9-5.7,8.5c-3.4,4.7-8.3,12.3-14,21.4
		c10.1-6.5,21-13.2,32.6-19.8c4.5-2.6,8.7-5.9,11.3-8.5l2,2.2c-1.8,2-5.5,4.9-9.7,7.5C351.7,139.3,338.3,147.6,326,155.9z
		 M319.5,160.6c-33.6,23.7-56.9,46.5-56.9,61.1c0,2.4,1.6,3.6,5.1,3.6C278.8,225.3,303.3,187.7,319.5,160.6z"/>
	<path class="st0" d="M410.8,142.5c-5.8,0-9-2.6-9-7.2c0-2,0.7-4.1,1.6-6.1c-1.1,0.6-2.8,1.5-4.5,2.5c-10,5.5-20,10.9-23.6,10.9
		c-2.4,0-3.8-1.3-3.8-3.6c0-4.3,4.9-11.9,8.2-17c0.5-0.7,0.9-1.5,1.3-2.1c-1.1,0.8-2.4,2-3.4,3c-1.2,1-2.4,2.1-3.3,2.9
		c-0.9,0.9-2,1-2.5,1c-1.6,0-3-0.9-3-0.9l-0.8-0.6l0.8-0.6c1.1-0.8,2-1.7,3-2.5c0.5-0.4,0.9-0.8,1.4-1.3c0,0,8.3-8.3,13-8.3
		c1.4,0,3.1,0.7,3.1,4.2c0,1.3-1.6,4-4.3,8.3c-2.5,4.1-5.6,9.1-5.6,11.2c0,0,0,0.1,0,0.1c2.6-0.2,13.7-7.1,21.1-11.7
		c7.6-4.7,10.3-6.3,11.2-6.3c1.6,0,2.3,2.5,2.3,3.6c0,1-0.7,2.4-2,4.7c-1.5,2.7-3.3,6.1-3.3,8.4c0,1.6,0.5,3.3,4.5,3.3
		c9.6,0,28.4-10.7,35.1-17.4l0.5-0.5l3,3.3l-0.4,0.5C446,130.3,424.2,142.5,410.8,142.5z"/>
	<path class="st0" d="M411.6,118.9c1,0,1.6,2,1.6,2.8c0,2-5.3,8.9-5.3,13.2c0,3,2,4,5.3,4c9.9,0,28.9-10.9,35.6-17.6l2,2.2
		c-5.3,6.1-26.9,18.2-40.1,18.2c-4.9,0-8.3-1.8-8.3-6.5c0-2.4,1.2-5.3,2.2-7.5c0.4-1-23.9,14-29.5,14c-2.2,0-3-1.2-3-2.8
		c0-6.1,10.9-20,10.5-20.8c-1.4,0-6.1,4.9-8.9,7.1c-0.6,0.6-1.4,0.8-2,0.8c-1.4,0-2.6-0.8-2.6-0.8c1.6-1.2,2.8-2.4,4.5-3.8
		c2.2-2.2,8.9-8.1,12.5-8.1c1.4,0,2.4,0.8,2.4,3.4s-9.9,15.4-9.9,19.4c0,0.4,0.2,0.8,0.6,0.8C383.4,136.9,409.8,118.9,411.6,118.9z"
		/>
	<path class="st0" d="M445,142.9c-4.1,0-6.4-2.1-6.4-5.8c0-9.9,17-29,40.2-29c4.8,0,6.8,0.9,6.8,3.1c0,0.9-0.3,2.9-3.6,2.9
		c-1.7-0.2-3.3-0.2-4.7-0.2c-19.3,0-32.1,14.9-32.1,20.9c0,1.3,0.6,1.9,1.9,1.9c5.1,0,17.4-8.3,21.6-11.4c1.3-4.5,4.6-9,9.3-9
		c0.5,0,2.1,0,2.1,1.5c0,2.3-5.3,7.1-7.3,8.8c0.3,6.4,3.3,9.5,9.2,9.5c9.2,0,23.8-8.1,31.1-15.4l0.5-0.5l3,3.3l-0.4,0.5
		c-5.2,6-25.1,17.9-37.8,17.9c-6.3,0-10.1-4.2-10.2-11.2C460.1,136.9,449.8,142.9,445,142.9z"/>
	<path class="st0" d="M469.4,125.8c1.2-4.7,4.5-8.7,8.7-8.7c1,0,1.4,0.2,1.4,0.8c0,1.4-3,4.9-7.3,8.5c0.2,7.7,4.2,10.5,9.9,10.5
		c9.9,0,24.7-8.7,31.6-15.6l2,2.2c-5.3,6.1-24.9,17.6-37.2,17.6c-6.9,0-9.5-5.1-9.5-10.7v-1.2c-8.3,6.5-19.2,13-24.1,13
		c-4,0-5.7-2-5.7-5.1c0-9.3,16.4-28.3,39.5-28.3c5.9,0,6.1,1.4,6.1,2.4c0,2.2-2.2,2.2-2.8,2.2c-1.6-0.2-3.2-0.2-4.7-0.2
		c-20,0-32.8,15.4-32.8,21.7c0,1.6,0.8,2.6,2.6,2.6C452.8,137.5,466.2,128.2,469.4,125.8z"/>
	<path class="st0" d="M514.6,141.9c-4.8,0-7.6-2.4-7.6-6.6c0-8.4,15.7-30.6,31.3-51.5l-3.5-0.1c-11.8-0.2-21.9-0.3-28.7-0.3
		c-10.8,0-20.6,0.1-28.5,0.1c-5.4,0-10,0.1-13.4,0.1c-3,0-7.4-1.1-7.4-3.4v-0.1l0-0.1c0.7-2.5,4.7-2.5,5.1-2.5
		c5.6,0,74.9,0.6,80.6,0.6c7.9-10.6,16.1-21.7,21.8-30c3-4.4,5.4-5.4,6.9-5.4c1.2,0,2.5,0.9,2.5,2.3c0,1.1-0.6,2.6-1.5,4
		c-4.7,6.9-12.9,17.6-21.6,29c13.2,0,53.4,0.4,53.8,0.4c0,0,0,0,0,0c1.4,0,4.7,0,4.7,2.3c0,3.3-1.7,4.6-6.2,4.6h-0.1l-0.1,0
		c-2.6-0.4-31.1-1.2-56.6-1.6c-14.4,18.8-34,44.3-34,49.9c0,3.3,1.4,3.7,2.5,3.7c9.7,0,28.1-10.2,34.5-16.6l0.5-0.5l3,3.3l-0.4,0.5
		C547.2,130,527.2,141.9,514.6,141.9z"/>
	<path class="st0" d="M507.7,135.3c0-8.1,15.8-30.6,32-52.2c-13.6-0.2-25.9-0.4-33.6-0.4c-18.2,0-33.4,0.2-41.9,0.2
		c-2.8,0-6.7-1-6.7-2.6c0.6-2,4.5-2,4.5-2c5.9,0,80.9,0.6,80.9,0.6c8.3-11.1,16.4-22.1,22.1-30.4c3-4.5,5.3-5.1,6.3-5.1
		c0.8,0,1.8,0.6,1.8,1.6s-0.6,2.4-1.4,3.6c-4.9,7.1-13.4,18.2-22.5,30.1c11.5,0,55.2,0.4,55.2,0.4c2,0,4,0.2,4,1.6
		c0,2.4-0.8,3.8-5.5,3.8c-2.6-0.4-30.8-1.2-57.1-1.6c-16.8,21.9-34.4,44.9-34.4,50.6c0,2.8,1,4.5,3.2,4.5c9.9,0,28.3-10.1,35-16.8
		l2,2.2c-5.3,6.1-24.9,17.6-37.2,17.6C510.7,141.1,507.7,139.5,507.7,135.3z"/>
	<path class="st0" d="M545.9,142.7c-3,0-4.8-1.7-4.8-4.6c0-8.3,14.9-28.4,18.3-28.4c1.7,0,2.7,2,2.7,3.1c0,0.6-0.6,1.4-3.2,4.6
		c-4,4.8-10.7,12.9-10.7,17.9c0,0.4,0.1,0.5,0.5,0.5c4.9,0,20.5-12.7,24.7-16.7c2.8-4.9,7-10.6,9.7-10.6c1.9,0,3.4,0,3.4,1.5
		c0,0.5,0,1-0.5,1.8c-0.1,0.2-0.6,0.8-1.6,2.2c-3.3,4.3-11.2,14.2-11.2,19.5c0,1.5,0.5,3.1,4.7,3.1c9.7,0,23.6-9.7,30.1-15.8
		l0.5-0.5l2.9,3.2L611,124c-5.2,6-25.4,18.1-38.2,18.1c-3.5,0-5.4-2.1-5.4-6c0-2.1,0.5-4.5,1.4-7.2
		C560.2,135.5,549.8,142.7,545.9,142.7z"/>
	<path class="st0" d="M568.2,136.1c0-2.6,0.8-5.9,2.2-9.3c-4.5,3.4-19.8,15.2-24.5,15.2c-2.8,0-4-1.6-4-3.8c0-8.3,15-27.7,17.6-27.7
		c1.2,0,2,1.6,2,2.4c0,1.4-14,15-14,22.5c0,0.8,0.4,1.2,1.2,1.2c5.3,0,21.2-13.2,25.3-17c3.2-5.7,7.1-10.3,9.1-10.3
		c1.8,0,2.6,0,2.6,0.8c0,0.4,0,0.8-0.4,1.4c-0.6,1.2-13,15.2-13,22.1c0,2,1,3.8,5.5,3.8c9.9,0,23.9-9.7,30.6-16l2,2.2
		c-5.3,6.1-25.3,17.8-37.6,17.8C569.4,141.4,568.2,139.1,568.2,136.1z"/>
	<path class="st0" d="M625.8,141.9c-6.1,0-10-3.1-10-8c0-3.2,3.4-8.5,7.1-12.6c-2.9-0.9-4.4-2.3-5.2-3.6c-2.7,2.8-5.8,5.6-8.6,8
		c-1.1,0.9-2.2,1-2.7,1c-1.6,0-2.8-0.9-2.9-1l-0.7-0.6l0.7-0.6c1.1-0.8,2-1.7,3-2.5c0.5-0.4,0.9-0.8,1.4-1.3
		c5.1-4.5,8.9-8.9,10.3-12.1c1.2-1.9,3.6-5.1,6.8-5.7l0.1,0h0.1c1.6,0,2.1,0.8,2.1,1.5c0,0.9-0.8,1.7-1.8,2.9
		c-1.2,1.3-2.6,3-2.6,4.3c0,2.4,0.8,3.9,5.1,4.5c1.5-1.2,2.7-1.8,3.9-1.8c1.5,0,2.3,1.6,2.3,2.7c0,1.1-1.3,2.4-3.7,4.8
		c-3.4,3.4-8.1,8-8.1,12.6c0,1.6,2.2,2.9,3.9,2.9c6.7,0,16.2-4.3,22.9-8.4c4.2-2.5,8.5-5.7,11.2-8.4l0.5-0.5l3,3.3l-0.4,0.5
		C658.5,130,638.5,141.9,625.8,141.9z"/>
	<path class="st0" d="M608.4,121.3c4.7-4,8.9-8.7,10.5-12.3c1.6-2.6,3.8-4.9,6.3-5.3c1,0,1.4,0.4,1.4,0.8c0,1.4-4.5,4.5-4.5,7.3
		s1.2,4.7,6.1,5.3c1.4-1.2,2.6-1.8,3.6-1.8s1.6,1.2,1.6,2c0,2.4-11.7,9.7-11.7,17.4c0,2,2.4,3.6,4.7,3.6c6.9,0,16.6-4.5,23.3-8.5
		c4.5-2.6,8.7-5.9,11.3-8.5l2,2.2c-5.3,6.1-24.9,17.6-37.2,17.6c-4.9,0-9.3-2.2-9.3-7.3c0-3,3.6-8.7,7.7-13
		c-3.6-0.8-5.7-2.4-6.3-4.5c-2.8,3-6.3,6.1-9.3,8.7c-0.8,0.6-1.6,0.8-2.2,0.8c-1.4,0-2.4-0.8-2.4-0.8
		C605.6,123.9,606.8,122.7,608.4,121.3z"/>
	<path class="st0" d="M663.9,144.1c-4.9,0-10.2-3.7-10.2-9.6c0-12.2,17.2-23.6,25-23.6c2.9,0,4.6,1.6,4.6,4.2
		c0,6.6-18.2,16.6-22.9,19c0.1,3.3,2,4.7,5.9,4.7c3.9,0,10.1-2.3,17.3-6.5c6.1-3.5,12.3-8,15.7-11.5c0.1-0.1,0.4-0.4,0.5-0.5
		c2.2-1.5,4.2,0.4,3,3.3c-0.1,0.1-0.3,0.4-0.4,0.5C697.5,129.8,676.6,144.1,663.9,144.1z M676,116c-4.6,0-11.7,5.7-14.5,13
		c10.1-5.2,15.4-10.2,15.4-12.5C676.9,116.3,676.9,116,676,116z"/>
</g>
<g>
	<path class="st0" d="M143.8,476.9l-3.2,0.8l-0.5-0.5l10.1-11.6l0.5,0.4c-3.3,8.1-4.1,16.7,0.7,21.1c4.1,3.8,8.7,2.4,11.5-0.6
		c2.4-2.7,2.4-6.4,0.1-10.6c-1.4-2.5-3.1-5.4-3.9-7.3c-2.3-5.1-1-10,2.4-13.8c4.5-4.9,12.4-5.4,19.2,0.8c4.1,3.7,6.1,7.6,6.8,10
		l2.7-0.6l0.5,0.5l-9.6,10.8l-0.5-0.4c3.2-7.5,4.7-14.9-0.1-19.3c-3.3-3-7.4-2.1-10,0.6c-2.4,2.7-2.9,5.9-0.4,10.9
		c1.2,2.3,3.1,5.4,4,7.3c2.2,4.7,2.3,9.1-2.1,13.9c-5,5.5-13.6,5.3-20.6-1.2C146.1,483.3,144.5,479.3,143.8,476.9z"/>
	<path class="st0" d="M193.2,520.2c1.5,0.8,3.2,1.7,3.9,1.9c1.5,0.4,2.3-0.2,3.1-1.3l18.6-28.4c0.7-1.1,1.1-2.3,0.1-3.5
		c-0.7-0.8-2.1-2-3.3-2.9l0.2-0.4l18.9,12.4l-0.2,0.4c-0.9-0.5-2.9-1.6-3.9-1.9c-1.5-0.4-2.4,0.4-3.2,1.5l-18.6,28.3
		c-0.7,1.1-1,2.3-0.1,3.5c0.5,0.6,2.2,2,3.3,2.8l-0.2,0.4l-18.9-12.4L193.2,520.2z"/>
	<path class="st0" d="M264.1,521.9l-9.9,23.1c-1.9,4.4-2.2,6.9-1.5,8.5c0.6,1.2,3.9,2.6,4.8,3.1l-0.2,0.4l-14.8-6.4l0.2-0.4
		c1,0.2,3.7,1.7,5.4,1.3c1.7-0.4,3.3-2.7,5.1-6.9l9.6-22.4c0.7-1.7,0.9-3.4,0.2-5.2c-0.7-1.7-2.5-2.9-4.4-4.3l0.2-0.5l14.4,6.2
		l8.5,34.3l7.2-16.7c1.9-4.3,2.2-6.9,1.4-8.5c-0.6-1.2-3.9-2.8-4.8-3.3l0.2-0.4l15,6.5l-0.2,0.4c-1-0.2-3.8-1.6-5.6-1.1
		c-1.6,0.4-3.3,2.7-5.1,6.9l-12.7,29.4l-2.5-1.1L264.1,521.9z"/>
	<path class="st0" d="M322.4,559c2.8-13,13.6-20,25.9-17.3c4.7,1,8.9,3.3,11.2,5.2l2.2-1.8l0.7,0.1l-3,15.4l-0.7-0.2
		c-1-10.8-4.9-16.7-10.2-17.9c-7.5-1.6-12.3,6.4-14.7,17.9c-2.7,12.5-0.7,20.3,7.4,22.1c6.2,1.3,11.7-1.4,16-6.7l0.6,0.4
		c-4,5.8-10.6,9.9-19.3,8C327,581.8,319.6,572.1,322.4,559z"/>
	<path class="st0" d="M391.8,590.6c1.7-0.1,3.5-0.2,4.2-0.5c1.5-0.5,1.9-1.4,1.9-2.8l0.7-33.9c0-1.3-0.3-2.5-1.8-3
		c-1-0.3-2.7-0.5-4.2-0.7l0-0.4l35.5,0.7l-0.2,10.9l-0.7,0c-0.9-2.8-5.1-9.6-8.3-10.1c-1.5-0.2-3.4-0.4-5.2-0.4l-4.8-0.1l-0.4,19
		l4,0.1c3.4,0.1,4.6-0.9,5.4-1.7c1.3-1.3,2.8-4.7,3.1-6.4l0.7,0l-0.4,17.4l-0.7,0c-0.2-1.9-1.8-5.7-2.9-6.8
		c-0.8-0.9-2.1-1.8-5.3-1.9l-4-0.1l-0.3,15.3c-0.1,4.5,0.8,5.2,6.4,5.3c3.4,0.1,6.7,0.1,8.2-1.3c2.6-2.4,6.1-8.2,7.4-10.4l0.6,0
		l-1.1,12.8l-37.8-0.8L391.8,590.6z"/>
	<path class="st0" d="M493.5,584.2c1.1-0.3,3.6-1.2,4.7-1.8c1-0.5,1.7-1.7,1.4-3.1l-6.2-28.2c-2.5,0.8-5.1,1.5-7.7,2.2l-0.1-0.5
		c3-1.1,4.6-1.6,8.7-3.6c3.4-1.7,5.6-3.4,7.1-4.8l0.6-0.1c0.1,2.8,0.7,6,1.5,9.6l5.1,23.3c0.4,1.6,1.2,2.2,2.4,2.5
		c1,0.2,3.7-0.1,4.7-0.2l0.1,0.4l-22.3,4.9L493.5,584.2z"/>
	<path class="st0" d="M550.5,569.2c-1-2.4,0.2-4.9,3-6c3.6-1.5,5.2,1.5,7.3,4.9c1,1.6,2,2.5,3.5,1.9c5.3-2.1,4.2-12.9,1.3-23.1
		l-0.2,0c-1,4.5-3.6,6.9-7.1,8.3c-5.8,2.3-12.4-0.2-15.4-7.8c-2.3-5.8-1.9-14.9,9.5-19.4c7.6-3,16.3,0.5,20.6,11.3
		c5.5,13.7,0.8,27.9-10.3,32.3C556.3,574.1,551.9,572.7,550.5,569.2z M562.3,538c-2.7-6.8-6.8-10.5-9.8-9.3c-5.1,2-2.2,10-0.3,14.6
		c2.4,6.1,5.8,9.6,9.3,8.3C564.6,550.3,565.3,545.7,562.3,538z"/>
	<path class="st0" d="M610.1,534.9c-1.9-3.1-0.7-5.8,1.4-7.1c2.2-1.3,4.7-0.9,5.8,0.9c1.6,2.7,1.1,4.5,1.3,6.4
		c0.9,1,3.7,0.7,5.7-0.5c3.7-2.3,2.8-9.1-0.7-14.8c-3.2-5.1-6.9-7.1-10.9-4.7c-2.9,1.8-4.9,6.3-4.7,9.6l-0.9,0.2l-6.9-20.1l0.6-0.4
		c1.2,0.4,6.5-1.2,10.5-3.7c3.6-2.3,7.3-5.3,8.5-8.5l0.6,0.1c-0.2,9-4.9,14.4-10.8,18c-1.2,0.7-4.9,2.8-5.3,3l3.1,9.1
		c0.6-2.3,1.3-6.2,7.2-9.8c6.9-4.2,14.1-4.2,17.9,1.8c4.7,7.6,0.9,15.1-7.8,20.5C619.3,538.4,613,539.5,610.1,534.9z"/>
	<path class="st0" d="M664.6,496.1c-3-3.3-1.6-8,0.6-12.1c-5.6,1.7-9.2,0.4-12-2.6c-4.3-4.8-2.7-13.1,3.2-18.3
		c5.7-5.1,12.1-6.2,15.5-2.5c2.7,3.1,1,7.7-0.3,10.4c6.9-2.2,10.7-1.7,13.8,1.8c5.2,5.8,3.2,14.4-3.9,20.7
		C675.3,499,668.3,500.2,664.6,496.1z M667.9,465.2c-2.8-3.2-7.4-4.6-11.4-1.1c-4.3,3.8-3.4,7.8-1.4,10c1.9,2.2,5.2,1.6,9.5-0.2
		c2.1-0.9,4.7-1.9,6.2-2.5C670.5,469.2,670.2,467.7,667.9,465.2z M683.5,480.6c-2.1-2.4-5.4-2.2-10.7,0.3c-2.1,1-5.2,2.2-6.9,2.8
		c0.1,2.6,0.7,4.9,3.4,7.9c3.1,3.5,8.3,4.3,12.7,0.5C686.3,488.2,685.9,483.3,683.5,480.6z"/>
</g>
</svg>
