<?xml version="1.0" encoding="utf-8"?>
<svg version="1.1" id="Layer_1" xmlns="http://www.w3.org/2000/svg" xmlns:xlink="http://www.w3.org/1999/xlink" x="0px" y="0px"
	 viewBox="0 0 119.1 94.2" style="enable-background:new 0 0 119.1 94.2;" xml:space="preserve">
<path class="st0" d="M118.1,84.2c-2.2,1.2-4.5,2.1-7,2.3c-20.9,1.1-31.5-19.7-33.8-46.9c-0.1-0.9-0.1-1.7-0.1-2.5l30.1-18.4
	c6.6-5.1,2.6-12.1-2.1-12.4C99.9,6,97,9.8,96.7,14.2c-0.1,1.2,0.1,2.3,0.2,3.6c0.2,1.7-0.7,3.4-2.2,4.3l-40,24.5L72.2,1
	c0.2-0.5-0.2-1-0.7-1H46h-0.3c0,0,0,0,0,0l-13,0c-0.1,0-0.2,0-0.3,0c-0.1,0-0.2,0-0.4,0h-0.1v0C26,0.2,21.2,5.1,21.2,11.1
	c0,5.5,3.9,10,9.1,11c0.4,0.1,0.8-0.2,0.9-0.5l0.7-2c0.1-0.3-0.1-0.7-0.5-0.7c-3.5-0.4-6.5-3.8-6.1-7.7c0.3-3.7,3.1-6.2,6.8-6.4v0h0
	c0,0,0.1,0,0.1,0l0.7,0c0,0,0.1,0,0.1,0h5.4c0,0,0,0,0,0l1.3,0c1.9,0,3.3,1.9,2.6,3.8c-6.1,15.7-28.6,74-28.6,74
	c-1.7,4-3.6,6.5-8,7.1l-5.7,0.5c-0.1,0-0.1,0-0.1,0.1l0,2.6H46l0-2.6c0-0.1,0-0.1-0.1-0.1l-5.1-0.7c-1.6-0.4-1.6-2.2-1.2-3.4
	l13-33.8c1.4,4.2,3.2,8.4,5.5,12.5c13.9,25,38.8,36.2,55.6,25.1c2-1.3,3.8-2.9,5.3-4.7C119.4,84.7,118.8,83.8,118.1,84.2z"/>
</svg>
