<?xml version="1.0" encoding="utf-8"?>
<svg version="1.1" id="Layer_1" xmlns="http://www.w3.org/2000/svg" xmlns:xlink="http://www.w3.org/1999/xlink" x="0px" y="0px"
	 viewBox="0 0 234.9 57" style="enable-background:new 0 0 234.9 57;" xml:space="preserve">
<g>
	<polygon class="st0" points="55.5,57 77,0.1 75.8,0.1 54.3,57 	"/>
	<g>
		<g>
			<path class="st0" d="M87.4,51.3c0-3.4,2.3-5.7,5.2-5.7c1.9,0,3.1,0.9,3.9,2.2l-1.1,0.6c-0.6-0.9-1.6-1.6-2.8-1.6
				c-2.2,0-3.9,1.9-3.9,4.5c0,2.6,1.7,4.5,3.9,4.5c1.2,0,2.3-0.7,2.8-1.6l1.1,0.6c-0.9,1.3-2.1,2.2-3.9,2.2
				C89.7,57,87.4,54.7,87.4,51.3z"/>
			<path class="st0" d="M107.5,45.6c3,0,5.1,2.4,5.1,5.7s-2.1,5.7-5.1,5.7c-3,0-5.1-2.4-5.1-5.7S104.4,45.6,107.5,45.6z M107.5,46.8
				c-2.3,0-3.8,1.9-3.8,4.5c0,2.6,1.5,4.5,3.8,4.5c2.3,0,3.8-1.9,3.8-4.5C111.2,48.7,109.7,46.8,107.5,46.8z"/>
			<path class="st0" d="M127.9,47.6l-3.5,9.2h-0.5l-3.5-9.2v9.2h-1.3v-11h1.8l3.2,8.4l3.2-8.4h1.8v11h-1.3V47.6z"/>
			<path class="st0" d="M144.9,47.6l-3.5,9.2h-0.5l-3.5-9.2v9.2h-1.3v-11h1.8l3.2,8.4l3.2-8.4h1.8v11h-1.3V47.6z"/>
			<path class="st0" d="M153.1,45.8h1.3v6.7c0,2,1,3.3,2.9,3.3c1.9,0,2.9-1.3,2.9-3.3v-6.7h1.3v6.7c0,2.7-1.4,4.5-4.2,4.5
				c-2.8,0-4.2-1.8-4.2-4.5V45.8z"/>
			<path class="st0" d="M169.7,47.9v8.9h-1.3v-11h1.3l5.9,8.7v-8.7h1.3v11h-1.2L169.7,47.9z"/>
			<path class="st0" d="M183.9,45.8h1.3v11h-1.3V45.8z"/>
			<path class="st0" d="M194.7,47h-3.2v-1.2h7.7V47H196v9.8h-1.3V47z"/>
			<path class="st0" d="M205.5,45.8h1.3v11h-1.3V45.8z"/>
			<path class="st0" d="M213.8,45.8h6.7V47H215v3.6h5.3v1.2H215v3.8h5.4v1.2h-6.7V45.8z"/>
			<path class="st0" d="M227.2,54.2c0.7,0.8,1.8,1.6,3.2,1.6c1.8,0,2.4-1.1,2.4-1.9c0-1.3-1.2-1.7-2.6-2.1c-1.6-0.5-3.5-1-3.5-3.1
				c0-1.8,1.5-3.1,3.5-3.1c1.6,0,2.8,0.6,3.6,1.5l-0.8,1c-0.8-0.9-1.8-1.3-3-1.3c-1.2,0-2.1,0.7-2.1,1.8c0,1.1,1.2,1.4,2.5,1.8
				c1.7,0.5,3.6,1,3.6,3.4c0,1.6-1,3.2-3.8,3.2c-1.8,0-3.1-0.7-3.9-1.8L227.2,54.2z"/>
		</g>
	</g>
	<path class="st1" d="M49,34.9c-0.9,0.5-1.9,0.9-2.9,0.9c-8.7,0.5-13.1-8.2-14-19.4c0-0.5-0.1-1-0.1-1.4l11.4-7.8
		c2.6-2.2,0.8-5-1.1-5.1c-2.2,0-3.3,1.6-3.3,3.4c0,0.5,0.1,1,0.2,1.5c0.1,0.7-0.2,1.4-0.8,1.8L23.2,19.2l-0.6,0.4l7.3-19.1
		C30,0.2,29.9,0,29.7,0H19.1h-0.1c0,0,0,0,0,0l-5.4,0c0,0-0.1,0-0.1,0c0,0-0.1,0-0.1,0h0v0c-2.5,0.1-4.4,2.1-4.4,4.6
		c0,2.3,1.6,4.1,3.8,4.5c0.2,0,0.3-0.1,0.4-0.2l0.3-0.8c0-0.1,0-0.3-0.2-0.3c-1.5-0.1-2.7-1.6-2.5-3.2c0.1-1.5,1.3-2.6,2.8-2.7v0h0
		c0,0,0,0,0,0l0.3,0c0,0,0,0,0.1,0H16c0,0,0,0,0,0l0.5,0c0.8,0,1.4,0.8,1.1,1.6C15.1,10,5.7,34.2,5.7,34.2c-0.7,1.7-1.5,2.7-3.3,3
		L0,37.4c0,0,0,0,0,0l0,1.1h19.1l0-1.1c0,0,0,0,0,0l-2.1-0.3c-0.7-0.2-0.7-0.9-0.5-1.4L21.6,22l0.2-0.1c0.6,1.7,1.3,3.3,2.2,5
		c5.8,10.4,16.1,15,23,10.4c0.8-0.5,1.6-1.2,2.2-1.9C49.5,35.1,49.2,34.8,49,34.9z"/>
	<g>
		<g>
			<path class="st0" d="M85.8,39c0.8-0.1,2.4-0.2,2.9-0.4c1-0.4,1.3-0.9,1.3-1.8V12.9c0-0.9-0.3-1.7-1.3-2.1
				c-0.8-0.3-2.2-0.3-2.9-0.4V9.9h15.6v0.5c-0.7,0.1-2.2,0.2-2.9,0.4c-1,0.3-1.3,1.2-1.3,2.1v11.6h0.6c5.3-4.7,11.1-11,11.1-12.7
				c0-0.9-2-1.2-3.9-1.4V9.9h11.9v0.5c-3,0.3-5,1-6.6,2.6c-3.3,3.2-4.5,4.7-7.3,7.4c3.1,4.1,6.1,9,10.1,14.5
				c0.8,1.1,1.9,2.7,3.3,3.4c0.8,0.4,1.8,0.6,2.6,0.6v0.6h-15.9V39c1.8-0.2,2.6-0.5,2.6-1.7c0-1.2-2.9-6.2-7.6-12.1h-0.7v11.2
				c0,0.9,0.3,1.7,1.2,2.1c0.5,0.2,1.8,0.3,2.6,0.4v0.6H85.8V39z"/>
			<path class="st0" d="M117.1,29.4c0-6.1,4.1-10.4,10.7-10.4c6.7,0,10.6,4.3,10.6,10.3c0,5.9-3.6,10.6-10.7,10.6
				C121.8,39.9,117.1,35.9,117.1,29.4z M131.5,29.2c0-4.9-0.5-9.8-3.7-9.8c-3.3,0-3.8,5.2-3.8,9.7c0,5.1,0.3,10.3,3.8,10.3
				C131.1,39.4,131.5,34.4,131.5,29.2z"/>
			<path class="st0" d="M140.3,29.3c0-5.5,3.5-10.3,9.9-10.3c6.5,0,8.8,4.1,8.8,8.5v0.3H147V29c0,5,1.6,8.8,5.7,8.8
				c2.6,0,4.8-1.1,6.4-4.1l0.5,0.3c-1.6,3.2-4.7,5.8-9,5.8C143.5,39.9,140.3,35.2,140.3,29.3z M152.4,27.1c0-3.3,0-7.6-2.5-7.6
				c-2,0-2.9,3.4-3,7.7L152.4,27.1z"/>
			<path class="st0" d="M160.1,39c0.7,0,1.2,0,1.8-0.2c0.8-0.3,1.1-0.9,1.1-1.9V13.1c0-1.1-0.5-2-1.2-2.5c-0.5-0.3-2.2-0.6-2.9-0.6
				V9.6L169,9.1l0.2,0.2v27.5c0,0.9,0.3,1.6,1.1,1.9c0.6,0.3,1.1,0.2,1.8,0.3v0.6h-12V39z"/>
			<path class="st0" d="M174.8,38.1l-1,1.4h-0.3l-0.2-7.4h0.3c1.2,2.5,4,7.3,7.5,7.3c2.2,0,3.5-1.4,3.5-3.5c0-2.2-1.3-3.1-5.2-4.4
				c-2.9-0.9-5.6-2.6-5.6-6.6c0-3.3,2.8-6,7.5-6c2.1,0,4.5,0.6,5.7,1.2L188,19h0.3l0.3,6.7h-0.3c-1.4-3.2-3.8-6.2-6.2-6.2
				c-2,0-3.1,1.6-3.1,3.2c0,2.2,1.2,2.9,4.9,4.1c3.4,1.1,5.7,3,5.7,6.5c0,4.3-3.6,6.6-8.2,6.6C178.6,39.9,175.6,38.7,174.8,38.1z"/>
			<path class="st0" d="M191.6,29.3c0-5.4,3.7-10.3,10.3-10.3c4.9,0,7.2,2.1,7.2,5c0,1.7-1.1,3.1-3.3,3.1c-2,0-3.3-1.2-3.3-3
				c0-0.8,1.1-2.9,1.2-3.5c-0.1-0.6-0.8-1-1.8-1c-2.3,0-3.6,3.2-3.6,9.5c0,5.8,2,8.7,5,8.7c2.9,0,4.9-1.4,6.1-4.1l0.5,0.3
				c-1.3,3.3-4.5,6-8.3,6C194.8,39.9,191.6,35.3,191.6,29.3z"/>
			<path class="st0" d="M210.6,39c0.7,0,1.3-0.1,1.8-0.3c0.8-0.3,1-0.7,1-1.7V13c0-1.1-0.3-1.9-1-2.3c-0.5-0.3-2.3-0.6-3-0.6V9.6
				l9.9-0.5l0.2,0.2v13.3h0.1c1.5-1.6,2.9-3.5,6.5-3.5c4.2,0,5.8,2.6,5.8,6.7v11.2c0,0.9,0.1,1.4,0.9,1.7c0.6,0.2,1.2,0.3,1.9,0.3
				v0.6h-11.3V39c0.6,0,1.2-0.1,1.6-0.3c0.6-0.2,0.6-0.9,0.6-1.9V25.4c0-2.9-1.2-3.8-2.7-3.8c-1.8,0-3.1,1-3.5,1.9v13.3
				c0,0.9,0.1,1.5,0.6,1.7c0.6,0.3,1.1,0.3,1.7,0.4v0.6h-11.3V39z"/>
		</g>
	</g>
</g>
</svg>
