<?xml version="1.0" encoding="utf-8"?>
<svg version="1.1" id="Layer_1" xmlns="http://www.w3.org/2000/svg" xmlns:xlink="http://www.w3.org/1999/xlink" x="0px" y="0px"
	 viewBox="0 0 710.8 556.6" style="enable-background:new 0 0 710.8 556.6;" xml:space="preserve">
<g>
	<path class="st0" d="M128,278.8l6.9-10.3c4.7,5.5,12.3,10.5,22.1,10.5c10,0,13.9-5.3,13.9-10.4c0-15.8-40.6-6-40.6-33.6
		c0-12.5,10-22.1,25.4-22.1c10.8,0,19.7,3.8,26,10.6l-6.9,9.8c-5.5-6-13-8.7-20.3-8.7c-7.1,0-11.7,3.8-11.7,9.4
		c0,14.1,40.6,5.4,40.6,33.4c0,12.5-8.3,23.3-27,23.3C143.6,290.7,134.3,285.7,128,278.8z"/>
	<path class="st0" d="M210.3,289.4v-75.2h47.8v11.6h-35.6v19.4h34.8v11.6h-34.8v21h35.6v11.6H210.3z"/>
	<path class="st0" d="M334.9,289.4l-36.4-53.8v53.8h-12.2v-75.2h12.5l35.7,52.1v-52.1h12.2v75.2H334.9z"/>
	<path class="st0" d="M377.3,289.4v-75.2h12.2v75.2H377.3z"/>
	<path class="st0" d="M417,251.8c0-22.4,14.7-38.9,35.7-38.9c20.8,0,35.7,16.5,35.7,38.9s-14.8,38.9-35.7,38.9
		C431.8,290.7,417,274.2,417,251.8z M475.8,251.8c0-15.6-9.1-27.2-23.1-27.2c-14.1,0-23.1,11.6-23.1,27.2c0,15.5,9,27.2,23.1,27.2
		C466.7,279,475.8,267.2,475.8,251.8z"/>
	<path class="st0" d="M555.6,289.4l-15.4-28.1h-12.2v28.1h-12.2v-75.2h30.6c13.8,0,22.9,9.6,22.9,23.6c0,13.3-8.2,20.6-16.6,22.1
		l17.1,29.6H555.6z M556.7,237.6c0-7.2-5-11.8-11.9-11.8h-16.8v23.9h16.8C551.7,249.6,556.7,244.9,556.7,237.6z"/>
	<path class="st0" d="M153.1,377.9v-75.2h12.2v63.6h30.7v11.6H153.1z"/>
	<path class="st0" d="M222.5,377.9v-75.2h12.2v75.2H222.5z"/>
	<path class="st0" d="M285.5,377.9l-27.4-75.2H272l21.1,60.8l21.1-60.8h13.9l-27.4,75.2H285.5z"/>
	<path class="st0" d="M351.3,377.9v-75.2h12.2v75.2H351.3z"/>
	<path class="st0" d="M442.7,377.9l-36.4-53.8v53.8h-12.2v-75.2h12.5l35.7,52.1v-52.1h12.2v75.2H442.7z"/>
	<path class="st0" d="M482,340.3c0-23.7,16.3-38.9,36.6-38.9c13.6,0,22.5,7,28,15.6l-9.9,6.2c-3.8-5.6-10.4-10-18.1-10
		c-13.8,0-24,11.3-24,27.2c0,15.7,10.2,27.2,24,27.2c7.1,0,13.4-3.5,16.5-6.8v-11.6h-20.9v-11.6h33v28.1
		c-6.8,8.2-16.6,13.8-28.7,13.8C498.4,379.4,482,363.9,482,340.3z"/>
</g>
<g>
	<path class="st0" d="M34.9,150.4c-14.6,0-34.9-6.9-34.9-19.9c0-2.6,1.3-5.9,7.5-6.6c2.7,0.1,9.6,1,19.2,2.4
		c13.7,1.9,32.5,4.5,49.7,6.1c49-29.6,91.1-99.6,91.1-121.5c0-4-1.9-6-5.8-6c-4.6,0-11.2,2.2-19.7,5.1c-16,5.4-40.3,13.5-72.4,13.5
		c-0.4,0-43.8-1.3-43.8-9.4c0-0.4,0.1-0.8,0.3-1.3c0.1-0.4,0.3-0.9,0.3-1.4C27,9.8,28,8.9,29.5,8.9h0.1l0.1,0
		c0.3,0.1,25.5,7.7,50.8,7.7c24.3,0,45.7-6.7,61.4-11.6c8.9-2.8,16-5,20.5-5c6,0,10.6,4.5,10.6,10.2c0,26.2-39.5,92.4-86.6,122.9
		c5.5,0.5,10.4,0.8,14.9,0.8c15.8,0,27.9-3.8,38.2-12c0.4-0.4,0.8-0.4,1.1-0.4c1.6,0,2.3,2.3,2.3,2.9v0.3l-0.3,0.2
		c-14,11.6-28.2,13.1-40.3,13.1c-5.7,0-11.3-0.4-22.5-1.2C64.6,145.7,49.5,150.2,34.9,150.4L34.9,150.4L34.9,150.4z M11.4,128.9
		c-1.9,0-3.9,1.1-3.9,3.3c0,6.4,11.3,13.4,27.4,13.4c10.7,0,22.3-3.1,34.5-9.3C41.9,133.8,12.9,129.2,11.4,128.9z"/>
	<path class="st0" d="M101.3,134.7c13.6,0,26.7-2.6,38.6-12.1c0.2-0.2,0.4-0.2,0.6-0.2c1,0,1.6,1.8,1.6,2.2
		c-12.7,10.5-25.9,13-39.9,13c-5.7,0-11.3-0.4-22.7-1.2c-14.2,8.1-29.3,13.2-44.7,13.4c-14.4,0-34.2-6.7-34.2-19.2
		c0-2.4,1.2-5.3,6.9-5.9c6.3,0.2,39.9,5.9,69,8.5c49.4-29.7,91.7-100.6,91.7-122.2c0-4.2-2-6.7-6.5-6.7c-13.6,0-43.3,18.6-92.1,18.6
		c-2.2,0-43.1-1.8-43.1-8.7c0-0.6,0.4-1.4,0.6-2.6c0.4-1.4,1.4-1.8,2.2-1.8c0,0,25.3,7.7,51,7.7c38.2,0,69.6-16.6,82-16.6
		c5.5,0,9.9,4,9.9,9.5c0,24.5-38.2,92.3-88,123.4C90,134.3,95.6,134.7,101.3,134.7z M6.8,132.2c0,6.5,11.1,14.2,28.1,14.2
		c12.3,0,24.9-4,37-10.5c-29.1-2.6-60.5-7.7-60.5-7.7C9,128.2,6.8,129.6,6.8,132.2z"/>
	<path class="st0" d="M139.7,144.1c-3.7,0-5.8-2.4-5.8-6.8c0-13.6,19.5-46.5,38.8-73.1c18-24.8,43-53.7,54.2-53.7
		c2.6,0,5.4,1.5,5.4,5.8c0,21.8-67.9,91.8-89,108.5c-1.8,4.4-3.3,8.5-3.3,10.9c0,1.7,0.7,2.7,1.1,2.7c3.7,0,15.8-8.9,23.8-14.7
		c7-5.1,9.6-6.9,10.6-6.9c0.7,0,1.3,0.2,1.7,0.6c0.9,0.7,1.3,1.4,1.3,2.4c-0.1,1.7-1.2,3.5-2.4,5.3c-1.5,2.3-3,4.6-3,7.2
		c0,3.6,1.4,5.1,4.5,5.1c9.7,0,24.6-9,31.1-15.4l0.5-0.5l3,3.3l-0.4,0.5c-5.2,6-25.1,17.9-37.8,17.9c-5.1,0-8-3.5-8-9.6
		c0-1.5,0.2-3.1,0.5-4.6c-1.3,0.6-4.8,2.9-7.9,5C149.6,139.7,142.7,144.1,139.7,144.1z M225.3,15C212.6,15,167,78.5,148,115.2
		c29.3-26.7,79.4-80.6,79.4-97.8C227.4,15.7,226.8,15,225.3,15z"/>
	<path class="st0" d="M166.6,133.5c0-1.6,0.2-3.4,0.6-5.1c0-0.2-0.2-0.4-0.4-0.4c-2,0-22.3,15.4-27.1,15.4c-3.4,0-5.1-2.2-5.1-6.1
		c0-25.7,72.2-126.1,92.3-126.1c2.2,0,4.7,1.2,4.7,5.1c0,21.2-66.6,90.4-88.8,108.1c-2,5.1-3.4,8.9-3.4,11.3c0,1.8,0.8,3.4,1.8,3.4
		c6.3,0,32.2-21.7,34.4-21.7c0.6,0,1,0.2,1.2,0.4c0.8,0.6,1,1.2,1,1.8c-0.2,3.4-5.5,7.5-5.5,12.5c0,4.7,2.4,5.9,5.3,5.9
		c9.9,0,24.9-8.9,31.6-15.6l2,2.2c-5.3,6.1-24.9,17.6-37.2,17.6C168.5,142.4,166.6,138.1,166.6,133.5z M145.6,118.3
		c29.7-26.5,82.6-83.2,82.6-101c0-2.2-1.2-3-2.8-3C211.6,14.3,163,83.1,145.6,118.3z"/>
	<path class="st0" d="M212,145.3c-4.9,0-10.2-3.7-10.2-9.6c0-12.2,17.2-23.6,25-23.6c2.9,0,4.6,1.6,4.6,4.2c0,6.6-18.2,16.6-22.9,19
		c0.1,3.3,2,4.7,5.9,4.7c3.9,0,10.1-2.3,17.3-6.5c6.1-3.5,12.3-8.1,15.7-11.5c0.1-0.1,0.4-0.4,0.5-0.5c2.3-1.5,4.2,0.6,3,3.3
		c-0.1,0.1-0.3,0.4-0.4,0.5C245.5,131,224.7,145.3,212,145.3z M224.1,117.2c-4.6,0-11.7,5.7-14.5,13C219.7,125,225,120,225,117.7
		C225,117.5,225,117.2,224.1,117.2z"/>
	<path class="st0" d="M315.8,150.4c-14.6,0-34.9-6.9-34.9-19.9c0-2.6,1.3-5.9,7.5-6.6c2.7,0.1,9.6,1,19.2,2.4
		c13.7,1.9,32.5,4.5,49.7,6.1c20.9-12.7,38.1-30.9,49.2-44.4c-5.4,0.2-10.8,0.4-16.1,0.6c-13.9,0.5-27,1-39.2,1
		c-1.4,0-2.7-0.4-2.7-2.9c0.1-1.1,0.7-2.7,3.8-2.7c3.6,0,13.7-0.3,25.3-0.6c10.9-0.3,23.2-0.6,33.5-0.8
		c21.4-27.4,37.5-58.1,37.5-71.5c0-4-1.9-6-5.8-6c-4.6,0-11.2,2.2-19.7,5.1c-16,5.4-40.3,13.5-72.4,13.5c-0.4,0-43.8-1.3-43.8-9.4
		c0-0.4,0.1-0.8,0.3-1.3c0.1-0.4,0.3-0.9,0.3-1.4c0.4-1.5,1.5-2.4,2.9-2.4h0.1l0.1,0c0.3,0.1,25.5,7.7,50.8,7.7
		c24.3,0,45.7-6.7,61.4-11.6c8.9-2.8,16-5,20.5-5c6,0,10.6,4.5,10.6,10.2c0,15.2-14.4,45.3-34.3,71.9c2.7,0,5-0.1,6.9-0.1
		c1.5,0,2.7-0.1,3.7-0.1c2.7-0.4,25.4-0.8,27.8-0.8c1.8,0,4.8,0,4.8,2.1v0.1l0,0.1c-0.9,3.5-2.7,4.2-5.1,4.2c-0.8,0-2.5,0-4.7,0
		c-4.7-0.1-12.6-0.2-21.2-0.2c-5.4,0-10.9,0-16.2,0.2c-15.4,19.5-31.6,34.8-48.2,45.5c5.5,0.5,10.4,0.8,14.9,0.8
		c15.8,0,27.9-3.8,38.2-12c0.4-0.4,0.8-0.4,1.1-0.4c1.6,0,2.3,2.3,2.3,2.9v0.3l-0.3,0.2c-14,11.6-28.2,13.1-40.3,13.1
		c-5.7,0-11.3-0.4-22.5-1.2C345.4,145.7,330.3,150.2,315.8,150.4L315.8,150.4L315.8,150.4z M292.2,128.9c-1.9,0-3.9,1.1-3.9,3.3
		c0,6.4,11.3,13.4,27.4,13.4c10.7,0,22.3-3.1,34.5-9.3C322.7,133.8,293.7,129.2,292.2,128.9z"/>
	<path class="st0" d="M383.1,137.5c-5.7,0-11.3-0.4-22.7-1.2c-14.2,8.1-29.3,13.2-44.7,13.4c-14.4,0-34.2-6.7-34.2-19.2
		c0-2.4,1.2-5.3,6.9-5.9c6.3,0.2,39.9,5.9,69,8.5c18.4-11.1,36-27.9,50.6-45.9c-19.6,0.6-39.5,1.6-56.9,1.6c-1.2,0-2-0.2-2-2.2
		c0.2-1.8,2-2,3-2c7.1,0,37.8-1,59.1-1.4c22.7-28.9,37.8-59.3,37.8-72.2c0-4.2-2-6.7-6.5-6.7c-13.6,0-43.3,18.6-92.1,18.6
		c-2.2,0-43.1-1.8-43.1-8.7c0-0.6,0.4-1.4,0.6-2.6c0.4-1.4,1.4-1.8,2.2-1.8c0,0,25.3,7.7,51,7.7c38.2,0,69.6-16.6,82-16.6
		c5.5,0,9.9,4,9.9,9.5c0,14.6-13.6,44.3-35,72.6c5.5,0,9.7-0.2,12.1-0.2c2.2-0.4,25.3-0.8,27.7-0.8c1.6,0,4,0,4,1.4
		c-0.8,3-2.2,3.6-4.5,3.6c-2.6,0-13.4-0.2-25.9-0.2c-5.5,0-11.1,0-16.6,0.2c-14.2,18-31.2,35-50,46.7c5.7,0.6,11.3,1,17,1
		c13.6,0,26.7-2.6,38.6-12.1c0.2-0.2,0.4-0.2,0.6-0.2c1,0,1.6,1.8,1.6,2.2C410.3,135.1,397.1,137.5,383.1,137.5z M287.6,132.2
		c0,6.5,11.1,14.2,28.1,14.2c12.3,0,24.9-4,37-10.5c-29.1-2.6-60.5-7.7-60.5-7.7C289.9,128.2,287.6,129.6,287.6,132.2z"/>
	<path class="st0" d="M421.4,143.3c-4.4,0-6.8-2.3-6.8-6.6c0-8.7,10.5-24.4,14.1-24.4c0.9,0,1.5,0.3,2,1.1c0.3,0.5,0.5,1.2,0.5,1.8
		c0,0.9-1,2.5-3.1,5.8c-2.8,4.4-6.6,10.3-6.6,13.8c0,1.8,1.2,2.7,3.5,2.7c9.7,0,24.6-9,31.1-15.4l0.5-0.5l3,3.3l-0.4,0.5
		C454,131.4,434,143.3,421.4,143.3z M436.5,103c-1.4,0-2.5-1.3-2.5-2.7c0-2.4,3.2-6.2,6-6.2c1.3,0,2.1,1,2.1,2.5
		C442.1,98.9,439.3,103,436.5,103z"/>
	<path class="st0" d="M456.6,122.7l2,2.2c-5.3,6.1-24.9,17.6-37.2,17.6c-4.5,0-6.1-2.4-6.1-5.9c0-8.7,10.5-23.7,13.4-23.7
		c0.6,0,1,0.2,1.4,0.8c0.2,0.4,0.4,1,0.4,1.4c0,2-9.7,13.8-9.7,19.6c0,2,1.2,3.4,4.2,3.4C434.9,138.3,449.9,129.4,456.6,122.7z
		 M440,94.8c1,0,1.4,0.8,1.4,1.8c0,2-2.6,5.7-4.9,5.7c-1,0-1.8-1-1.8-2C434.7,98.2,437.5,94.8,440,94.8z"/>
	<path class="st0" d="M494,143.7c-5.8,0-9-2.6-9-7.2c0-2,0.7-4.1,1.6-6.1c-1.1,0.6-2.8,1.5-4.5,2.5c-10,5.5-20,10.9-23.6,10.9
		c-2.4,0-3.8-1.3-3.8-3.6c0-4.3,4.9-11.9,8.2-17c0.5-0.7,0.9-1.5,1.3-2.1c-1.1,0.8-2.4,2-3.4,3c-1.2,1-2.4,2.1-3.3,2.9
		c-0.9,0.9-2,1-2.5,1c-1.6,0-3-0.9-3-0.9l-0.8-0.6l0.8-0.6c1.1-0.8,2-1.7,3-2.5c0.5-0.4,0.9-0.8,1.4-1.3c0,0,8.3-8.3,13-8.3
		c1.4,0,3.1,0.7,3.1,4.2c0,1.3-1.6,4-4.3,8.3c-2.5,4.1-5.6,9.1-5.6,11.2c0,0,0,0.1,0,0.1c2.6-0.2,13.7-7.1,21.1-11.7
		c7.6-4.7,10.3-6.3,11.2-6.3c1.6,0,2.3,2.5,2.3,3.6c0,1-0.7,2.4-2,4.7c-1.5,2.7-3.3,6.1-3.3,8.4c0,1.6,0.5,3.3,4.5,3.3
		c9.6,0,28.4-10.7,35.1-17.4l0.5-0.5l3,3.3l-0.4,0.5C529.2,131.5,507.5,143.7,494,143.7z"/>
	<path class="st0" d="M494.8,120.1c1,0,1.6,2,1.6,2.8c0,2-5.3,8.9-5.3,13.2c0,3,2,4,5.3,4c9.9,0,28.9-10.9,35.6-17.6l2,2.2
		c-5.3,6.1-26.9,18.2-40.1,18.2c-4.9,0-8.3-1.8-8.3-6.5c0-2.4,1.2-5.3,2.2-7.5c0.4-1-23.9,14-29.5,14c-2.2,0-3-1.2-3-2.8
		c0-6.1,10.9-20,10.5-20.8c-1.4,0-6.1,4.9-8.9,7.1c-0.6,0.6-1.4,0.8-2,0.8c-1.4,0-2.6-0.8-2.6-0.8c1.6-1.2,2.8-2.4,4.5-3.8
		c2.2-2.2,8.9-8.1,12.5-8.1c1.4,0,2.4,0.8,2.4,3.4s-9.9,15.4-9.9,19.4c0,0.4,0.2,0.8,0.6,0.8C466.7,138.1,493,120.1,494.8,120.1z"/>
	<path class="st0" d="M534.9,145.3c-4.9,0-10.2-3.7-10.2-9.6c0-12.2,17.2-23.6,25-23.6c2.9,0,4.6,1.6,4.6,4.2
		c0,6.6-18.2,16.6-22.9,19c0.1,3.3,2,4.7,5.9,4.7c3.9,0,10.1-2.3,17.3-6.5c6.1-3.5,12.3-8.1,15.7-11.5l0.5-0.5l3,3.3l-0.4,0.5
		C568.5,131,547.6,145.3,534.9,145.3z M547,117.2c-4.6,0-11.7,5.7-14.5,13c10.1-5.2,15.4-10.2,15.4-12.5
		C547.9,117.5,547.9,117.2,547,117.2z"/>
	<path class="st0" d="M570.9,122.5l2,2.2c-5.3,6.1-25.7,19.8-38,19.8c-4.5,0-9.5-3.2-9.5-8.9c0-11.7,16.6-22.9,24.3-22.9
		c2.8,0,3.8,1.6,3.8,3.4c0,4.9-11.9,13-22.9,18.6c0,3.4,1.6,5.9,6.7,5.9C546.4,140.7,564.2,129.2,570.9,122.5z M531.2,131.6
		c10.3-5.1,17.4-10.7,17.4-14c0-0.8-0.6-1.2-1.6-1.2C540.8,116.5,533.3,124.8,531.2,131.6z"/>
	<path class="st0" d="M571.1,144.7c-8.5,0-10.2-3.9-10.2-7.2c0-2.6,2.1-4.8,4.8-4.8c1.4,0,2.3,0.8,2.5,2.2c0.4,2.9,1.1,3.3,2,3.4
		c8.9-0.5,20.5-16.6,20.5-22.3c0-1.3-0.5-1.5-1.3-1.5c-2.5,0-7.5,3.2-13.1,8.3l-4.7,4.1c-0.9,0.9-2,1-2.5,1c-1.6,0-3-0.9-3-0.9
		l-0.8-0.6l0.8-0.6c1.1-0.8,2-1.7,3-2.5c0.5-0.4,0.9-0.8,1.4-1.3c11.2-10.4,16.6-13.9,21.3-13.9c3.7,0,5.8,2,5.8,5.4
		c0,6.7-7.3,17.6-16.1,24.5c14.2-2.5,24.8-7.6,33.5-15.9l0.5-0.5l2.9,3.2l-0.4,0.5c-2.4,2.8-7.8,6.7-13.8,9.9
		C593.9,140.7,580,144.7,571.1,144.7z"/>
	<path class="st0" d="M615.4,122.5l2,2.2c-2.2,2.6-7.5,6.5-13.6,9.7c-10.1,5.5-23.9,9.5-32.8,9.5c-5.7,0-9.5-1.8-9.5-6.5
		c0-2.2,1.8-4,4-4c0.8,0,1.6,0.4,1.8,1.6c0.4,3,1.2,3.8,2.6,4c9.3-0.4,21.2-17,21.2-23.1c0-1.4-0.6-2.2-2-2.2c-3,0-8.5,3.8-13.6,8.5
		l-4.7,4c-0.6,0.6-1.4,0.8-2,0.8c-1.4,0-2.6-0.8-2.6-0.8c1.6-1.2,2.8-2.4,4.5-3.8c11.5-10.7,16.6-13.8,20.8-13.8
		c3.4,0,5.1,1.8,5.1,4.7c0,6.9-8.3,19-18.2,25.7C592.1,137.1,604.9,132.7,615.4,122.5z"/>
	<path class="st0" d="M616.2,143.1c-4.8,0-7.6-2.4-7.6-6.6c0-8.4,15.7-30.6,31.3-51.5l-3.5-0.1c-11.8-0.2-21.9-0.3-28.7-0.3
		c-10.8,0-20.6,0.1-28.5,0.1c-5.4,0-10,0.1-13.4,0.1c-3,0-7.4-1.1-7.4-3.4v-0.1l0-0.1c0.7-2.5,4.7-2.5,5.1-2.5
		c5.6,0,74.9,0.6,80.6,0.6c7.9-10.6,16.1-21.7,21.8-30c3-4.4,5.4-5.4,6.9-5.4c1.2,0,2.5,0.9,2.5,2.3c0,1.1-0.6,2.6-1.5,4
		c-4.7,6.9-12.9,17.6-21.6,29c13.2,0,53.4,0.4,53.8,0.4c0,0,0,0,0,0c1.4,0,4.7,0,4.7,2.3c0,3.3-1.7,4.6-6.2,4.6h-0.1l-0.1,0
		c-2.6-0.4-31.1-1.2-56.6-1.6c-14.4,18.8-34,44.3-34,49.9c0,3.3,1.4,3.7,2.5,3.7c9.7,0,28.1-10.2,34.5-16.6c0.1-0.1,0.4-0.4,0.5-0.5
		c2.2-1.3,4.2,0.7,3,3.3c-0.1,0.1-0.3,0.4-0.4,0.5C648.8,131.2,628.9,143.1,616.2,143.1z"/>
</g>
<g>
	<g>
		<path class="st0" d="M63.7,441.7l-3.2,0.8L60,442l10.1-11.6l0.5,0.4c-3.3,8.1-4.1,16.7,0.7,21.1c4.1,3.8,8.7,2.4,11.5-0.6
			c2.4-2.7,2.4-6.4,0.1-10.6c-1.4-2.5-3.1-5.4-3.9-7.3c-2.3-5.1-1-10,2.4-13.8c4.5-4.9,12.4-5.4,19.2,0.8c4.1,3.7,6.1,7.6,6.8,10
			l2.7-0.6l0.5,0.5l-9.6,10.8l-0.5-0.4c3.2-7.5,4.7-14.9-0.1-19.3c-3.3-3-7.4-2.1-10,0.6c-2.4,2.7-2.9,5.9-0.4,10.9
			c1.2,2.3,3.1,5.4,4,7.3c2.2,4.7,2.3,9.1-2.1,13.9c-5,5.5-13.6,5.3-20.6-1.2C66,448.1,64.5,444.1,63.7,441.7z"/>
		<path class="st0" d="M113.1,485c1.5,0.8,3.2,1.7,3.9,1.9c1.5,0.4,2.3-0.2,3.1-1.3l18.6-28.4c0.7-1.1,1.1-2.3,0.1-3.5
			c-0.6-0.8-2.1-2-3.3-2.9l0.2-0.4l18.9,12.4l-0.2,0.4c-0.9-0.5-2.9-1.6-3.9-1.9c-1.5-0.4-2.4,0.4-3.2,1.5l-18.6,28.3
			c-0.7,1.1-1,2.3-0.1,3.5c0.5,0.6,2.2,2,3.3,2.8l-0.2,0.4l-18.9-12.4L113.1,485z"/>
		<path class="st0" d="M184.1,486.7l-9.9,23.1c-1.9,4.4-2.2,6.9-1.5,8.5c0.6,1.2,3.9,2.6,4.8,3.1l-0.2,0.4l-14.8-6.4l0.2-0.4
			c1,0.2,3.7,1.7,5.4,1.3c1.7-0.4,3.3-2.7,5.1-6.9l9.6-22.4c0.7-1.7,0.9-3.4,0.2-5.2c-0.7-1.7-2.5-2.9-4.4-4.3l0.2-0.5l14.4,6.2
			l8.5,34.3l7.2-16.7c1.9-4.3,2.2-6.9,1.4-8.5c-0.6-1.2-3.9-2.8-4.8-3.3l0.2-0.4l15,6.4l-0.2,0.4c-1-0.2-3.8-1.6-5.6-1.1
			c-1.6,0.4-3.3,2.7-5.1,6.9l-12.7,29.4l-2.5-1.1L184.1,486.7z"/>
		<path class="st0" d="M242.4,523.7c2.8-13,13.6-20,25.9-17.3c4.7,1,8.9,3.3,11.2,5.2l2.2-1.8l0.7,0.1l-3,15.4l-0.7-0.2
			c-1-10.8-4.9-16.7-10.2-17.9c-7.5-1.6-12.3,6.4-14.7,17.9c-2.7,12.5-0.7,20.3,7.4,22.1c6.2,1.3,11.7-1.4,16-6.7l0.6,0.4
			c-4,5.8-10.6,9.9-19.3,8C247,546.5,239.6,536.9,242.4,523.7z"/>
		<path class="st0" d="M311.8,555.3c1.7-0.1,3.5-0.2,4.2-0.5c1.5-0.5,1.9-1.4,1.9-2.8l0.7-33.9c0-1.3-0.3-2.5-1.8-3
			c-1-0.3-2.7-0.5-4.2-0.7l0-0.4l35.5,0.7l-0.2,10.9l-0.7,0c-0.9-2.8-5.1-9.6-8.3-10.1c-1.5-0.2-3.4-0.4-5.2-0.4l-4.8-0.1l-0.4,19
			l4,0.1c3.4,0.1,4.6-0.9,5.4-1.7c1.3-1.3,2.8-4.7,3.1-6.4l0.7,0l-0.4,17.4l-0.7,0c-0.2-1.9-1.8-5.7-2.9-6.8
			c-0.8-0.9-2.1-1.8-5.3-1.9l-4-0.1l-0.3,15.3c-0.1,4.5,0.8,5.2,6.4,5.3c3.4,0.1,6.7,0.1,8.2-1.3c2.6-2.4,6.1-8.2,7.4-10.4l0.5,0
			l-1.1,12.8l-37.8-0.8L311.8,555.3z"/>
		<path class="st0" d="M413.5,549c1.1-0.3,3.6-1.2,4.7-1.8c1-0.5,1.7-1.7,1.4-3.1l-6.2-28.2c-2.5,0.8-5.1,1.6-7.7,2.2l-0.1-0.5
			c3-1.1,4.6-1.6,8.7-3.7c3.4-1.7,5.6-3.4,7.1-4.8l0.6-0.1c0.1,2.8,0.7,6,1.5,9.6l5.1,23.3c0.4,1.6,1.2,2.2,2.4,2.5
			c1,0.2,3.7-0.1,4.7-0.2l0.1,0.4l-22.3,4.9L413.5,549z"/>
		<path class="st0" d="M470.5,533.9c-1-2.4,0.2-4.9,3-6c3.6-1.5,5.2,1.5,7.3,4.9c1,1.6,2,2.5,3.5,1.9c5.3-2.1,4.2-12.9,1.3-23.1
			l-0.2,0c-1,4.5-3.6,6.9-7.1,8.3c-5.8,2.3-12.4-0.2-15.4-7.8c-2.3-5.8-1.9-14.9,9.5-19.4c7.6-3,16.3,0.5,20.6,11.3
			c5.5,13.7,0.8,27.9-10.3,32.4C476.3,538.9,471.9,537.5,470.5,533.9z M482.2,502.8c-2.7-6.8-6.8-10.5-9.8-9.3
			c-5.1,2-2.2,10-0.3,14.6c2.4,6.1,5.8,9.6,9.3,8.3C484.5,515.1,485.3,510.4,482.2,502.8z"/>
		<path class="st0" d="M530.1,499.7c-1.9-3.1-0.7-5.8,1.4-7.1c2.2-1.4,4.7-0.9,5.8,0.9c1.6,2.7,1.1,4.5,1.3,6.4
			c0.9,1,3.7,0.7,5.7-0.5c3.7-2.3,2.8-9.1-0.7-14.8c-3.2-5.1-6.9-7.1-10.9-4.7c-2.9,1.8-4.9,6.3-4.7,9.6l-0.9,0.2l-6.9-20.1l0.6-0.4
			c1.2,0.4,6.5-1.2,10.5-3.7c3.6-2.2,7.3-5.3,8.5-8.5l0.6,0.1c-0.2,9-4.9,14.4-10.8,18.1c-1.2,0.7-4.9,2.8-5.3,3l3.1,9.1
			c0.6-2.3,1.3-6.2,7.2-9.8c6.9-4.2,14.1-4.2,17.9,1.8c4.7,7.6,0.9,15.1-7.8,20.5C539.2,503.1,533,504.3,530.1,499.7z"/>
		<path class="st0" d="M584.6,460.8c-3-3.3-1.6-8,0.6-12.1c-5.6,1.7-9.2,0.4-12-2.6c-4.3-4.8-2.7-13.1,3.2-18.3
			c5.7-5.1,12.1-6.2,15.5-2.4c2.7,3.1,1,7.7-0.3,10.4c6.9-2.2,10.7-1.7,13.8,1.8c5.2,5.8,3.2,14.4-3.9,20.7
			C595.3,463.7,588.3,465,584.6,460.8z M587.8,429.9c-2.8-3.2-7.4-4.6-11.4-1.1c-4.3,3.8-3.4,7.8-1.4,10c1.9,2.2,5.2,1.6,9.5-0.2
			c2.1-0.9,4.7-1.9,6.2-2.5C590.5,434,590.1,432.5,587.8,429.9z M603.5,445.4c-2.1-2.4-5.4-2.2-10.7,0.3c-2.1,1-5.2,2.2-6.9,2.7
			c0.1,2.6,0.7,4.9,3.4,7.9c3.1,3.5,8.3,4.3,12.7,0.5C606.3,453,605.9,448.1,603.5,445.4z"/>
	</g>
</g>
</svg>
