<svg version="1.1" id="Isolation_Mode" xmlns="http://www.w3.org/2000/svg" x="0" y="0" viewBox="0 0 650 399.2" xml:space="preserve"><style>.st0{fill:#ddd8ce}.st1{fill:#141e29}.st3{fill:#231f20}.st4{font-family:&apos;Helvetica-BoldOblique&apos;}.st6{font-size:6.0487px}</style><path class="st0" d="M649.4 30.5c.4 1 .9 1.5.4 2.4-1 1.9-.8-1.6-.4-2.4M512.9 77.5c0 .1-.1.1 0 0 0 .1 0 .1 0 0M615.4 100.5c-.7-1.7-1.3-3.4-2-5.1-.3-.8-1-3-1.2-3.1-.7-.1-2.3.8-3 1.1-1.8.7-4.2 1.2-5.6 2.3 0 0-1.6.1-1.9.4-.2.2.2.5-.2.6-.4.2-.2-.3-.5-.4-.8-.1-6.2 1.9-7.5 2.3.9 3.5 1.9 7 2.8 10.5.1.3.1.6.2.9.2.3 1.2.7 1.2 1 0 .4-2.1 2.3-2 2.6 0 .3 1.2 1 1.4 1.2.1-.4 1.4-1.2 1.6-1.4.4-.3.4-1 .8-1.4.3-.3.9-.4 1.2-.7.2-.3.3-.9.7-1.1.5-.2.1.4.4.4.3 0 1.6-2.7 1.7-2.7.5-.4.4.1.8.2.5.2.9-.6 1.2-.7s.7.1 1-.1c.2-.1.3-.6.6-.8.5-.2 1.2.1 1.3.1l.4-.7c.3-.2 1.1-.2 1.3-.5.3-.3-1-.9-.8-1.1.6-.6.8 2 1.9.7.1-.2 0-.6.2-.6.3-.1 1.1 0 1.2-.2.2-.2-.1-.7.1-.9.3-.2.7.6 1.1.2.2-.2 0-.5.2-.6.5-.4 1.2.1 1.7-.1 0 0-.5-.8-.5-1.2.2-.6.8.4.2-1.1M589.2 180c.1-.5 0-.2 0 0"/><path class="st0" d="M588.7 167.3c0 .1-.1.2-.1.3.1 0 .3.1.3.2l-.5.6c-.1.3.7 1.1.6 1.3-.1.2-.7 0-.5.4 0 .1.3.1.3.2 0 .6-1.2.3-1.2.4l.6.4-.4.7c0 .2.5 0 .5.1l-.5.4c0 .2.4.3.4.4-.2.4-.5.1-.7.5-.1.2.5.3.4.4-.1.1-.3 0-.4.1-.5.4.1.3.2.5 0 .2-.4.2-.3.4 0 .2.4 0 .5.1.1.2-.2.3-.3.5 0 .2-.2.8 0 .7 0 0 .2-.8.4-.1l-.3.4c-.1.3.2 1.9.3 2.4.1.3-.2.6-.2.9.1.3 1.2 1.6 1.4 1.7.2.1.3-.7.4-.7v-.4c0-.3 0-.5 0 0 0 .4 0 .9.3-.3.1-.5-.5-4-.3-4.4.1-.2.8-.2.7-.6 0-.1-.3-.2-.2-.3.1-.2 1.8.6 1.6-1 0-.2-.4 0-.5-.1-.5-1.1.7-3.8.9-4.9.1-.6-.6-1-.5-1.5.1-.4.5-.6.6-1-1.2.2-3.2.6-3.5 1.3M571 170c0 .1.1.2.2.3 0-.1-.1-.3-.2-.3"/><path class="st0" d="M589.6 187.1c-.3-.4-1.3-2.1-1.7-2.2-.3-.1-.4.4-.7.5-.5.2-2.5-.3-2.7-.2-.6.2-.3 1.3 0 1.6.1.1.3.2.2.2-.3.1-1.1-.5-1.6-.3l-.5.6c-.7 0-.4-1.2-.6-1.3-.1-.1-2.2-.5-2.4-.6-.4-.3-.3-1.8-1-1.7l-.4.5c-.3 0-.7-.5-1-.5-.8-.1-1.4.6-2.2.1-.2-.2-.3-.6-.6-.6-.2 0-.8.3-1.2.4-.3 0-2.3.8-2.1-.2 0-.1 1-.1 1.2-.2.2 0 .9-.5 1-.5l.6.6.5-.7c.4-.1 1 1 1.4.9l.5-.7c0-.2-.3-.4-.1-.5 0 0 .1 0 .1.1.2.3 1.3 1.1 1.7 1 .3-.1.8-.8 1.3-.7.4.1.4 1 .6 1.2.5.6 1 .2 1.2.2.2-.1.2.4.4.4l.7.1c.3.1.6.7.9.8 0 0 1.5-.6 1.6-.7.1-.1-.2-1.5-.2-1.6l-.8.2c-.2-.2.5-.4.5-.7-.1-.7-1.2 0-1.4-.1-.4-.2.3-.8-.4-.9-.6-.1-1.8.2-2.8-.2-.8-.4-1.6-1.3-2.3-1.9-.2-.1-1-.3-1-.6 0-1.1 4.4 4.1 5.9 2.1.1-.1.3-.5 0-.6-.2-.1-.9.5-.4 0 .1-.1.2-.1.2-.2-.1-.1-.2-.1-.4-.2-1.1-.5.1-.3.2-.6 0-.2-.5-.2-.5-.4s.2-.4.3-.4c.3.1.5.8.9.8.2 0 .2-.4.3-.4.2 0 .6 1.2.9.4.6-1.3-.6-1.3-.9-1.8-.1-.2.8-.5 0-.7-.1 0-.2-.1-.2-.1-.1.1.1.2.1.2 0 .1 0 .3-.1.3-.2.1-1.4-.3-1.3-.7.1-.4 1.3-.3 1-.5-.5-.3-2.6 0-3.2-.2-.6-.2-1-1.2-1.5-1.4-.4-.2-1-.1-1.4-.4-.5-.3-.8-1-1.2-1.3-.5-.3-1.3-.4-1.8-.8-.2-.2-.3-.7-.5-.9-.4-.5-1.2-.1-1.6-.3-.1-.1-.2-.2-.2-.4l-.3-.3c-.2 0-.3.4-.5.4-.1 0-.4-.1-.3-.2.1-.7.5-.5.8-.2h.1c.1 0 .2.2.2.3s.1.1.1.1c.4.2 1 0 1.3.1.4.2.6.9 1 1.1.6.3 1.1.4 1.8.8.3.2.6.9 1 1.1.3.1.9-.2 1.3-.1.1 0 .1.2.1.2.2.5-.1 0 .5.1.2 0 1.7 1.7 1.8 1.6.1-.1 0-.3 0-.4 0-.1-.1-.4 0-.4.2-.1 1.4 1.4 2.2.7.5-.5-.5-.2-.4-.7 0-.2-.1-.4 0-.6.1-.1.4 0 .4-.1.1-.2-.5-.2-.5-.4-.1-.2.3-.6.2-.9l-.5-.6c.1-.5 1 0 .5-1.3 0-.1-1.5-.3-1.7-.4-.3-.1-.6-.2-.9-.2l-.6.2c-.2-.2.6-.4-.1-.5l-.8.2c-.2-.1 0-.7 0-.8-.2-.3-.9-.4-1.2-.7-.1-.1-.1-.2-.2-.2s-1.3.7-1.5.7l-.5-.4c-.7-.1-1.6.7-2.3.1-.2-.2-.1-.6-.2-.8-.2-.3-.9-.2-1.1-.5-.4-.5.5-.8-.3-1.4-.3-.2-2.9 2.5-3.2 1.7-.1-.1.2-.3.2-.4l-.7-.5c0-.1.2-.2.3-.3.1-.5-.5-1.3-.3-1.9l.3-.4c-.1-.2-.5-.9-.2-1.3 0 0 1.4.2 1.2-.4 0-.1-1-.5-.4-.7.1 0 .2.2.3.2 0 0 1-1 1-1.1.2-.9-.9-1.7-1.1-2.4 0-.1.1 0 .2 0v-.1l-.9-.3s-.2-.4-.3-.4c-.1-.1-.2 0-.4 0h-.7c-.4-.1-.5-.7-.9-.8-.8-.3-1.6.5-2.2.4-2.1-.5-.3-2.1-.7-2.5-.6-.6-2.8-.5-3.8-.6-.1.8-.2 3-.4 3.1-.5.3-6.2-3.1-7.2-2.9-.1 0 0 .2 0 .3v.3c0 .9-.2 1.6-.2 2.5 0 .5.4 1 .4 1.5 0 .7-1.7 4.5-2.3 4.7-.2.1-.5-.2-.7-.1-.5.5-.2 2.2-.8 2.6-.4.2-1.5-.8-1.9-.6-.4.3-1 7-1.6 7.4-.3.2-1.8-.2-2.2-.2l-.9-.1c-.1-.1.2-.2.1-.3 0-.1-.2-.2-.3-.3-.3-.3-1.3-1-1.8-.5-.2.2.2 3.2-.2 3.5-1 .9-.3.7-.4 1.7-.1.7-.9 1.2-1 1.9-.2.8.1 1.6-.2 2.5-.9 2.4-2 3.2-2.4 6-.1.5.5.2.7.4.5.6-.5.9-.5 1.4.1.6.6 0 .2.8-1.3 2.6-2.3 1.4-2.3 1.4-1 .5-1.8 1.7-2.8 2-.2.1-1.3-.7-1.4-.5-.2.7.1.8.1 1.3.1 1.6-1.3.9-1.5.9-.1 0 0 .2 0 .3-.1.6-1.2.4-1.7.7-.2.1-.5.7-.7.7-.6.1-1.6-1-2.1-.8-.2.1-.2 1-.4 1.2l-.8.2c-.8.5-.9 2.1-2.8 1.2-.3-.1-.3-.6-.6-.7s-.8.3-1 .2l-.6-.7c-.2-.2-.8-.1-.9-.3-.2-.2 0-.8-.2-1l-.7-.4c-.2-.5.6-.6 0-1.1-1.3 1.7-2.5 3.6-4 5.2-1.1 1.1-2.7 1.8-3.7 2.9-.4.5.2.9.1 1.3-.2.6-1.2.8-1.4 1.4v.8c0 .1.1.3 0 .4-.4.8-1.8.8-2.3 1.3-.4.4-.2 1.4-.5 1.7-.7.7-3.5 1.8-4.5 2.3-.5.3-1 .6-1.4 1.1-.1.1.3.4.3.4l16.8-3.6c1.3-.3 3.4-.4 4.6-1.1.4-.2.2-.3.8-.4 1-.1 3-.4 3-.4 11-1.6 21.2-4.6 32-7.4 12.3-3.3 24.6-6.8 36.8-10.6-.1-.1-.2-.3-.3-.4-.2-.2.4.2.7.3.2-.1.3-.1.4-.1-.1-.1-.2-.2-.3-.4s-.4-2.1-.1-2c.9.3 1.2 1.3 1.5 2.1.2-.1.4-.1.6-.2-2-.2-2.8-1-3.5-1.9M591.4 189.9c.2-.1.3-.1.5-.2-.1-.1-.1-.2-.1-.2-.2-.1-.3.2-.4.4M372.8 72.8l-.1.8c-.2.2-.7-.2-.9.1-.2.3.2 1.9.2 2.3.1 1.5.9 5.7.7 6.8-.3 1.4-3.2 2.1-4.1 3-.7.7-.3 1.8-.7 2.4-.2.4-.9.5-1 .9-.1.1 0 .3 0 .4v.8c0 1.6.7.6 1.7 1.2.3.2 1 1.4 1.1 1.8.2 1.1-.7 1.6-.9 2.4-.2.8.5 1.8.4 2.6 0 .3-.5.6-.5.8 0 .6.8 1.2.7 2 0 .3-.5 2.8-.5 2.9.1.2 2.7 1.9 3 2.1.7.3 1.6.2 2.3.6.5.3.9.9 1.4 1.2 1.1.6 2.8.8 3.8 1.7.8.8.8 2 1.8 2.7.7.5 1.7 1.4 2.4 1.6.3.1.6-.2.9-.1 1.3.4 2.8 2.2 3.2 3.3.6 1.5.3 3.1 1.1 4.6 0 0 0 1.6.4 2.1s1.2.2 1.5 1.1c.2.8-.9 1.8-.9 2.7.1.9.5 2.3.9 3.1.1.3.5.4.7.7.2.5.1 1.3.4 1.8 1 1.9 5-.8 5.4 3.3 10.9-1.3 21.8-2.7 32.7-4.1-.1-.8-.4-1.6-.5-2.4-.1-.7.6-1.6.2-2.4-.2-.4-.7-.7-1-1.1s-.1-1.2-.4-1.7c-.2-.3-.7-.3-.7-.6-.1-.4.3-.6.2-.9 0-.3-.4-.4-.4-.7 0-.3.2-.6.1-.9-.1-.4-.5-.5-.5-1 .1-1.2.7-2.7.7-3.8 0-.4-.3-.9-.2-1.3.2-1 .9-1.7.7-2.7-.1-.7-.4-1-.6-1.7-.4-1.2.1-2.7.3-3.9.1-.9 1.4-1 1.4-2 0-.8-.9-1.1-.9-1.9 0-1 .2-2.2.3-3.2 0-.7 1.5-4.2 1-4.6-.3-.2-.8-.2-1-.4s-.1-.6-.5-.7c-.1-.1-.2.3-.2.3-.5.7-1.5.5-1.9 1.3-.5.9-.4 1.7-.7 2.6-.1.2-.9.5-1 .7-.3.4-1.2 2.6-1.9 1-.1-.2.2-.4.2-.6 0-1.6.9-2.8 1.4-4.4.1-.3-.4-.7-.1-1 .4-.5 1.5-.5 2-1 .2-.3.1-1.1.1-1.8h-.2c-.3-.1-1.1-.7-1.3-1-.3-.6.7-2.8.5-3-.5-.6-2.3 1.2-2.5.4-.4-1 .6-1.4.6-2.2 0-.3-.5-.7-.5-1l.5-.6c0-.2-.6-.5-.7-.7l.3-.6c-.2-.3-1.5-.8-1.8-1.1h-.4c-.5 0-1-.1-1.5-.2-.1 0 0-.2 0-.3-.1-.9.3-1-.3-1.8-.6-.9-1.7 0-2.4-.2l-.4-.5c-.5-.1-1.2.1-1.7 0-.6-.1-1 .5-1.4.5-.3 0-.5-.4-.8-.4s-.4.3-.7.4c-1.1.2-2.9-1.3-3.9-1.6-1.8-.6-4.2-.5-6-.8-1-.1-4.4-.2-5.1-.7-.7-.4-.8-1.9-1.4-2.5-.3-.2-.8-.2-1.1-.4-.2-.1-.1-.5-.2-.5-.6-.1-.5.7-.9-.1-.1.1-.3.2-.4.2-.7-.1-1.6-.6-2.4-.8 0 0-1-1-1.1-.9-.4 1.3.5-.2.2.7-.1.4-1.9 1.6-2.1 1.2s.7-1.3.8-1.7c.1-.2-.3-.6-.3-.7-.3-.9 1.7-2.1.5-3.1-.1-.1-.2.2-.4.1-.1 0-.1-.3-.4-.4-.5-.1-1.8 1.4-2 1.4-.5.1-1.1.8-1.5.7-.1 0 .1-.7-.1-.5-1.1.7-1.6 1.7-2.8 2.2-1.8.8-4.6 2.5-6.2 1.2-.1-.1-.3-.2-.4-.4-.1.1-.2.3-.3.4-.6.3-.8.3-1 .5M426.7 223.3c.5-.5-.9-.4-.8-.9.2-1.1.8-.4.6-2.2-.5-.4-.6.1-1.1-.1-.5-.2-.9-1.7-1.5-1.4-.6.4 1.1 1.1.4 1.3-.1 0-1.3-.5-1.4-.6-.1-.2 0-.5-.1-.8-.2-.6-1-.9-1.2-1.4l-.1-.8-.7-.2c-.2-1.2 1.1-1.3.7-2.5-.2-.7-1.2-1.2-1.5-1.9-.2-.5.1-1.7-.3-2.1-.3-.4-1.3-.2-1.8-.6-.5-.3-.6-1.1-1-1.4-.3-.2-.8-.2-1.1-.4-.2-.1-.3-.4-.5-.5-.5 0-.5.9-1.2.4-.5-.4.1-.7-.1-1-.3-.4-1.7-.4-2.2-.8-.2-.2-.3-.5-.5-.7-.3-.2-.8-.2-1.1-.4-.6-.4-1.5-1.3-1.9-1.9-1.4-2 1.4-4.6 1.5-6.5 0-.4-.4-.9-.4-1.3 0-.5 1-1.4.6-1.9-.3-.4-3.6-1.8-3.9-1.6-.7.4-1.2 1.9-2.1 1.6-1.6-.6-1.1-2.4-1.4-3.2-.1-.2-.4-.3-.5-.5-.3-.5-.2-1.2-.4-1.8-.6-1.5-2.7-1.8-3.8-2.7-.4-.3-.5-.9-1-1.2-1-.8-3-1.3-3.8-2.5-.2-.3-.2-.9-.3-1.3-.2-.3-.6-.6-.7-1-.1-.3.2-.8.1-1.1-.1-.4-.5-.6-.7-1-.5-1-.6-2-.6-3.1 0-.8-.2-1.9.2-2.6.1-.1.4-.3.4-.3s-.2-.1-.4-.1c-.7-.3-.7-.6-1.3-1-1-.6-1.7-1.4-2.3-2.4 0 0-2.2.4-3.1.5-3.1.5-6.3.9-9.5 1.3-11.9 1.2-23.7 2.1-35.6 2.5.1 1.4.8 1.1 1.3 2.3.1.3.3 2.1.3 2.1 0 .1 2.2 1.1 2.3 1.2l-.2.5c.1.5.9.8 1.1 1.2.1.3-.3 1.1-.1 1.3.1.1.9 0 1.2.4l.2.2s1.7 1.4 2.7 1.7c.6.1 1-1.1 1.6-.6v.8c.1.2.7.2.8.5.1.1.1.3.1.4.1.3.2.6.2.9-.1.6-1 0-1.2.1s0 .6-.1.8c-.1.1-.5.1-.6.3-.2.4-.1 1-.3 1.3-.1.1-.3.1-.4.3-.4.9 2.4 2.3 2.6 2.7l-.2.5c.1.9.7.7 1.1 1.2.2.2.1.8.3 1 .7.7 2 .2 2.7.6.1 0-.1.1-.2.1-.4.3-.1 1.5-.1 2 .1 2 .3 4 .4 6 .6 8.5 1.2 16.9 1.9 25.4.2 2.6.4 5.2.5 7.8 13.7-.9 27.3-2.1 41-3.6 3.8-.4 7.7-.8 11.5-1.3.7-.1 3.7-.7 4.1-.5.4.1.6.9.8 1.2.9 1.1 1.3 1.9.2 3.1-.3.3-1 .3-1.2.7-.2.2 0 .6-.1.8l-.6.3c-.1.2-.9 2.1-.8 2.2.1.1 1.6-.2 1.9-.2 2.2-.3 4.3-.5 6.5-.8 0 0 1.4-.7 1.4-.9.1-.4.2-1.1.5-1.5.1-.1.8-.5.8-.6 0-.4-1-.8-1-1.1-.1-.5 1.5-.8 1.4-1-.2-.3-1-.3-1.2-.6-.4-.7 1.1-.5 1.2-.9 0-.7-1.1-2.1-.8-2.8 0-.1.1-.1.2-.2.7-.6-.5 2.4 1.6.7 0 0-.8-.4-.8-.9 0-.1-.2-.8.1-.8.5-.1 1 .9 1.6.8.6-.1 1-1.3.9-1.7 0-.3-.5-.6-.6-1 0-.4.7 0 .9-.3M242.3 133.4c20.5 1 41.1 1.4 61.6 1h1.9c.2 0 .3-.1.5 0 .4.1 1 1 1.4 1.3.7.4 3.6 2 4.3 2 1.5 0 .7-1.1 1.7-1.4.3-.1 3.1.2 3.7.2 1 0 2.2-1 3.3-.4.6.4.9 1 1.6 1.3.6.2 3.1.7 3.5.9.2.1.1.4.2.5.3.2.9 0 1.2.2v.5c.2.3.6.4.8.8l.2.8c.5.4 1.8.2 1.8.2-.1-.5-.3-1.2-.6-1.6-.1-.1-.4-.1-.4-.2s.4-.1.4-.3-1.2-.8-1.4-1c-.1-.2.3-1.1.4-1.4l.6-.3c0-.1-.2-.1-.2-.2 0-.4.6-1.1.7-1.3.2-.4-.2-1-.2-1.3 0-.4.7-.8.7-1.3-.1-1.7-1.4-1.7-1.4-1.8s.2-.2.2-.3c-.1-.1-.3-.1-.4-.2-.3-.4.5-.4.5-.6.1-.1 0-.3 0-.4v-.4-.4c-.1-.4-1.5-1.2-.8-1.8.2-.2 1.6-.1 1.9-.1-.3-6.7-.8-13.9-1.1-20.6-.1-1.6.1-7.1-.4-8.2-.5-1.2-2-1-2.8-1.7-.4-.3-1.9-2.3-2-2.8-.1-1.1 1.9-2 2.5-2.7.7-.9.3-1.9.8-2.7 0 0-2.2.1-3.2.1-2 .1-4 .2-6 .2-6 .2-12.1.3-18.1.4-18.1.2-37.1-.2-55.2-1.1 0 4.8-.4 9.8-.5 14.7-1.3 10.3-1 20.9-1.7 31.4M578.5 373.8c-.1 0-.1-.1-.2-.2.2.2.5.3.5.3s-.2 0-.3-.1M578.1 374.5c.1.1 0-.1-.2-.3-.1 0-.1.1.2.3M539.3 346.6c-.1 0-.3.1-.5.1-.1.1.5.1.5-.1M499.4 322.7c.5.2 3.4-2.6 3.9-3.1-.8.7-1.5 1.3-2.4 1.9-.1.2-1.6 1.2-1.5 1.2M492.1 317.3h-.1"/><path class="st0" d="M580.4 360.4c0-.4-.4-1-.4-1.3 0-2.2-.4-4.8-.5-7.1-.1-.9-1.2-2.5-.8-3.2.1-.1-.9-1.8-1-1.8l-.8-.1c-.1-.2.6-.2.6-.4 0-.3-1.4-1.9-1.9-2.4-1.1-1-2.3-.1-2.4-.7-.2-.6 1.8.1 1.8.1 0-.3-.4-.4-.6-.7-.9-1.1-1.9-2.2-2.7-3.5-2.8-4.5-7.1-8.1-9.6-12.8-.4-.7-2.2-3.4-2.1-4 0-.5 1.2-.1 1.4 0 .5.4-.9 1.3.2 1.8 1.3.6 2.5-1.2 2.9.9v1.9c.2 1.8 1 4 2.3 5.3.2.2 1.5 1.8 1.7 1.7.3-.2-1.3-1.6-1.8-2.2-.4-.5-2-4.3-1.9-4.9.1-.5.8-.6.7-1.2-.3-1.4-4.7-4.9-5.9-6.1-4.6-4.6-8-9.9-11-15.7-.4-.7-.9-1.3-1.2-2.1-.2-.5-.1-1.3-.4-1.7-.1-.1-.4 0-.5-.1-.2-.2-.1-.8-.2-1-.2-.2-1.8-.9-1.5-1.3.3-.5 1 .8 1.1.6.1-.2-.3-.4-.4-.7-.2-.5.1-1.3-.2-1.8-.3-.6-.4.2-.7.2-.2 0-.3-.2-.3-.5l-.1.1c-1.5 1-5.9-.8-6.7 0l-.1.5c-1.3.9-.1 2.2.3 3.3v.5c0 .6 0 1.3.1 1.9 0 .2.3.5.2.8 0 0-.8.2-.9.2-2.2.5-1-.2-1.6-1.5-.1-.3-.7-.3-.9-.6-.2-.4.5-.3-.3-.5-1.5-.2-12.3 1.7-14.4 2-5.8.9-9.3 1.6-15.1 2.3-.9.1-5.9 1-6.4.8-1-.4-.8-1.3-1.4-2.3-.3-.5-1.2-1.3-1.2-1.3-8.4 1.5-16.8 3-25.3 4.3-1.5.2-9.5 1.1-10.2 1.6-.1 0 .1.7.1.8 0 .3-.4 1-.3 1.3s1.6 1.5 1.9 1.8c.5.3 1.7.2 1.8 1 .1.6-.5 1.3-.4 1.9.1.4.5.6.9.9.3-.1 1 .2 1 .4s-.9.5-1.1.7c-.2.3.4.7-.1 1-.2.1-.6-.1-.7.1-.1.1.6 0 .5.2l-.2.2c.1 0 .1.1.1.1-.5.4-.5-.1-.4.5.6-.1 1.4-.6 1.5-.6.2-.1 1-.3 1.1-.5l-.1-.5c1.2-.9 0-.1.6-.9.3-.5 1-.5 1.2-1.2s-1.1-.9-.7-1.7c.1-.2.4.1.6.2.1.1.3.1.4.2 0 .1-.3.2-.2.3.5.4.4-.5.6.8 0 .2.2.5.3.4.6-.9.5-2.4.6-2.4.6-.1 0 .4.3.5.1 0 .3-.1.5-.1.1 0-.1.1-.2.2-.2.1-.5.8-.3 1 .2.3 1.4.1 1.7.2.2.1.5.4.3.5l-.7-.1c-.3.1-.6.5-.8.7-.6.3-2 .4-2.4.9-.1.1 0 .2 0 .2v.2c.7.2 4.4-1.7 5.4-1.9 1.1-.3 2.2-.5 3.2-.8.3-.1.6-.6.7-.9 0-.1.1-.2.1-.3 0-.1-.1-.2 0-.2s.2.2.3.2c.7-.1.4-.7.5.2l.3.5c.2 0 .7-.6.8-.7.8-.4 1.4-.1 2-.6.1-.1-.1.4.1.5.3.2 1.1-.7.9-.2 0 .1-.2.2-.2.3l.5.2c.5.6.5.9.4 1-.6.2-1.6-.8-2.2-.6-.1 0-.2.2-.2.3 0 .2.6 0 .5.2-.4.5-1-.3-1.2-.3s0 .4-.1.5c-.7.4-1.7-.2-2.3.3-.1.1-.3.1-.2.2.1.1 5.8.4 6.6.6 1.4.3 5.1 1.5 5.3 1.2.1-.2-.6.1-.7-.1s.2-.5.1-.8c-.2-.4-2.9.1-1.6-.8.3-.2.6 0 .9-.2.1-.1 0-.5.1-.5l.1.5c.1 0 .3-.2.5-.1s-.1.7.1.8c0 0 .6-.9.8-.9l.5.2c.2-.1.1-.5.4-.6.1 0 0 .8-.1.8-.3.2-.7 0-.9.2-.2.2-.3.9-.5 1.1-.2.3 1.7.4 2.2.4 1.3-.1.7.1 1.4 1 0 .1.1.1.1.1h.1c.2 0 .3-.4.7-.3 0 0 .5-.2.3.2-.1.2-.5.2-.9.1h-.1c-1.3-.4-3.2-1.4-2.7-.4.2.4 1.2.5 1.6.8.3.2.4.7.8.9.3.1.9 0 1.2 0 1.1.3 3 2.1 2.5 3.4-.4.9-1.1-.2-1.3-.5-.4-.7-.5-1.7-.6-1.7-.7.1.6 2.5 1 2.7.5.2 3.1-1.1 3.8-1.2.2 0 .8.2 1 .1.5-.3 1-2 1.8-1.9.2 0-.3 1-.3 1.1.1.3 2.5-1.7 2.9-2 .5-.5 1.3-1.5 1.9-1.8.2-.1.3.2.5.2s1.5-1 1.6-.3c0 .1-.3.2-.2.3.5.4.6-.8.5-.9-.2-.4-1.7 0-2-.4-.4-.6 1.3 0 1.3-.1s-.2-.2-.2-.4c-.1-1.1.6-.8 1.2-1.3l.1-.5c.2-.2 1.4.2 1.5.2l.4-.6c.7-.5 1.8-.3 2.4 0 .4.2 2.2 1.2 2.5 1 .1 0 .1-.3.2-.3.3 0 3 1.6 3.3 1.9.2.2 0 .8.2 1 .3.3 1.4.5 1.8.7 2.4.8.5 1.5 1.4 2.3.4.4 2.3.7 2.8 1 .7.3.9 1.2 1.3 1.5.2.2.8.1 1 .3.4.2.4.9.7 1.1.5.4 3-.7 3.4-.5.5.3.3.7.4 1l.8.3c.3.3.3 1.1.6 1.4.4.5 1.3.5 1.7.9.3.4.3 1.5.3 1.5-.5.1 0-.5-.6-.4-.4.1.4.6.7.9.4.4-.1 1 0 1.3.1.2.7 1.4.7 1.9l-.4.6c0 .3.2.7.2 1 0 .5-.7 1.5-.5 1.9.1.4.2 1.2-.1 1.8-.1.2-.3.2-.4.4-.2.5.5.8.7 1.1.3.5 0 3-.2 3.4-.1.1 0-.2 0-.4 0 0 .1-.9-.2 0-.5 1.5 1.1 1.6 1.8 2.4.2.2.2 1.1.7 1.1.2 0-.2-.6-.5-.9-.4-.5-1.4-.8-1.5-1.5 0-.2.4 0 1.1.5l.6.6c.1.1.3-.2.5-.1.1 0 .6 1.2.8.3.2-.7-.2-1.6 0-2.3l.4-.6c0-.1-.8.2-.9.2-.1 0-.9-.3-1-.4-.6-.6.6-.6.4-.6-.2-.1-.8-.4-.6-.9.2-.2 1.2.1 1.3.3.1.1-.2.2-.2.3.1.2 1.1 0 1.3.2.4.5-.2 1.3.3 1.5l.8.1c.3-.4-.8-1.4.1-1.8.5-.2 1.2 1.2 1.3 1.5.1.5-1.7 2.8-1.8 3.7 0 0-.1.6-.1.8h.2l-.4.6c-.1.1-.5 0-.5.1 0 .2.7 0 .5.1-.1.1-.2 0-.3 0s-.3-.1-.3 0c-.3.4.4.5-.3.6-.3.1-.5-.1-.7-.2-.1-.1-.3-.3-.3-.2.2 1 2.2.8 2.7 1.6s.3 1.3.4 1.6c.2.5 1 .4 1.3.8.1.1.3.2.2.2s-.2-.2-.3-.2 1.8 2.4 2 2.6c.9 1 1.8 2.1 3.2 2.2.2 0 .7-.3.8-.3.3.1-.3.6.3.4.1 0-.1-.3-.2-.4-.2-.4-.5-1.5-.8-1.7-.2-.1-.6 0-.8-.1-.1-.1-.3-.6-.4-.7-.1-.1-.4-.1-.3-.2.1-.1.2 0 .3.1.5.1.1.3.4.6.4.4.6-.2.7-.2l.6.6.3-.8c.3-.2 1 0 1.4-.3.2-.1.2-.7.4-.6.7.5-1.4 1.5-1.3 1.9l.8.3c.6.7 0 1.8.1 2.6.1.5.7.9.8 1.4.2.7-.2.7.5 1.2l.4-.4c.9-.5.9-3 1.7-2.9.4.1-.4 1.2-.5 1.4-.4 1.5-1.2 1.6-1.3 2.2h.6c.3 0 1.1.4 1.4.3.5-.2-.6-1.1.5-.1.4.4.2.8.3 1.2.1.3.7.6.7.9 0 .1-.2.2-.2.3 0 1.4 1.6 2.4 2.3 3.3.1.1.2.7.4.7.3 0 .4-.4.7-.4s-.1.8-.3.8-.4-.3-.5-.1c-.1.1.1.2.1.4 0 .1 0 .3.1.4.6.3 1.2-1 1.5-1.1s.6.6.7.6l.4-.4c.3 0 1.3.4 1.4.5.4.3 2.2-.1 2.5.7l-.4.4c0 .9.9.6 1.2.8.5.3.7 1.5 1.2 1.8.2.1.6-.1.8.1l-.1.8.6.4c.2.3.2.9.5 1.2 1 .8 2.9-.1 3.9 1.1.4.4-.4 1-.8 1-.1 0-.3-.1-.3-.2s.2-.2.2-.3c-.1-.2-1.1-.1-1.3-.2s-.7-.6-.9-.5c-1.1.1-.5 1.9 0 2.3 1 .7 2.6.3 3.5-.3.3-.2.5-.8.8-1 .5-.2 1.5.5 2.1.3.2-.1.7-.9.8-1l.7-.2c.4-.4-.2-1 .7-1.2.8-.2.2.6.4.7l.4-.4c.1 0 .3.1.5.3.1-.1.1-.1-.2-.3-.1-.1-.5.3-.5.1.2-.9.7-.5 1.1-.2-.1-.1-.2-.2-.2-.3-.1-.9 1.3-1.9 1.1-2.6-.1-.3-.8-.9-.8-1.3 0-.3.3-.5.3-.9s-.4-.9-.3-1.2c.1-.3.5-.4.6-.7v-.9c0-.1-.1-.3 0-.4.1-.2.8-.2.9-.5.1-.3-.6-1.4 0-1.7.7-.3.5 1.3.7 1.2-.4-.5-.9-3.4-.9-4.1"/><path class="st0" d="M476 314.5c-1.6.3-3 .6-4.6 1.1-.5.2-1.1.3-1.7.5-.3.1-1.2.3-.9.3 2.4 0 5.1-1.3 7.2-1.9M503.3 319.6c-.8.7-1.5 1.3-2.4 1.9-.1.1-1.5 1.1-1.5 1.1.5.3 3.4-2.5 3.9-3M548.4 360.6c.3.2.8.7 1.2.8.1 0 1.2-.3 1.2-.3.4.9-2.1.5-2.2.2-.1-.2-.1-.4-.2-.7M580.2 371.4c-.2 0-.4 0-.5.1-.3.5-.3 1.4-.5 1.9-.4 1-1.3 2.1-1.5 3.1 0 .2.3-.1.4-.3.5-.5.7-.9.9-1.5.1-.4.3-.9.4-1.3.3-.6.5-1.3.8-2M568.6 335.1c1.6 2.3 3.6 4.5 4.9 7 .2.3-.4-.5-.6-.8-.3-.5-.7-1-1-1.5-1.2-1.5-2.2-3.1-3.3-4.7M599.5 49c.2.8-.8 1.9-.6 2.7s1.6 1.3 1.8 2.1c0 .2-.4.2-.4.4l.4.7c.1 1.2-1.1 1.8-1.6 2.6-.1.2-.1.8-.3.9-.7.6-1.5.2-1.7 1.4-.1 1.1.8 2 .9 3 .1.6-.3 1.2-.2 1.7 0 .2.3.2.4.4 0 .5-.4 1.1-.4 1.6s.2 1.1.2 1.6c0 .4-.5.9-.5 1.3 0 .6.4 1.3.3 1.8-.1.4-.6.3-.5 1 .4 1.4 2.4 7.4 2.2 8.4 0 0-.5.7-.5.8-.3 1.1.7 2.4 1.6 2.8.2.1.5.4.5.4 1.8-.6 11.9-3.4 12.7-4.1.4-.3.2-.9.7-1.1.1 0 .2 0 .3-.1l-.1-.8c.2-.6.5-.3.8-.6 1.3-1.2.6-1.6 2.6-1.8-.3-.8.4-1.9.2-2.8 0-.1-.2-.3-.4-.5 0 0-1.2-.4-1.5-.8s-.1-1.2-.4-1.5c-.6-.7-2-.6-2.6-1.5-.4-.7-.3-1.8-.6-2.6-.3-1-.9-2-1.3-2.9-3.2-7.3-6.5-14.7-9.7-22.1-.2.5-.3 1-.5 1.1-.4.2-1.3-.4-1.7-.2-.2.1-1 1.3-1 1.5l.5.4c.2.6-.4 1.7-.3 2.3 0 .3.4.5.3.7l-.2.2c-.5.4.5 1.3.6 1.6M593.9 147.1s.3 0 .4-.1c-.1-.1-.4.1-.4.1M597.3 130.8"/><path class="st0" d="M582.3 117.1c-.1.6-.6 1.4-.8 1.9-.1.3-1.2 1.5-1.1 1.7.2.5 1.1.7 1.4 1.2.3.5-.3.5-.4.7-.1.2.2.8.1 1.1-.1.2-.4 0-.6.2-.4.4.3 1.5.4 1.8 0 .3 0 1 .4 1.2.4.3 1-.1 1.3.1.5.3.4 1.5 1 1.9.4.3.7-.2 1-.1.4.1.7.9 1.1 1.1.6.3 2.6.9 2.9 1.5.2.3-1.7 1.9-2 2.3-.3.4-.2.8-.6 1.1l-.2.2-.2.3c.4.1-.5.8-.5.8-.2.6.8.5.1 1.1-2.4 2.1-2.6 1.8-3.3 4.9 0 .2-.3.4-.2.6 0 .1 1.7 2.5.5 1.7-.1-.1.2.2.3.2.3.2.1.1.6.3.6.2 1.4 1.2 2 1.3.2 0 .2-.4.3-.4.3.1.4.5.6.6.5.3 1.4.1 1.9.5.2.1 0 .7.4.7s.8-.9 1.2-.9l.4.4c.5 0 .8-.8 1.4-.4.8.6-.3 4.6.9 4.1.9-.4 1.7-2.8 1.8-3.6 0-.1.1-.2 0-.3-.1.1-.4.1-.4.1s.3-.2.4-.1c.3-.4 0-1.5.3-2 .1-.1.2-.2.2-.3 0-.2-1.1-.3-.8-.6.2-.3 1-.1 1.2-.4.1-.1-.1-.6.1-.9.1-.1.3-.5.3-.4l-.2.8c.1.3 1-.7 1-.8.1-1.1-1.2.1-.7-1.4 0-.1 0-.3.1-.3.2-.1.2.6.4.4.3-.4-.4-1.1-.5-1.5 0-.1-.2-.2-.1-.2s1.5.3 1.5.1c0-.3-.6-.3-.6-.6-.2-.8 1.3-1.8 1.3-2.6 0-.3-.7-.6-.7-.9-.1-.5.4-1.1.3-1.5l-.4-.4.4-.7c-.1-.2-.5.1-.7-.1-.1-.2.2-.4.2-.6l-.4-.4c0-.3.7-.3.6-.7v-.1c-.1-.1-.5 0-.4-.1.2-.2.3-.1.4.1.4.8.7 3.3.8 3 .2-1.1-.4-3.1-.8-3.8-.1-.1 0-.3 0-.4v-.4-1.6c0-1.1-.3-2.4-1.2-3.2-.1-.1-.2-.3-.3-.2l.3.6c0 .5-1.1 0-1.4 0-.5.1-1.5 1.2-2 .4-.2-.3-.2-2.7-.1-3 .1-.4.4-.9.7-1.2 0-.1.1-.3.2-.2.1.3-.2.6-.1.9 0 0 1-1 1.1-1.2.1-.3-.1-.8-.1-1.1 0-1.6.1-2.4-.1-3.5-.6-.3-2.1-.4-2.5-.5-2.7-.6-5.4-1.2-8.1-1.9-.5.5-1.3 1.3-1.4 2.1-.2.6.2 1 .1 1.5M518.6 143.9c.1.6 1.1 1 1.2 1.6.1.3-.2.8-.1 1.1l.5.4c.7 1.2-.6 3.3-.5 4.7 0 .4.3.9.3 1.3 0 .3-.2.6-.2.9 0 .2.4.3.3.5-.2.4-.4-.2-.6.1-.1.1.2 1 .1 1.2 0 .2-.4 1.2-.4 1.3l.6.7c.1.1-.1 1.6-.2 1.7-1.5 1.2-1.9 3.1-3.4 4.3-.4.3-1 1-1.4 1.1-.5.2-.8-.9-1.4-.5-.7.5-.5 1.5-.8 2.1-.2.3-1.1.3-1.3.6-.7.8 0 1.9-.2 2.7-.1.4-.7.3-.4.9.1.2.4.2.5.4v.8c0 .2.5.5.3.5-1.3-.2-.5.9-1.4 1.4-.1 0-.1-.1-.2-.1-.5-.2.1-.5 0-.9s-1.3-1.2-1.7-.9c-.4.2-1.6 4.2-1.5 4.4.1.4 1.6 2.1.8 2.8-.2.2-.6 0-.8.2-.4.5.2 1.7-.1 2.2-.2.4-2.2 1.4-2.7 1.4-.2 0-.5-.2-.5-.2v.5c0 .1-.1.2 0 .3.3.6.9.9.8 1.7l-.4.3c-.3 1.2.5 2.1 1.5 2.9 1.5 1.2.3.3 1 1.4.1.2.8.1.9.3.3.3.2.9.5 1.2s.9.3 1.2.5c.3.3.4.9.7 1.2.5.5 1.6.3 2.1.9.1.1 0 .4.1.5.8.5 1.7-.3 2.2 0 .6.5-.2.5 0 1.1l.7.4c.2.2 0 .8.2 1s.7.2.9.3l.6.7c.3.1.8-.3 1-.2.3.1.3.5.6.7 1.8.9 2-.6 2.8-1.2l.8-.2c.2-.2.2-1.1.4-1.2.5-.2 1.6.9 2.1.8.2 0 .5-.6.7-.7.5-.2 1.6-.1 1.7-.7 0-.1-.1-.2 0-.3.2 0 1.6.7 1.5-.9 0-.5-.3-.6-.1-1.3.1-.2 1.2.5 1.4.5 1-.3 1.8-1.6 2.8-2 0 0 1 1.2 2.3-1.4.4-.8-.1-.1-.2-.8-.1-.5 1-.8.5-1.4-.2-.2-.8 0-.7-.4.4-2.8 1.5-3.6 2.4-6 .3-.8 0-1.7.2-2.5.2-.6.9-1.2 1-1.9.2-1-.6-.8.4-1.7.3-.3 0-3.4.1-3.5.5-.5 1.5.2 1.8.5.1.1.3.1.3.3 0 .1-.2.2-.1.3l.9.1c.4 0 1.9.4 2.2.2.7-.5 1.2-7.2 1.7-7.4.4-.2 1.5.8 1.9.6.6-.4.2-2.2.8-2.6.2-.1.5.1.7.1.6-.2 2.3-4 2.3-4.7 0-.5-.4-1-.4-1.5 0-.8.2-1.6.2-2.5v-.3c0-.1-.1-.3 0-.3.9-.2 6.6 3.2 7.2 2.9.2-.1.3-2.3.4-3.1-.5-.4 0-.8-.4-1.2-.1-.2-.8-.1-.9-.3l.2-.9c-.2-.2-.5.3-.8.2-.1 0 0-.2 0-.3s.1-.2 0-.3c0 0-.8.6-.9 0 0-.4.6-.2.4-.9-.1-.2-1.7.6-2 .6-.9-.2-1.5-1.4-2.6-.9-.5.2-.5 1.1-.9 1.3h-.8c-.1 0-.8.7-.8.8 0 .2.5 0 .5.1 0 .2-.5.2-.5.4s.5.2.5.4c0 .8-3.4 1.3-4 .8s.5-.7-.7-.9c-.3 0-.3.6-.2.9 0 .1.3.1.3.2l-.5.4c-.3.5-.3 1.5-.8 1.8-.4.4-.9-.3-1.3-.2-.6.1-.5.9-.7 1.3-.2.5-.9.9-1.1 1.4l-.2.9-.8.2c-.2.2-.8 1.9-1.3 1.5-.4-.4-1.7-6.4-1.9-7.4-3 .8-6 1.6-9 2.3-.3.1-3.1.8-3.2.8l-.9-3.6c-.9-3.4-1.7-6.9-2.6-10.4-.3-.1-1.6.2-1.5.8M461.1 138.1c.9-.2 4.8-1.3 5.4-1.1.1 0 .2 1.2.2 1.3 5.1-1.2 10.2-2.5 15.2-3.9-.1-.3 0-.6.2-.6.1 0 .2.2.2.1-.1-1.3.4-1.9.7-2.9.1-.3.6-.2.6-.3 0-.2-.4-.4-.3-.6.4-.5.5.3.6-.8 0-.3.4.2.3.1-.3-1.5-.8-3.2.2-4.7 0-.1.1-.1.1-.2l.1-.1c.5-.6 1.5-.9 1.7-1.6.2-.9-.4-1.4-.3-2.2.1-.5.9-.7.9-.8.1-.4-1-.6-.5-1.1 2.3-2.2 1.5-.2 2.4.7 0 0-.3.3-.3.4v.1c.5-.4 1-.6 1.2-1.3.4-1.3-.2-2.2-.4-3.4-.1-.9.1-2.1.1-3-3.5-3.3-3.6-14.3-9.1-14.9-1-.1-.9.9-1.5 1.3-.5.3-1.3.4-1.9.7-.4.2-.1.7-.4 1-.3.2-.8.2-1 .4-.1.1.8-.1.7.3l-1.1 3.3c-.4.3-.2-.5-.5-.3-.7.4-.4 2.2-1.4 2.3-.4.1-.8-.4-1.2-.4-.7 0-1.4-.1-1.9-.8-.5-.7-.4-4 .2-4.7h.1c2.2 0 1.1-.7 1.7-1.1.2-.2.6-.1.7-.2.3-.3-.2-2.6 0-3.2.1-.3.5-.8.9-.6.1.1-.2.6 0 .4s.2-.8.4-1.1c.2-.2.5-.2.7-.4.3-.5-.4-2.3-.5-3-.3-1.5.1-4.3-1.2-5.4-.3-.3-.9-.3-1.3-.7-.2-.2-.3-.7-.5-.9-.2-.3.2-1.3.7-1.4.2-.1.8.9 1.3.5v-.1c-.1-.5-.4 0-.7-.4-.1-.2 0-.7-.2-1.1-.1-.4-1.2-.7-1.4-1.3-.1-.2.3-.3.2-.5-.3-1-2.1-.7-2.6-.8-.6-.1-1-.6-1.5-.7-.4-.1-.8.2-1.2.1-.5-.1-.8-.7-1.2-.7-.6 0-1.4.3-2.1.2-.7-.2-.9-2.2-3-2.1-.4.1-.8.4-1.3.4-.6 0-2.8-1.5-3.7-1.6-.1 0-.2.7-.5.8-.4.1-1.5-.1-1.9.2-.1.1.9.4.6.8-.6.8-1.6 1.8-1.2 2.9.2.8.6 1.3 1.3 1.6.3.1 1.4-.3 1.2.3-.2.5-3.4.8-4.5 2.6-.6 1.1.2 2 .4 3.1.3 1.6-.1 3-.6 4.5-.1.3 0 .9-.5 1-.2.1-.1-.2-.1-.3 0-.6.7-3.4.1-3.5-.5-.1-.4 3.5-.7 3.6-.6.1-.7-1.2-.6-1.6 0-.3.3-.6.3-.9-.1-.7-1.1-.9 0-1.8v-.2c-.1-.4-.7-.7-.6-1.2.1-.4 1.4-1.1.5-1.3-1-.2-1.9 3.7-2.2 4.4-.1.2-.1.2-.2.3-.3.2-.8-.3-1.1-.3-.2 0-.4.9-.5 1.1-.1.3-.6-.1-.8.1-.6.5.6 2.1.2 2.7-.3.5-1.3.3-1.7.9-.3.4.4 1.2.6 1.6.1.2.3 3.6.2 3.9-.2 1-.5 2.3-.9 3.2-.3.6-1.1 1.1-1.1 1.8-.1.6.8 1.2 1.1 1.6.1.1 0 .5 0 .7.1.6.5 1.1.6 1.6.2 1.2-1.2 1.9-.8 3.2.5 1.6 1.9 3.4 2.9 4.9 0 0 .3.6.4.6.4 0 .7-.9.9-.6.3.2-.8.8-.7.9 1.8 3.1 2.5 6.1 2.7 9.6.2 3.1-.8 4.9-1.7 7.6-.5 1.4-.5 2.8-1.1 4.1-.3.8-1 1.6-1.8 2.4 6.2-1.2 12.2-2.3 18.3-3.5"/><path class="st0" d="M393.6 72.8c.2 0 .1.4.2.5.3.2.9.2 1.1.4.6.5.7 2 1.4 2.5s4.1.6 5.1.7c1.9.2 4.2.2 6 .8 1 .3 2.8 1.7 3.9 1.6.2 0 .4-.4.7-.4.3 0 .5.4.8.4.4 0 .8-.6 1.4-.5.4.1 1.2-.1 1.7 0l.4.5c.7.2 1.9-.7 2.4.2.5.8.1.9.3 1.8v.3c.5.1 1 .2 1.5.2h.4c.4.2 1.7.7 1.8 1.1l-.3.6c0 .2.7.5.7.7l-.5.6c0 .3.5.7.5 1 0 .8-.9 1.2-.6 2.2.2.8 2-.9 2.5-.4.2.2-.8 2.4-.5 3 .1.3 1 .9 1.3 1h.2c0-.4-.1-.8 0-.9 1.3-2.5 2.1-4.9 3.1-7.4.3-.8 1.3-1.9 1.3-2.6 0-.3.2-2.8.5-2.9.1 0 .2.2.3.3.1.3-.3.8-.3 1.1 0 .1.5 2.2.7 2.3.1.1.2-.4.2-.4.2-.2.8-.1 1-.5.2-.5.3-2 .4-2.2.3-.4.8.3 1.3.2.4-.1.5-1.3 1.1-1 .5.3 0 1.1 0 1.4 0 .2.3.1.2.3-.1.2-.5-.2-.7 0-.1.2-.1.9-.2 1.2-.1.2-.4.2-.4.4 0 .4.9 1.3 1.3 1 .1-.1.1-.2 0-.2-.5-1.1.3-1.2.5-1.7.1-.2-.1-.6.1-.6.4-.1 1.4-.7 1.6-1.1-.3-2 1.2-3.2 3.1-3 .3 0 1 .4 1.3.3.2-.1-.2-.5 0-.7.8-.5 1.8-.1 2.5-.5s.6-1.7 1.1-2.2 3.3-.3 4-.2c2 .2 3.2 1.7 4.9 2.4.1.1.3.2.4.1s.4-.2.4-.3c0-.3-.4-.5-.4-.8 0-.2.2-2.3.5-2.4 1.2-.2.9.5 1.5.9.1.1.1-.2.1-.3.4-.4.3.5.5-.3h.1c.5-.1.6.1 1 .2.2 0 .3-.3.4-.3 1.1-.1 3.7.4 4.5-.4.6-.7-1.3-1-1.6-1.2-.2-.2-.4-.4-.5-.6 0-.1.1-.3.2-.4 0-.1-.1-.1-.1-.2-.5-.1-1-.4-1.4-.4-.3 0-.5.6-.8.3-.8-.8.3-.7.4-1.2 0-.1-2-3.4-2.4-3.6-.1-.1-.1-.1-.2-.1-.3.2-.6.4-.9.5-.3.4-.5 1-1.2 1.3-.5.2-.5-1.1-1.4-1-.4.1-1 .8-1.4.9s-1.1-.4-1.3-.4c-.4 0-.7.5-1.1.2-.1-.1-.4-3-.4-3.4 0-.2.6-1.2.4-1.2-.5.1-2.9.8-3.2 1-.7.5-1.5 1.4-2.3 1.7-1.3.4-3 0-4.3.4-1 .3-1.5 1-2.6.8-.3-.1-1.2 1.2-1.5 1.4-.5.4-1.3.8-1.7 1.1-.7.7-.9 1.5-1.4 2.2-.1.1-1.1-.7-1.5-.7-.6 0-.3.8-.9.8-.9.1-1.1-1.2-2-1.2-.4 0-1.8 1.5-3.6 1.1-.7-.2-.3-1.3-.6-1.4-.9-.2-1.9-1.1-2.5-1.9-.2-.2-.1-.6-.3-.8-.8-.7-1-.3-1.7-1-.9-.8-3.5-.3-4.6.1-.2.1-1.1 1.6-1.1 1.5-.3-.4 1.4-2.3 1.4-2.4-.1-.1-.5.2-.5.2-.7.6-1.2 1.3-1.9 1.6l-.1.1c-.1.2 0 .7-.2 1 0 .1-.1.2-.1.3-.1.3-.1.2-.3.4-.1 0-.2 0-.1-.2.2-.5.2-2.3.1-3.1-.1-.8-.7-.8-1-1s.3-.9-.2-1.2c-.4-.2-.8.1-1.2-.1-.4-.3.2-1.6-.5-1.5-.4 0-.4.3-.5.5-.5.7-1.3 1.1-1.7 1.8-.4.6-.1 1.2-.7 1.7-.5.4-1.2.2-1.6.4-.5.2-1.4 2.3-2.8 2.8-1.1.4-3.1.3-4 .9-1 .6-1.4 1.9-2.2 2.6-.9.8-2.4.9-3.3 1.6l-.5.5c.6 1.2.5.4 1.1.5M450.9 319.2v-.3.3c-.1 0-.1 0 0 0M450.8 318.9c0-.1-.1-.2 0-.2-1-5.2-2-10.4-3-15.5-.5-2.4-1.2-4.9-1.4-7.3-.3-2.9-.1-5.9-.2-8.8-.2-6-.3-12.1-.5-18.2-.1-4.7-.3-9.3-.5-14 0-1 .2-4.9-.2-5.6-.2-.4-1.2-.9-1.5-1.3-9.1 1.4-18.3 2.6-27.4 3.7.3.5 1 2 .1 2.3-.4.2-.3-.3-.8 0l-.5.5c-.2-.1 0-1.2-.7-.6-.3.2.5 1.2.4 1.5 0 .2-.8 1-1 .6-.1-.1.8-.8.1-1.1-.7-.2-.5 1.1-.3 1.3s1.1-.1 1.1.4c0 .2-.9 1.1-1 .9-.1-.1.1-1-.3-1-.1 0 0 .2-.1.3-.4 1.3.1.8.7 1.5.1.1 0 .2 0 .3.1.5-.4.4-.6.9-.2.4.4 1.2.2 1.5-.1.3-.6.4-.8.6-.1.1-.2 1-.3 1.1 0 0-.6-1.4-1.2-.6l.3.5c.1.8-.7.8-1 1.2l-.4.7c-.1 0-1.8-.2-.9.4.3.2 1.5-.2 1.6.3.1.6-1.7-.1-2 .5-.3.7 1.4.6 1.4.6.3.8-1.8 2-2 1.9-.1 0-.2-.2-.4-.1-.5.4.4.8.5 1 .1.4-.4 1-.3 1.3s.9.4 1 .7c.1.5-1.9.1-2 .2-.1 0 0 .2 0 .2.2 1.7 1 .4 1.4 1.1 0 .1.2.2.1.2-.5 1.1-1.8-.6-2.2-.4-.1.1-.3 0-.3.2 0 .4.9 1 1 1.4 0 .1-.1.2-.1.3-.1.5-.8.1-.7.7.3 2.4.3-1.8.5.6 0 .2-.6 1-.5 1.1.7.9.7-2.1 1.5-.7.2.3-1.3 1.3-1 1.4 1.3.6 1.3-1.8 1.9-1 .3.5-.9 1.2-.9 1.7-.1 2 1.4.3 1.5.9 0 .2-.5.6-.6.8 0 .2.3 1.1.1 1.3-.2.2-1.1 0-1.3.1-.5.4 1 1 1 1.2.1.4-.6 1.1-.6 1.1-.2.2-1 1.1-.3 1.3 1.4.5.4-1.6 1.5-1.2.9.4-1 2.9-.8 3.2.2.4 1.6 0 1.6.6.1.9-1.8.8-1.1 1.9.5.9 1.6-1.4 2-.5.2.5-.8.8-.8 1.1 0 .1 1.3.7 1 .9 0 0-2.4-.3-1.3.7.5.5 1.4-.2 1.8 0 .1.1-.3 1-.1 1.3.2.2 1 .1 1.2.4.3.5-.7.5-.8.6l.1.8c-.1.3-2.7.2-2.3 1.5.3 1 1.7-.6 2-.2.2.3-.5 1.5-.7 1.6s-1.1-.3-1.2-.1c-.1.2 1.5.5 1.2.9-.2.4-1 .5-1.3.9-.4.5-.7 1.5-.9 2-.1.4-.7-.7-1.1.2 0 .1 0 .3-.1.4-.2 1 .5-.1.7.5.1.4-.8.5-.9.7-.2.3 0 1.4-.3 1.6s-1.3-.6-1.4.1c-.1.8 1 .2 1.2.4.4.5-.9.9-1 1.1-.3.7.6 1.2.6 1.7 0 1-1-.5-1.1.1-.2.8 1 1.2.9 1.7-.2.5-1.8.7-1.8.7.1.3.7.7.8 1 .1.3-.5.8-.4 1.1.1.4.9.5 1 .9.1.3-.8.6-.8.9 0 .1.1.2.2.2 1.1.3 4.2-.5 5.5-.6h.5c4.7-.5 9.4-1.1 14.1-1.6 1.4-.2 4.7-1 5.9-.7.8.2-1.2 4.4-1 5.3l.5.5c.2.3.1.7.4 1 .5.5 1.3.7 1.8 1.3 1 1.3.9 2.7 1.9 3.9.4.5.4-.3.9.1.2-.2.5-.4.7-.3.1 0 .2.3.3.2.1 0 .2-.9.3-1.1.3-.4 1.1-.5 1.3-.9.4-.8-.9-.7-.4-1 .2-.1 1-.1 1.2.1l-.2.5c.1.1.9-.3 1-.3.5-.2 3.3-1.1 3.6-1.4.4-.4-.1-1 1-.8.6.1 1.1.9 1.8 1 .3.1 1.3-.2 1.6-.5.1-.1 0-.6.2-.5.3.1.3.6.6.7l.9-.1.5.4.4-.6c.1-.1.3 0 .5-.1v-.1M157.5 156.9c0 .1 5.3.7 5.9.8 5.9.8 11.8 1.5 17.7 2.2 19.9 2.2 39.8 3.9 59.8 4.9.5-10.5.9-20.9 1.4-31.4.7-10.5 1.3-20.9 2-31.4h-.6c-.7 0-1.5-.1-2.2-.1-1.7-.1-3.4-.2-5-.3-5.3-.3-10.7-.7-16-1.1-13.5-1-27-2.4-40.4-4-3.4-.4-6.9-.9-10.3-1.3-.3 0-3.6-.5-3.6-.5-.1.1-1 7-1.1 7.8-1.8 13-3.6 26-5.4 38.9-.5 3.8-1.1 7.6-1.6 11.4 0 .4-.6 4.1-.6 4.1M198.5 304.8c-.3-.5-.7-2.6-.7-2.6.2-.2 2 .2 2.3.2 2.3.2 4.6.4 6.9.5 9.6.7 19.1 1.3 28.7 1.8 2.8.1 5.6.3 8.4.4.6 0 2.8.1 2.8.1.7-17.8 1.8-35.6 2.5-53.4.2-4.2.3-8.3.5-12.5 0-.8-.2-3.7.6-3.7l.3-7.8h-.5c-.8 0-1.5-.1-2.2-.1-1.9-.1-3.9-.2-5.8-.2-5.6-.2-11.2-.6-16.8-.9-17-1.1-34.1-2.6-51.1-4.5-3.3 29-6.7 58.1-10.1 87.1.8.1 1.6.2 2.3.3 2.3.3 4.7.5 7 .8.4 0 2.1.5 2.3.2.5-.4 0-6.5.5-6.9 0 0 5 .5 5.6.6 4.3.4 8.7.8 13 1.2 1.4.1 3.3-.1 4.6.4-.3-.3-.9-.7-1.1-1M325.7 227.9c7-.2 14-.6 20.9-1 2.3-.1 4.5-.3 6.8-.4 1.2-.1 3.6-.2 3.6-.2-.6-8.5-1.2-16.9-1.9-25.4-.1-2-.3-4-.4-6 0-.5-.4-1.7.1-2 .1-.1.3-.1.2-.1-.7-.4-2 .1-2.7-.6-.2-.2-.1-.8-.3-1-.4-.6-1-.3-1.1-1.2l.2-.5c-.2-.4-3-1.8-2.6-2.7.1-.1.3-.1.4-.3.2-.4.1-1 .3-1.3.1-.1.5-.1.6-.3s-.1-.6.1-.8c.2-.1 1.1.5 1.2-.1 0-.3-.1-.6-.2-.9 0-.1 0-.3-.1-.4-.1-.2-.7-.2-.8-.5v-.8c-.6-.5-.9.8-1.6.6-1-.2-2.7-1.7-2.7-1.7s-2.1.1-3.2.1c-2 .1-3.9.2-5.9.2-6 .2-12.1.4-18.1.6-18 .6-36.1.6-54.1.1-.3 15.6-.6 31.3-1 46.9 20.8.5 41.5.4 62.3-.3M36 45.8c.3.1.8 0 1.1.1-.4-.1-.9-.1-1.3-.2.1 0 .1.1.2.1M38.7 48.2h.3-.3c-.1 0-.1 0 0 0M96.2 103.5c.1-.6.2-1.7.5-2.3.2-.3.7-.5 1-.9s.5-1.1.7-1.6 0-1.6.1-1.8c.2-.3 1.2.1 1.1-.8 0-.3-.7-.6-.8-1-.1-.2.3-.6 0-.8-.3-.1-.5.2-.8.1-.6-.3.6-.4-.4-.6-.4-.1-.6.6-.9-.2-.1-.3.2-2.9.3-3.2.2-.3.8-.5 1.1-.8.7-.7 1-2.2 1.8-2.8.3-.2.9-.1 1.2-.3 1.4-.9 1.3-2.4 1.9-3.6.3-.7 1.3-1.1 1.7-1.8.6-.8.8-1.9 1.3-2.7.7-1.1 2.6-2.2 3-3.4.3-1.2-1-3.5-1.9-4.2l-.5-.1c-.7-.7-.9-2.9-.9-2.9-5.2-1.1-10.5-2.3-15.7-3.5-1.5-.3-5.4-1.7-6.7-1.6-.7.1-1.1.7-1.8.6-.9-.1-3.2-.4-4-.7-.2-.1-.4-.4-.6-.4-.4 0-.9.7-1.3.8-.5.1-1.1-.3-1.6-.3-1.2 0-2.5 0-3.7.3-.4.1-.7.5-1.1.5-.7.1-2.3-.1-2.9-.5-.5-.3-.5-.8-1.1-.8-1.2-.1-2.5.8-3.6.7-.5 0-1-.7-1.5-.7-.3 0-.9.6-1.3.5-.1 0-.4-1.5-1.2-1.9-.6-.3-1.8-.8-2.4-.9h-1.9c-.4-.1-.8-.6-1.2-.6-.6 0-1.3.7-1.9.8-.8.2-2.5.3-3.3.2-1-.2-1.8-1.1-2.6-1.6s-2.2-.3-2.2-1.7c0-.5.4-1 .4-1.5.3-2.5.4-5.3-1.7-7.1-.3-.2-.7-.3-1.2-.3 0 .1-.1.2-.1.2-.4.3-1.8-.3-2.1-.6-.2-.3.1-1.6-.7-1.6-.9.1-1.6 1-2.6.3-.1-.1-.7-1.3-1.1-.6-.2.3.6.7.3 1.2-.1.1-.1.2-.2.2-.3-.1.1-.7.1-.8-.1-.2-.4 0-.5-.2-.1-.1-.9-1.4-1.1-1-.3.6-.1 2.1-.2 2.8-.2.8-.6.6-.9 1.1-.1.1 0 .2 0 .4v.8c-.1.5-.8 1-.8 1.4 0 .3.2.8.2 1.2l-.2.5c.2 0 .2-.5.6-.4.1 0 .3 0 .3.1s-1.3.9-1.4 1.5c-.1.5.3.2.5.4.1.1 0 .3 0 .4s-.1.3 0 .4c0 .1.3.2.3.4 0 .1-.2.1-.2.2-.5.4-.5-1.1-1.1-.3-.3.5.3 1.2.1 1.4-.1.1-.3.2-.4.1l.2-.5c-.2.2-.2.8-.5 1-.1.1-.4 0-.4.1s.3.8.2 1.2c-.3 1.2-1.2 2-1.7 3-.3.6-.3 1.3-.6 1.9-.7 1.2-1.3 2.3-1.7 3.7-.1.4.7.9.2 1.2-.2.1-.4-.3-.5-.2-.2.1-.9 1.9-.9 2.2 0 .4.8.9.5 1-.3 0-.4-.5-.6-.5-.4.1-.9 1.8-1.1 2.1-1 2.2-1.8 4.2-2.8 6.2-.2.4-1.3 2-1.2 2.3 0 .1.2.2.4.1s0-.6.2-.8c.3-.2.8.7.8.8-.1.2-.3-.4-.5-.4-.2-.1-.3.3-.5.4-.6.4-2.8 3.2-3 3.8-.1.2 1.1-.4 1.3-.3.1.1.3 1 .2 1.1-.1.3-.5 0-.6-.1s0-.3 0-.4.1-.3 0-.4c-.6-.4-.7.7-1.4 1.2-.1.1 0 .6-.2.5-.1 0 .2-1.4-.5-1-.6.4-1.9 4.2-2.8 5.2-.3.3-1.5 1.2-1.5 1.7l.4.7c0 .2-.4.8-.3 1 .1.1.3 0 .4.1 0 .1.5 1.4.5 1.5.1 1-.9 1.8-1.2 2.6-.2.5 0 1.1-.3 1.6-.1.3-.5.3-.6.6l.2.6c0 .9-.3 2.1-.1 3 .2.8 1 1.5 1.1 2.3 15.6 4.8 31.4 9.8 47.3 13.8 11.3 2.9 22.6 5.5 34 8 2-8.4 3.6-17.4 5.4-26M591.2 189.9c-.1.1-.3.1-.4.1.3.1 1.3 1 1.6.6 0 0-.3-.6-.5-.9-.2.1-.4.1-.5.2 0 .1-.1.2-.2 0M595.8 198s-.7.1-.5.4l.7.1v-.1c-.1-.1-.1-.3-.2-.4M598.6 197.5c-1.3-1.2-2.4-2.3-3.5-3.7-1-1.3-1.3-3-2.2-4.4-.2.1-.4.1-.6.2l.3.6c.7 1 1.1 2.2 1.7 3.1.3.5 1 .8 1.3 1.2s.3 1.3.7 1.7l.7.1c.7.4-.5.8-.2.9l.6-.2c.5.2 2.1 2.6 2.5 2.4s-1.2-1.8-1.3-1.9"/><path class="st0" d="M598.8 201.5c0-.1-.9-.7-.7-.9l.7.1c.1-.1-1-2.6-1.3-2.8s-.8-.3-1.1-.5c.1.1-.1.1-.2.2-.2.2-.9.1-.9.1-.1.2 1.4.4.7.9-.5.4-1.3-1.2-1.5.2-.1.6 1 3.2.5 3.7-.2.1-1.2.1-1.4-.1-.3-.3 1-.1 1.2-.4.2-.3-1-1-1.2-1.1-.2 0-.5-.2-.4-.3h.9s-.3-.9-.3-1c-.1-.1-.6 0-.5-.1.5-.6.6-.8.2-1.7-.4-.7-3 .4-3.1 1.2 0 .1-.1.2 0 .3s.3-.2.4-.1c.1.1 0 .3-.1.3-.2.1-.7-.3-1-.2l-.3.4c-.2-.1.1-.7-.4-.7-.4 0-3.4 2.7-3.8 1.4 0-.1.1-.2.1-.3s0-.2-.1-.2c-.6-1-2.6-2.9-1.3-4.2.6-.6-.1 1.4.1 1.9.1.4 1.1 1.8 1.6 1.7.2-.1.2-.4.3-.4.4 0 .9.6 1.5.4.8-.4.4-1.2.8-1.6 0 0 1.3-.4 1.2-.6-.1-.1-.3 0-.5 0-.6 0-1-.4-1.6-.7-.1-.1-.3-.1-.3-.2 0 0 3.8.8 3.7.5 0 0-1.8-1.4-1.5-1.4.6 0 1.2 1.2 1.9 1.1.2 0 1.3-.9 1.2-1.2-.2-.4-2.8-.9-2-1.4.9-.5 2.1 1.6 3.1.9.5-.3-.9-1.7-.9-1.8.1-.3.6-.1.7.1v.3c0 .1-.1.2 0 .3.2.2.6-.1.7.1.1.1-.2.2-.1.3.1.2.7.4.8.6.2.2.6 1.5 1.2 1.1.2-.2-.1-.5-.2-.6-.7-1-1.9-2-2.5-3l-.2-.8c-.1-.1-.3.1-.4.2-.1.3.6.5.4.7 0 0-.9-.7-.9-.8s-.1-.2-.1-.2c0-.1.2 0 .2-.1-.2-.4-.9-.4-1.1-.7-.2-.3-.1-.4-.2-.8-12.2 3.8-24.5 7.3-36.8 10.6-10.8 2.9-21.6 5.7-32.6 7.3-.6 1.1-.5 2.5-.2 3.6.1.6-.8.2-1 .4-.2.1-.7 1-.8 1.2-.3.6-1 3.2-1.4 3.5-.6.5-1.2-.9-1.9-.6-.3.1-1.4.9-1.7 1.2-.9.8-1 2.5-2.2 2.9-.8.2-.1-1.5-1.2-1.3-.2 0-1.3 1.1-1.5 1.4-.1.2 0 1-.2 1.1-.3.2-.9-.3-1.3 0 0 0 .2 2.3-.5 2.8-.2.1-1.5.1-2.3.8-.5.5-.8 1.5-1.4 1.9-.2.1-.5 0-.6.1s0 .4-.1.6c-.2.3-.8.2-1 .5-.4.4-.5 1.3-1.3 1.3l-.5-.4c-.2 0-.2.3-.4.3-.4.2-.9.1-1.3.3-.6.3-2.9 2.4-3.1 3v2.1c-.4 1.3-2.6.1-2.8 1.4-.2 1.3.3 3.9.3 3.9 5.2-1.1 10.4-2.3 15.5-3.5 1.1-.6 2.6-1.9 3.8-2.1l.5.2c.5-.2.4-.9.6-1.2.3-.4 1.2-.6 1.6-.8.1-.1.6-.5.8-.5l.7.1c.3-.2.2-1.1.5-.9.6.4 2-.2 2.7-.3 2.5-.6 5.1-1 7.7-1.4.6-.1 6.8-1.2 6.8-1.1.3.3.1 1.2.4 1.2.7.2.7-1.1 1.2-1.1.1 0 .2.2.3.3.6.5 1.8.9 2.2 1.5.2.4-.1 1.9.3 2.1.1 0 3.3-.7 3.6-.8 1.8-.4 9.8-2.5 10.9-2.4.9.1 4.5 2.6 5.5 3.2 4.1 2.4 8.3 4.8 12.5 7.2.5-.3 1-.6 1.5-1 .3-.2.2-1 .6-1.1.3-.1.2.6.4.7.3.1 1.1-.6 1.4-.7.6-.1 2.5.1 2.9-.3.5-.5-.2-4.1.1-4 .6.3.6 2.9 1 2.9.1 0-.1-2-.1-2.2-.2-1.4.2-2.3.7-3.6.6-1.5 1.5-3.2 2.8-4.2.2-.2 1.3-.6 1-1.1-.2-.4-1.4-.2-1.3-.4.1-.3 1-.4.9-.8-.2-.8-1.4-.2-1.2-1.2 0-.1.8-.4.8-.3l-.1.6c.1.2.8.4.8.6.1.4-.7.9-.6 1.2 0 0 .9.3 1 .2.6-.3 2.1-3.1 2-3.3l-.4-.4c0-.1.2.1.3.2.1.1.4 0 .5.1v.3c0 .1-.1.3 0 .3.3.1 2.3-1.4 2.7-1.6.5-.2 1.2 0 1.7-.3.1-.1.5-.4.1-.5-.2-.1-.6.4-.6.2 0-.1.8-1.1.8-1.1.3 0 .4 1.1.6 1.2 1.2.5-.1-1.5.6-1.5.9-.1-.1.8.4 1 1.2.4 1.4-2.7 1.6-2.9.1-.1.4.4.6-.1.3-.6-.2-.5.4-1l.3-.6c-.1-.2-1.2-.8-1.3-.4-.1.3.7.3.6.6l-.8.2c-.1.1.3.4.2.5l-.5-.1-.3.4c-.8-.1.2-.8.2-.9 0 0-.4-.6-.4-.7 0-.1-.1-.6-.4-.4-.4.3 0 1.1 0 1.4-.1.7-.4-.1-.7-.1-1.4 0 1.2 1.1-.3 1h-.3l-.2-.5c-.8-.2-.9 1.6-1.5 1.8l-.8-.3c-.4-.1-.9.2-1.3.1-.7-.1-2.2-1.1-2.5-1.7-.2-.3.6.3.9.3.6.1 2.2.8 2.9.5 1-.5 2.2-2.4 2.3-3.1.1-.9-1.5.4-1.4-.3.2-.9 1.7-.7 1.4-1.1-.1-.2-.8.1-.7-.1.2-.4 1.7.4 1.1-.9-.1-.1-4.7-.7-5.5-.8-.5-.1-1.3.4-1.7.2-.2-.1 0-.4-.2-.5 0 0-1.1-.3-.9-.5.2-.2.4-.1.5 0 .6.1 3 .5 3.5.4.3-.1.5-.4.8-.4.5-.1.9.7 1.4.3.2-.1-.2-.4-.3-.5-.5-.6-1.5-1.5-.4-1.9.3-.1 1.3-.3 1.5.1.4.6-1.2.2-1 .8.1.3.2.6.4.7.2.1.5-.4.6-.2.1.1-.2.5.2.8 1.2.5.1-.3.1-.3 0-.5.8.4.5-.6-.1-.2-.1-.7.1-.6 1.2.5 0 2.1 1.1 1.7.4-.1-.6-1.3-.2-1.3.3 0 .8.6 1.1.7.1 0 1.1-.6 1.7-.3.2.1-.1-.4.1-.6l.8-.5c.1-.2-.4-.7 0-.8.1 0 .2.2.3.2.2-.2.1-.9.1-1.1l.3-.4c0-.1-.3-.1-.3-.2 0-.2.6-.6.7-.8.1-.1-.1-1.4 0-1.4.3 0 .2.6.4.7.1.1 1.1-.1 1.1-.1.1-.1-.2-.3-.2-.5.3-1.1.8-1.2.7-1.5M595.7 215.4c-.4.8-.8 1.5-1.2 2.3-.2.4-.2 1.4-.6 1.2-.1-.1.1-.3.1-.4.3-.7 1.3-3.4 1.7-3.1M99.2 240.5c0-.1 1-.7 1.1-1.4.3-1.6-.5-3-.5-4.6 0-.6.5-1.2.5-1.7.1-1.1-.2-2 .1-3.1.1-.2.4-.7.4-1 0-.2-.3-.2-.4-.3-.4-1-.2-2.9.8-3.3 1.8-.7 1.5-.1 3 .3h.9c.2 0 .3-.1.4 0 .4.2.8 3.5 2.4 2.3.3-.2.4-1.1.7-1.5.2-.3.8-.5 1-.9.6-1.1 1.1-6.1 1.4-7.7.2-1.1.4-2.1.6-3.2.1-.4.2-1.4.2-1.4 4.5-25.7 9.1-51.4 13.6-77.1-11.5-2-22.9-4.3-34.3-6.7-11.4-2.4-22.7-5.1-34-8-2.8 10.8-5.5 21.6-8.2 32.5-.8 3.1-1.6 6.1-2.3 9.2-.3 1-1.2 2.9-1 3.9.1.9 3.2 5.1 3.9 6.2 3.2 5 6.5 10 9.8 15 12.5 18.7 25.8 36.9 39.6 54.6 0-1.2.4-1 .5-1.5.2-.4-.3-.2-.2-.6M581.2 57.5c.4.8 0 1.9.3 2.7.4.8 1.6 1.3 1.9 2.1.2.4-.2 1-.1 1.4.1.6.7 1.1.8 1.7 0 .3-.4.7-.5 1-.1.5 0 2 .2 2.4l.5.4c.1.1 1.1 1.9 1.1 2.1.4 1.1.5 2.2.6 3.4v.8c1.2.9.3-1.6 1.6-.6 1.7 1.4 2.5 6.2 3.2 8.4.3 1 .4 2.3.8 3.2.1.3.7.9.7.9 2.9-.9 5.9-1.9 8.8-2.8 0 0-.3-.3-.5-.4-.9-.3-1.9-1.7-1.6-2.8 0 0 .5-.7.5-.8.2-1-1.8-7-2.2-8.4-.2-.7.3-.6.5-1 .1-.6-.3-1.3-.3-1.8 0-.4.5-.9.5-1.3.1-.5-.2-1.1-.2-1.6s.5-1.1.4-1.6c0-.2-.3-.2-.4-.4-.1-.5.2-1.2.2-1.7-.1-1-1-1.9-.9-3 .2-1.2 1-.8 1.7-1.5.2-.2.1-.7.3-.9.5-.8 1.8-1.4 1.6-2.6l-.5-.7c0-.2.5-.2.4-.4-.2-.8-1.6-1.3-1.8-2.1s.8-1.9.6-2.7c-.1-.3-1.1-1.2-.8-1.6-.5.3-1.6.5-1.9.6-2.3.8-4.7 1.7-7 2.5-3.4 1.2-6.8 2.5-10.3 3.8.6 1.2.2 1.9.4 2.5.7.3 1.3.4 1.4.8M548.5 271.1c0-.1-.1-.4-.1-.5 0 .1.1.5.1.8v-.3"/><path class="st0" d="M506.5 241.2c.1.2 2.2 1.2 2.5 1.1.1 0 0-.3.2-.3l.1.5c.2.2 1.7 1.1 2 1.1.5.1 1.5-.6 1.9-.4.3.1.4.5.5.7.5.8 1.4 1.4 1.9 2.2.2.4.2 1.1.6 1.5.3.3.9.3 1.2.5.7.5.9 1.8 1.6 2.3.2.1.4-.2.6-.1.4.1.7.6 1.1.8.7.3 1.5.2 2.2.6 1 .6 1.3 2.1 2.2 2.7.6.4 3.3.7 3.8 1.5.4.8.2.8.3 1.5.1.5 1 .4 1.3.5.4.1.3 1.3 1 1.4.1 0 .3-.2.4-.1.2.1.1.9.2 1 .5.5 3.8.4 4.2 1.1V262.5c.4 1 1.7 1.7 2 2.7.2.6 0 1.4.5 2 .4.5 2 .6 2.5.7l.1.5c.2.2.6.1.8.3l-.1.5c.2.7.9 1 1.3 1.5.3.4.1 1.4.2 1.8.3 1.7 2.4 1.4 3.5 1.8.2.1.7.1.7.1h.1c-.2 0-.4 0-.4-.4s.6-.9.7-1.2c0-.2-.2-.3-.1-.5.1-.3.3-.5.4-.8 0-.4-.1-.7-.1-.8 0 .1.1.4.1.5v.3c.1.6.2 1.3.3 1.2.5-.1 1.4-1.5 1.3-2-.1-.2-1.4-.4-1.8-.8-.5-.5 0-.8-.3-1.3s-1.3-1.5-1.4-2c0-.2.4 0 .5.1s.4 0 .5.1c.2.2-.1 1.2 1 2 0 0 1.2.8 1.2.7.1-.3-.7-1.9-.8-2.2 0-.2.2-.4.4-.4.3.1-.2 1.9.4 1.8.2 0-.1-.6.1-.5.5.2-.1 2.1.5 2 1-.1 2.6-2.5 2.1-2.9 0 0-.3 1.1-1 1-.4-.1.8-.9.7-1.1-.2-.6-1.1-.2-1.4-.2 0 0 .7-.3.4-.6-.4-.5-1 .7-1.5.2-.2-.2.9-.9 1-.9.7.2.9.1 1.4.2l.6.4c.5-.1 0-1.1.2-1.1l.6.6c.1 0 1.5-1.6 1.4-1.7 0-.1-1.1-.4-1.1-.5.3-.6 1.3.7 1.6.7s.7-.9.9-1 1.4-.1 1.2-.6c0 0-.9-.1-.6-.4.6-.5 1.8-.3 1.7-1.5 0-.3-1.6-.6-1.6-.7.1-.1.4 0 .4-.1.2-.4-.7-.6.2-1.1.2-.1.2 1.3 1.2 1 .5-.1 2.5-2.6 2.7-3.1s-.8.5-.8-.3c0-.3.7-1.4 1-1.6.5-.2.5.6.6.6.2 0 1.3-.8 1.4-.9.1-.1-.2-.3-.1-.5.1-.4 1-1 1-1.3s-1-.2-.8-.3c.3-.1.8.3 1 .3.5-.1-.2-.6-.2-.8 0 0 1.1.7.9-.2-.3-1.1-1.4-.9-1.8-1.4-.2-.4.2-1.8.5-2s-.6 1.1-.2 1.4h.9c.2.1.1.6.2.5.6-.2.1-1.9.2-2.5.3-1.8 2.3-5.4 3.5-6.8.7-.8 1.4-1.3 2.2-1.8-4.2-2.4-8.3-4.7-12.5-7.2-1-.6-4.6-3.1-5.5-3.2-1.1-.2-9.1 2-10.9 2.4-.4.1-3.6.8-3.6.8-.3-.2 0-1.7-.3-2.1-.4-.6-1.6-1-2.2-1.5-.1-.1-.2-.3-.3-.3-.5 0-.5 1.2-1.2 1.1-.3-.1-.1-1-.4-1.2 0 0-6.2 1.1-6.8 1.1-2.6.4-5.1.9-7.7 1.4-.7.1-2.1.8-2.7.3-.3-.2-.2.7-.5.9l-.7-.1c-.1 0-.6.5-.8.5-.4.2-1.3.4-1.6.8-.3.3-.1.9-.6 1.2l-.5-.2c-1.2.3-2.7 1.5-3.8 2.1.1 1.1-2.3 4.5-1.9 5.2M586.4 129.9c-.4-.2-.7-.9-1.1-1.1-.3-.1-.6.3-1 .1-.6-.4-.5-1.5-1-1.9-.3-.2-.9.2-1.3-.1-.4-.3-.4-.9-.4-1.2 0-.3-.8-1.4-.4-1.8.1-.1.5 0 .6-.2s-.3-.8-.1-1.1c.1-.2.7-.2.4-.7s-1.2-.7-1.4-1.2c-.1-.2 1-1.4 1.1-1.7.2-.5.7-1.3.8-1.9.1-.4-.3-.9-.2-1.3.1-.8.9-1.6 1.4-2.1 0 0-.5-1-1-1.1s-1.1.3-1.6.2c-.2 0-.3-.4-.5-.4l-.8.2c-.3-.1-1.4-1.4-1.6-1.7-.2-.4-.3-2.3-.6-2.6l-.6-.1v-.6c-.6-.6-1.6.3-2 .1-.5-.3-.7-1.5-1.6-1.7-.5-.1-6.2 1.9-7.1 2.2-10.6 3.3-21.3 6.4-32.1 9.3l-8.1 2.1c-.4.1-2.4.9-2.7.7 0 0-.5-1.8-1.1-3.9-1 1-2.6 2.6-3.5 3.1-.1 0 .7-.9.4-.9-.6 0-.6 1-.9 1.2-.6.7-1.3 1.2-1.9 1.9-.3.3-.8.4-1.1.7-.2.1-.3.2-.5.3 1.7 6.9 4 15.5 5.2 20.6.9 3.4 1.7 6.9 2.6 10.4l.9 3.6s2.9-.7 3.2-.8c3-.8 6-1.5 9-2.3 14.5-3.8 28.9-7.9 43.3-12.4.5-1.9 1.6-3.6 3.6-2.7.2-.4.5-.8.6-.8.6-.6 1.7-.9 2.3-1.5.1-.2-.1-1.8.6-1.7l.2-.3s.2-.1.2-.2c.4-.3.3-.8.6-1.1.3-.4 2.2-2 2-2.3-.2-.4-2.2-1-2.8-1.3M438.2 210.1c0 .2-.2.2-.4.3-.8.4-1.9.3-2.6.9l-.3.6c-.5.3-1.1-.1-1.4.5-1.2 2.6 2 2 .9 4.5 0 .1 0 .3-.2.4-2 .3-5.2-2.4-7-1.4-.2.1-1.6 2.4-1.6 2.6.1.6.1.8.6 1.2l.2.2c.2 1.8-.3 1.4-.5 2.5-.1.5.8.2.4.7-.2.3-.6-.2-.5.5.1.3.5.6.6 1s-.4 1.6-.9 1.7c-.6.1-1.2-.9-1.6-.8-.3 0-.1.6-.1.8 0 .5.8.9.8.9 4.2-.6 8.5-1.3 12.7-2 .7-.1 4.2-.4 4.5-.7.7-.7-.9-2.3-.6-2.8.1-.1 1.6-.1 1.9-.1 1.1-.1.7.3 1.2.4.8.2 2.7-.5 3.5-.7 1.8-.3 11.1-2.3 12.2-2.1.1 0 .1.2.2.2l.5-.6c.9-.5 7.1-.8 8.6-1 3-.3 5.7-1 8.6-1.6 3.2-.6 6.5-.9 9.7-1.4 2.1-.3 4.1-.7 6.2-1 .7-.1 1.8-.1 2.4-.5.1-.1.4-.2.4-.2l.3-.3c.4-.4.9-.8 1.4-1.1 1-.5 3.8-1.6 4.5-2.3.3-.3.1-1.3.5-1.7.5-.6 1.9-.5 2.3-1.3.1-.1 0-.3 0-.4v-.4c0-.1-.1-.3 0-.4.2-.6 1.2-.8 1.4-1.4.2-.4-.5-.9-.1-1.3 1-1.2 2.6-1.8 3.7-2.9 1.5-1.5 2.7-3.5 4-5.2-.4-.3-.3 0-1.1-.4-.1-.1-1.1 0-1.2-.1-.5-.6-1.6-.4-2.1-.9-.3-.3-.4-.9-.7-1.2-.3-.3-.9-.2-1.2-.5-.3-.3-.2-.9-.5-1.2-.2-.2-.8-.1-.9-.3-.6-1.1.5-.2-1-1.4-1-.8-1.8-1.7-1.5-2.9l.4-.3c.1-.8-.5-1.1-.8-1.7v-.3-.3-.2c-1.4-1.7-2.6-1.1-3.6-1.9-.5-.4-.6-2.2-1.2-2.4-.3-.1-2.4 1.7-2.5 1.9l-.2.9c-.1.1-.9.2-1.1.2-.1 0-.7.4-.7.4-.3 0-.7-.5-1-.6H492.5c-.2-.1-.3-.4-.5-.4-1.4-.1-1.4 2.1-3.1 1.4-.5-.2-1-1.2-1.6-1.5-1.1-.6-3 .9-4.2.1-.7-.6-1.1-1.9-1.8-2.6-.3-.3-1-.3-1.4-.5-.2-.1-.6-.9-.8-.9-.5-.1-1.2 1-1.7 1.1-.6.1-1.3-.8-1.8-.7-.4.1-.9 1-.9 1-1.6 1.5.8.9 0 2.4 0 0-.3.5-.1.6.2.1 1-.5 1.1.1 0 0-.3.8-.3.9 0 .3.5.5.4.7l-.7-.1c-.4 0-1.2.4-1.6.6-.6.4-1.5 1.9-2.1 2-.3 0-1.7-1.5-3.2-.2-.6.6.9 2.4.8 3-.1.5-1.8 1.4-2 1.7-.5.6 0 1.8-.6 2.5-.8 1-1.4.2-1.8.6-1.1.9.1 4.1-.7 4.6l-.8.1-.2.4c-.2.1-3.1-.8-3.3-1.1-.2-.4-.6-1.8-1.3-1.6-.6.1.7.7.6 1-.2.5-1.4.5-1.5.6l.4.6c-.1.3-.8.4-.9.7-.1.4.5 1.2.3 1.5l-.8.4c-.3.4.1.9-.5 1.1-.1.1-.3.2-.4.1s0-.3 0-.4c0-.1.1-.3 0-.4-.2-.2-1 .3-1.2.2-.3-.1-.8-1.3-1.2-1.1-.4.1-.6.7-.9.9s-1 .2-1.2.5c-.5.6 0 1.8-.9 2.2-.1.1-.3-.1-.5-.2-.8-.7-2.2-1.5-3.4-1.6-.6 0-1.6.8-2 .6-.8-.4.2-.3-.6-.5-.1 0-.1.2-.1.3.1.7 1 1 0 1.6-1.1.7-.2-.9-.8-.9-.4 0-.8.6-1.2.7-.7.1-1.1-.8-1.6-.8-1.1-.1 1 2-.3 2.4-.3.1-.8-.4-1-.3l-.6.5c-.3.8-1.8 2.3-1.8 3.2.6.5 2.2.7 2 1.8M317.6 40.6c-.3.5.1 1.1.3 1.6.3 1 1.2 2.6 1.1 3.6 0 .5-.5 1.1-.5 1.6 0 .6.5 1.2.4 1.8l-.3.8c0 .5.4 1.1.4 1.6.1.7-.2 1.4-.1 2.1 0 .2.9 3 1 3.1.1.2.5.3.5.5.2.4 0 1.3.2 1.8.5 1 1.4 1.9 1.5 3.1.1.9-.3 2-.1 2.9l.4.5c.5 1.9-.1 4.1.2 6 .1.6.6.9.8 1.3.2.5-.4 3.3-.2 4.2.1.4.5.7.6 1 .2.7.2 1.7.5 2.3.3.7 1.1 1.1 1.3 1.8.2.5-.1 1.1.1 1.6.2.6.6 1.1.6 1.8 0 1.2-.2 1.3.1 2.6-.5.8-.1 1.8-.8 2.7-.6.7-2.6 1.7-2.5 2.7 0 .5 1.5 2.5 2 2.8.9.7 2.3.5 2.8 1.7.5 1.1.3 6.6.4 8.2.3 6.7.7 13.4 1 20.1 13.2-.6 26.4-1.5 39.5-2.6 4.5-.4 9-.8 13.4-1.3 1.4-.1 2.8-.3 4.2-.4.6-.1 1.2-.1 1.9-.2.1 0 .5-.1.5-.1-.7-1.5-.5-3.1-1.1-4.6-.5-1.2-1.9-3-3.2-3.3-.3-.1-.7.2-.9.1-.8-.2-1.8-1.1-2.4-1.6-1-.7-1-1.9-1.8-2.7-.9-.9-2.6-1.1-3.8-1.7-.5-.3-.9-.9-1.4-1.2-.7-.4-1.6-.2-2.3-.6-.3-.2-2.9-1.9-3-2.1-.1-.1.5-2.7.5-2.9.1-.8-.7-1.4-.7-2 0-.3.5-.6.5-.8.1-.8-.6-1.8-.4-2.6.2-.8 1.1-1.4.9-2.4-.1-.3-.8-1.6-1.1-1.8-1-.6-1.7.4-1.7-1.2v-.8c0-.1-.1-.3 0-.4.2-.4.8-.5 1-.9.4-.7 0-1.8.7-2.4.9-.9 3.8-1.7 4.1-3 .3-1.2-.5-5.4-.7-6.8 0-.4-.4-2-.2-2.3.2-.2.7.1.9-.1l.1-.8c.2-.2.4-.1.6-.4.1-.1.2-.3.3-.4 0-.1-.1-.2 0-.3.2-1.1 3.6-3.1 4.3-4.1.8-1.2 1.9-2.2 2.9-3.3.8-.8 1.3-2.2 2-3.1.9-1.3 2.4-3 3.6-4 .8-.7 1.8-1.3 2.6-1.9.6-.4 1.5-.4 2-.9.4-.4 1.4-.6 2-.9 1.8-.9 3.5-2.3 4.6-3.6.2-.2.8.2.6-.3v-.1h-1c-.8.1-1.6.8-2.4.8-1.4 0-1.5-1.8-2.9-1.8-2 0-4 1.3-6 1.2-1.1 0-.8-2.4-1.8-2.2-2 .4-3.5 3.1-5.4 3.5-.4.1-2.6-.2-2.9-.5s-.2-1-.5-1.3c-.5-.5-1.8-.2-2.3-.5s-.7-1.5-1.2-1.7c-.3-.1-.6.1-.9.1s-1.1 0-1.4.1c-.5.4.4 2.4-.9 1.9-.5-.2-1.2-2.9-1.7-3.3-.4-.3-1.4.4-1.9.2-1-.4 1.4-.8.4-1.3-.6-.4-5.7-1.1-6.5-1-.4 0-.9.2-1.2.4-1.4.5-.4.4-.8.8-.5.5-2.9 1.4-3.6 1.1-.5-.3-.5-1.5-1-1.8-1-.6-2.8.2-3.8-.2-.2-.1-.2-.4-.4-.5-.6-.2-1.6.3-2.2.2-.4-.1-1.7-.6-2-.9-.4-.4-1.5-7.9-2.1-8.5-.3-.3-1.6-.4-2.1-.5-.1 0-1.2-.4-1.2-.3-.3.3.7 5.6.4 6 0 0-3.8.2-4.1.2-4.5.2-8.9.5-13.4.6-1.2 0-2.5.1-3.7.1-.1-.2-.2 0-.2.1M421.8 340.5c-.1.3.2.1 0 0M436.6 331.7c-.2-.1-.1 0 0 0M427 335.5c-.5-.2-.1.2 0 0"/><path class="st0" d="M444.2 337.6h-.2c0 .1.1.2 0 .2-.8.3-1.7-2.1-2.2-2s-.1.5-.6.6l-.3-.5c-.2-.1-1.6.4-1.7 0 0-.2.9-.4.7-.3-.6.1-1-.1-1.6 0-.2 0-1.2.3-1.3 0-.1-.2.2-.9.1-.9-.5-.6-1.9 0-2.4-.5-.5-.4-.5-1.4-.9-1.5-.1 0-.3 0-.2-.1.1-.1.2 0 .4 0h.8c.1 0 .3.1.4 0 .3-.6-.8-1-1-1.1-.1-.1.2 0 .3 0h.6c.5.2 1.3.2 1.9.4v-.1c-.2-.1-.2-.2-.3-.2-.1 0-.2-.1 0 0 .1 0 .2 0 .1-.3-.1-.5-1.1 1-1.3-.6 0-.4 1-.3 1.1-.4.2-.1.4-1.3.5-1.4.6-.1.2 1.1 1.3.6.1-.1.4.1.5-.1.1-.3-.5-.4-.6-.7 0-.2.6-.4.4-.6-.1-.1-.3.2-.5.1-.2-.2.3-.6.1-.8-.2-.2-.4.4-.7.4l-.3-.5c0-.6.5.2.9-.1.1 0 0-.2 0-.2-.1-.7-1 .2-1.2-.1-.2-.4.7-1 .7-1 0-.2-.5-.1-.7-.3-.3-.1-.5-.5-.8-.4-.2.1 0 .6-.1.8-.2.3-.7.3-.9.6-.5.9.4 3-1.8 1.8-.5-.3-.1-.7-.2-.7-.5-.3-2 .6-2-.8 0-.7 2.8-.3 2.5-2.1-.1-.7-1 .6-1.1.7-.5.1-.1-.9-.1-1-.4-.8-.3 1.3-.5 1.4-.6.3-.8-1.2-1.5-.8-.3.2-1 1.6-1.6 2-1.1.6-7.1.5-5.9-1.9.1-.3 2.5-3.1 2.7-3.1.7-.1 2.4.1 2.9.7l.3.7c.1.1.3 0 .4 0H430.5c.3.1.6.4 1 .4.2 0 .4-.5.7-.3.1.1-.2 1.2 1.8.8.1 0 1.2-.4.5.1-.1 0-.3.1-.2.2.5.2.9-.3 1.3-.7-.5-.4-.5.4-.9-.1-1-1.2-.9-2.9-2.1-4.2-.5-.6-.9-.5-1.5-1-.2-.2-.4-.9-.6-1.2l-.5-.5c-.2-.8 1.9-5 1-5.3-1.2-.4-4.3.4-5.7.5-4.7.6-9.4 1.1-14.1 1.6h-.5c-1.2.1-4.4.9-5.5.6-.1 0-.3-.1-.2-.2 0-.2.8-.1.7-.5s-.9-.6-1-.9.4-.8.4-1.1c-.1-.2-.7-.6-.8-1 0 0 1.6-.2 1.8-.7.2-.5-1.1-.9-.9-1.7.1-.6 1.1.9 1.1-.1 0-.5-1-1.1-.6-1.7.1-.2 1.5-.7 1-1.1-.2-.2-1.3.4-1.2-.4.1-.7 1.1.1 1.4-.1s.1-1.3.3-1.6c.1-.2 1-.3.9-.7-.2-.5-.9.6-.7-.5 0-.1 0-.3.1-.4.4-1 1 .1 1.1-.2.2-.6.5-1.5.9-2 .3-.4 1-.5 1.3-.9.2-.4-1.4-.7-1.2-.9.1-.1 1 .2 1.2.1s.9-1.4.7-1.6c-.3-.4-1.7 1.2-2 .2-.4-1.4 2.2-1.2 2.3-1.5l-.1-.8c.1-.2 1.1-.4.8-.9-.2-.3-1-.1-1.2-.4s.2-1.2.1-1.3c-.5-.2-1.3.4-1.8 0-1.1-1 1.2-.5 1.3-.6.3-.2-1-.8-1-.9 0-.3.9-.7.7-1.2-.4-.9-1.5 1.4-2 .5-.6-1.1 1.3-1 1.2-1.9-.1-.6-1.5-.2-1.6-.6-.2-.3 1.6-2.8.7-3.2-1-.4 0 1.7-1.5 1.2-.7-.2.3-.8.5-1-12.8 1.2-26.2 2.4-39.1 3.4.3 3.7.5 7.4.8 11 .1.9 0 4 .3 4.6s1.3 1.2 1.9 1.7c.7.7 1.5 1.7 1.7 2.6.1.5-.5 1.3-.3 1.7.2.6 1.1.6 1.4 1 .1.1.1.3.1.4s-.2.2-.2.3c0 .5 1.5 1.2 1.5 1.7 0 .3-.5.5-.4.8 0 .2.8.5 1 .7s.1.8.3 1c.1.1.9 0 .9.2.1.3-.2.8-.2 1.1s.8.7.8 1l-.7.3c-.4.6.5.8.5 1l-.4.8c-.2 1 .1 2.2-.5 3.1-.2.3-.7.5-.9.8l.1.8c-.1.3-.7.3-.6.8 0 .5.7 1 .6 1.5-.1.7-.8.7-.6 1.6.7 2.4 1.4 3.3 0 5.6l.6-.1c.3.2.4.8.4 1.2 0 .1-.3 1-.4 1-.6.4-1.9.1-1.1 1.4 0 .1.7.7.8.7.4 0 1.2-1 1.6-1.1 1.4-.5 5.3-.8 6.8-.8 2.8.1 5.3 1.6 8 2.1 1.1.2 2.4.2 3.5.3.6 0 1.6.3 2.2.2.5-.1.9-.7 1.3-.9.5-.2 1.1 0 1.5-.1 1.1-.5-.1-.1.1-.5 0 0 .7 0 .7-.1.2-.5-1.2.1-1.2.1-.1 0-.6-.9-.6-1 0-.2.6-.4.4-.5-.1-.1-1 .5-1.1.4 0 0-.4-1-.3-1 .1-.1.3 0 .5 0s.3-.1.5 0-.1.5 0 .5 1.9-1.1 2-1.2-.1-.4 0-.5c.2-.2.6.2.7.2.4-.1.5-.3 1-.4.1 0 .3-.1.4 0 .8.5-.9.4-.3 1.3.1.1-.1.4 0 .5s2.5-1 3.2-.8c.6.1-.1 1 0 1.4.2.9.9-.1 1.3.2.3.3.2 1.5.2 1.5.1.1 1.3-.4 1.5-.4.6.1 1.3 1.1 2.1.7.3-.1.3-2.4.8-2 .7.6-.8 1.2-.3 2.2s1.8.9 2.3 1.5c.2.2.3 1.7-.3 1.6-.4-.1-.2-1.1-.4-1.2-.1-.1-.3.4-.4.3l-.4-.6c-.7-.5-.6.4-1 .7-.1.1-.4-.2-.5-.1s.1.2.2.3c.4.7 3.4 1.7 4 1.5.3-.1.1-.5.6-.6.1 0 .2-.1.2 0 0 .2-.5.4-.4.6 0 .1.9-.1.9-.1.3.1.7.6 1 .6 1 .1.3-.7.4-.8.1-.1.3.2.5.2s.5-.2.7-.1 0 .5-.2.5h-.2c.1.1 1.4.1 1.4.1.3 0 .2-.7.4-.8.2-.2.4.6.5.5.2-.4-.5-1.3.1-1.5.1-.1.2-.1.3 0 0-.1.1-.2.1-.4.3-.7-.7-.3-.1-.8.1 0 .1-.2.2-.1.6.1.8.4 1.2.4.3 0 .5-1.1.6-1.1.8-.1.5.9.7 1.1.1.1.2-.3.4-.4.5-.2.8.8 1.2.8.2 0 0-.5.2-.5.3 0 .4.6.3.7-.2.7 0 .7.4 1.5.3.5-.2-.1-.2.5 0 .3.6-.3.9-.5l.7-.5c.3-.2.6-.6.8-.9.6-.8-.7-.2-.6-1.2 0-.3.4-.8.6-.6H430.1c0-.4-.6-2.5-.6-2.5-.5-.2-1.1.2-1.7 0-.1 0-.2-.4-.3-.5h-.1c-.1.2-.5-.3 0 0v-.2s-.2-.1-.1-.5c0-.1 1 .3 3.2 1.1.3.1.7-.2.9-.1l.5.4c.5-.1 0-.7.1-.8.1-.1.8.3.8.4l-.4.3c-.1.8.9.1 1 .1l-.2.5c0 .1.2-.1.2 0 .1 0 .2.1.3.2.1.4-1 .5-.8.9l.8-.1c.2 0 .8.2.9.1l.6-.6c.8-.5.2.9.6 1.2.2.2.9 0 1.2.1l.5.2c.1 0 0-.2 0-.2s-.1-.2 0-.2c0-.1.2 0 .2 0 .1 0 .2-.1.2 0s-.2.2-.2.3c0 .7 1.3 1.1 1.3 1.1.1.2 0 1.2.6.9 1-.3.2-.8.4-1.3 0-.1 0-.3.1-.3.2.1.1.5.2.6 1 .8-.1.6-.5 1.2l.1.5c-.1.6-.6 1.1-.7 1.6-.1.2.5-.2.7-.3.1-.1.1-.3.2-.4.4-.8.7-1 1.2-1.6.1-.1 0-.5.2-.5.3 0 1.1 2 1.6 1.6.2-.2-.3-.5-.3-.7s.4-1.1.6-1.1c.1 0 .2.2.3.2.2 0-.4-.3-.3-.5.1-.3.7.4.8.4l.4-.8c-.2-.5-1.1.2-1.2.2s0-.2 0-.2c.2-.6 2.8-1.8.8-1.5"/><path class="st0" d="M405.5 337.2c-.3.3-1.1 1.4-1.5 1.4s-2.8-1-3-1.2c-.1-.1 0-.4.2-.5 1.3-.9 3.1-.2 4.3.3M618.2 92.7c-.7-.6-.5.4-1.1-1.3-.1-.1 0-.4-.2-.4 0 0-3.9 1.4-4.5 1.7.3.6.8 2.2 1 2.8.7 1.7 1.3 3.4 2 5.1.6 1.5 0 .5-.1 1.3-.1.4.5 1.2.5 1.2 1.1-.4 1.8-1.7 2.8-2.1h.8c.3-.3.1-2.4-.2-2.7l-.5-.3c-.2-.4.3-.8-.1-1.4l-.5-.3c-.1-1 .7 0 .8 0 .4-.2-1.3-2.2-.8-2.2.4 0 .8 1.4 1.5 1.1.1 0 0-.2 0-.3v-.2c-.3-.1-.6-.2-.7-.4-.5-.5-.4-1.3-.7-1.6"/><path class="st0" d="M620.2 95.8s.1-.5.4-1c-.4-.1-.7-.2-1.1-.3.1.8-.2 1.3.7 1.3M621.7 95.3l-.6-.3c.1.6.6 3.3 1.1 3.2.4-.1.5-.5.5-.9 0-.1-.1-.1-.1-.2-.3-.5-.6-1.5-.9-1.8M578.8 142s.1.3.2.4c.2.6.4 1.2.7 1.8.5 1.4 1.1 2.9 1.6 4.4 1.1 3 2.2 6.1 3.2 9.1l1 3c.3.1 1.8-.6 2.1-.7 1.8-.6 3.7-1.2 5.5-1.8.1 0 .3-.1.4-.1-.3-1.1-1.2-2.4-1.2-2.4l.2.5c0 .1-1.4.8-1.5.8s.2-.2.1-.3c-.2-.8.7-.5.5-1.2l-.4-.7c0-.1.2-.1.3-.1.5-.1.9 1 .5 0-.1-.3-.2-.5-.3-.8 0-.1-.1-.3-.2-.4-.3-.4-.7.1-1.2-.1s-1.8-.8-2.1-1.2c-.2-.2-.1-.5-.2-.8-.4-.6-1.1-.9-1.5-1.4-.7-1-.6-2.6-1.7-3.3-.2-.2-.7-.1-.9-.2-.2-.2-.3-.7-.5-.9s-.9-.3-1-.5c-.1-.1 0-.3 0-.5v-.9c-.1-.3-.7-.5-.9-.8-.3-.6.8-1.4.9-1.9.1-.3-.2-.8-.1-1.1 0-.1.2-.3.3-.5-2.2-1-3.2.7-3.8 2.6M439.8 174c.2 1.1 1.2 5.1.9 5.9-.1.3-1 .5-1.1 1 0 .4.9 1 .8 1.4-.1.5-1.3.7-.8 1.4.5.8 1.7 1.5 2 2.3V187.2c.1.3.4.6.6 1 .7 1.9-.6 1.8-.9 2.5l.1.8c-.1.3-.5.4-.5.6 0 .2.5.9.4 1-.2.3-.9.4-1.1 1-.1.3.1.8 0 1.1-.3.6-.6.4-.7 1.2 0 .1 0 .4-.1.4-.1.1-.2-.1-.2-.2s-.1-.2-.2-.2c-.2 0 0 .4-.1.6-.4.2-.3-.6-.6.1-.5 1.1-.1 1 .5 1.8.1.1.1.2 0 .3-.1.3-.7.4-.8.7-.4.9.4-.2.3.6 0 .2-.6.2-.6.4 0 0 .6 2.3.5 2.3l-.7.3c-.3.4.9 1.3.9 1.3-.1-.7.7.2 1.1.1 1.3-.4-.8-2.5.3-2.4.5.1.9.9 1.6.8.4-.1.8-.7 1.2-.7.6 0-.3 1.6.8.9 1-.6.1-.9 0-1.6 0-.1 0-.4.1-.3.8.2-.2.1.6.5.5.2 1.5-.6 2-.6 1.2.1 2.6.8 3.4 1.6.1.1.3.3.5.2.9-.5.4-1.6.9-2.2.2-.3.9-.3 1.2-.5.3-.2.5-.8.9-.9.5-.2.9 1 1.2 1.1.2.1 1.1-.4 1.2-.2.1.1 0 .3 0 .4 0 .1-.1.3 0 .4s.3 0 .4-.1c.6-.2.2-.8.5-1.1l.8-.4c.2-.4-.4-1.1-.3-1.5.1-.3.9-.4.9-.7l-.4-.6c0-.1 1.2-.1 1.5-.6.1-.3-1.2-.9-.6-1 .8-.1 1.1 1.3 1.3 1.6.2.3 3.1 1.2 3.3 1.1l.2-.4.8-.1c.8-.5-.4-3.7.7-4.6.4-.4 1 .4 1.8-.6.6-.7.1-1.8.6-2.5.2-.3 1.9-1.2 2-1.7.2-.7-1.4-2.5-.8-3 1.5-1.3 2.9.2 3.2.2.7-.1 1.5-1.6 2.1-2 .4-.2 1.2-.5 1.6-.6l.7.1c.1-.2-.3-.5-.4-.7 0 0 .3-.8.3-.9-.1-.5-.8 0-1.1-.1-.2-.1.1-.5.1-.6.8-1.5-1.6-.9 0-2.4-2.5-13.4-5-26.7-7.5-40.1 0-.1-.1-1.2-.2-1.3-.6-.2-4.5.9-5.4 1.1-6 1.2-12 2.3-18.1 3.4-1.5 1.4-3.4 2.6-4.9 2.9-.4.1-1.9.1-1.7-.6v-.1c-.5-.1-.8-.2-1.1-.4 1 10.4 2.5 20.7 4.1 30.9M521.6 207.7s-2 .3-2.9.4c-.6.1-.4.2-.8.4-1.2.7-3.3.8-4.6 1.1l-16.8 3.6s-.2.2-.4.2c-.6.4-1.7.4-2.4.5-2.1.3-4.1.6-6.2 1-3.2.5-6.5.8-9.7 1.4-2.9.6-5.7 1.2-8.6 1.6-1.5.2-7.7.5-8.6 1l-.5.6c-.1 0-.1-.2-.2-.2-1.1-.2-10.4 1.8-12.2 2.1-.9.2-2.7.9-3.5.7-.5-.1-.1-.5-1.2-.4-.2 0-1.8-.1-1.9.1-.3.5 1.4 2.1.6 2.8-.3.3-3.9.6-4.5.7-4.2.7-8.5 1.3-12.7 2-2.1 1.7-.5-2.1-1.9-.9-.1.1-.2.1-.2.2-.3.7.9 2 .8 2.8 0 .4-1.6.3-1.2.9.2.3 1 .3 1.2.6.1.2-1.4.5-1.4 1 0 .4 1 .8 1 1.1 0 .2-.7.5-.8.6-.3.4-.4 1.1-.5 1.5 0 .1-.1.4-.1.4.3.3.4.3.7.6 1 .9-.5.1-.9.7-.6.9 1 .5.6 1.2-.1.2-.7 0-.9.1-.2.2 0 .6-.1.8-.2.4-1.2.7-1.6 1.1-.6.8 1 .5 1.4 1 .2.2-1.1.6-1.2.7-.2.3.5.4.3.8-.4.5-1.2-.6-1.5.2-.4 1 1.4 1.4.9 1.7-1 .6-.3-.4-1-.3-.8.1-.9 1.7-.9 1.7.5-.1.1-.5.6-.6.2 0 .3 1 .2 1.2-.1.3-.7.7-.7.9-.1.3.7.4 1.1.6.1.2.1 1.6-.1 1.6-.3.1-.6-.3-.9-.1-.3.1-.2 1.1-.5 1.4-.2.1-.9-.1-1.1.1-.1.1 0 .2 0 .4 0 .1.2.5.2.5 9.2-1.1 18.3-2.4 27.4-3.7-.1-.5 1.2-.5 1.6-.6 2-.3 4-.5 6-.8 8.5-1.2 16.9-2.6 25.3-4.1 5.6-.9 11.2-1.9 16.8-2.9 0 0-.5-2.6-.3-3.9.2-1.2 2.4-.1 2.8-1.4v-.4-1.3c0-.1-.1-.3 0-.4.2-.6 2.5-2.7 3.1-3 .4-.2.9-.1 1.3-.3.1-.1.2-.4.4-.3l.5.4c.8 0 .8-.9 1.3-1.3.2-.2.8-.2 1-.5.1-.1 0-.4.1-.6.2-.1.5 0 .6-.1.5-.4.9-1.4 1.4-1.9.7-.7 2.1-.6 2.3-.8.7-.5.5-2.8.5-2.8.4-.3 1 .2 1.3 0 .2-.1.1-.9.2-1.1.1-.2 1.2-1.4 1.5-1.4 1.1-.1.4 1.6 1.2 1.3 1.2-.4 1.3-2.1 2.2-2.9.3-.2 1.4-1.1 1.7-1.2.7-.2 1.3 1.1 1.9.6.4-.3 1.1-2.9 1.4-3.5.1-.2.6-1.1.8-1.2.2-.1 1.2.3 1-.4-.2-1.1-.2-2.4.3-3.6M258.6 165.5c.6 0 5.9.1 5.9.2v4.1c0 3.8-.1 7.7-.1 11.5 18 .4 36.1.4 54.1-.1 6-.2 12.1-.4 18.1-.6 2-.1 3.9-.1 5.9-.2 1.1-.1 3.2-.1 3.2-.1s-.1-.2-.2-.2c-.4-.4-1.1-.3-1.2-.4-.2-.2.2-1.1.1-1.3-.1-.5-.9-.8-1.1-1.2l.2-.5c-.1-.1-2.2-1.1-2.3-1.2 0 0-.2-1.7-.3-2.1-.5-1.2-1.2-.9-1.3-2.3-.3-1.1-1.3-1.6-1.3-2 0-.7.5-1.6.5-2.4-.1-1.2-.7-1.8-.9-2.8-.1-.3.4-1.7.3-1.9-.2-.3-.8.4-1-.2-.2-.6.5-1 .5-1.3 0-.8-.6-.3-.8-.7-.2-.5.5-1.4.3-1.9-.1-.3-.9-.2-1-.5-.1-.2.5-.9 0-1-.2 0-.7.6-1 .3-.2-.2.2-.5.2-.8-.1-.5-.7-.8-.5-1.6.1-.6.5-1.2.3-1.9-.1-.6-.9-1-1-1.5-.1-.4.1-.9-.1-1.3s-1-.6-1.2-1c-.2-.3-.1-.7-.2-1-.2-.4-.8-.6-1-1-.2-.5.3-1.1.1-1.6-.1-.5-.9-.8-1-1.3-.1-.4.3-1.2.3-1.6 0-.4-1-.7-1-.7s-1.3.2-1.8-.2l-.2-.8c-.2-.3-.6-.4-.8-.8v-.5c-.3-.2-.9 0-1.2-.2-.2-.1-.1-.4-.2-.5-.4-.2-2.9-.7-3.5-.9-.7-.3-1-.9-1.6-1.3-1-.6-2.2.3-3.3.4-.5 0-3.4-.2-3.7-.2-1 .3-.2 1.3-1.7 1.4-.7 0-3.6-1.6-4.3-2-.4-.2-1-1.2-1.4-1.3-.1-.1-.3 0-.5 0H304c-20.5.3-41.1 0-61.6-1-.5 10.5-.9 20.9-1.4 31.4 5.8.1 11.7.4 17.6.6M163.5 157.7c-.6-.1-5.8-.7-5.9-.8 0 0 .5-3.7.6-4.1.5-3.8 1-7.6 1.6-11.4-11.5-1.6-23-3.4-34.5-5.4-4.5 25.7-9.1 51.4-13.6 77.1 20.8 3.7 41.8 6.7 62.8 9.1 2.3-20.7 4.5-41.5 6.8-62.2-6-.8-11.9-1.5-17.8-2.3M33.7 42.2c.2.5.4.2 0 0M647.1 30.9c-.1-.1-.2-.2-.3-.2 0 0 0 .1.1.1 0 0 .1 0 .2.1M646.2 32.5c.2-.3.8-.6.7-1.2v-.1c-.1 0-.2 0-.2-.1 0 0 0-.1-.1-.1s-.2 0-.2-.1c-.2-.1-.4-.5-.6-.3-.2.4.8.8.1 1.1-.1 0 0-.2 0-.3v-.3c-.2-.2-.5-.4-.7-.3-.6.3.2 1.1.1 1.1l-.6-.5s-1.2-.3-.7-.6c.2-.1 1.1.6 1-.1 0-.2-.3-.2-.4-.4-.2-.8.5.1.6 0 .6-.6-1.5-2.2-1.9-2.5-.2-.2-1.1-.5-1-.5-.4 0-.9 0-1 .2-.3.4.3 1.2-.6.9-.4-.2-1.5-.9-1.7-1.2-.1-.1 0-.4 0-.5-.2-.7-1.5-1.8-1.5-2.5 0-.5 1-1.3-.1-1.7h-.8c-.9 0-1.7 0-2.6.1h-.9c-.2-.1-.2-.3-.2-.5-.4-1.8-.5-2.4-1.3-4.1-1.7-3.5-3.3-7.1-4.9-10.7-.5-1-1.3-3.9-2-4.5s-6-2.4-6.9-2.2c-.6.2-.2 1-.4 1.3-.1.2-.8.3-1 .4-.5.4-3 3.3-3.3 3.3-.4 0-1.7-.3-2-.6-1.2-1.2.3-2.6-2.2-2.3-.3 0-.6-.1-.8.1-.2.2-.7 3.2-.8 3.7-.5 2.2-2.6 8.8-2.5 10.6 0 1.3 1.3 2.7 1.2 4 0 .6-1.3 3.5-1 4.3.1.2.7.3.8.5v.5c0 .6 0 1.2.1 1.8 0 .2-.1.3 0 .4.2.3 1-.3 1 .5-.1.8-1.1 1.9-.9 2.6l.6.6c0 .1-2.1 3.2-2.2 3.9-.2 1.7 1.2 1.2 1.5 1.9 0 .1.1.2.1.2-.4.6-1.8-.5-2 .5-.1.7.8 1.9.3 2.6-.3.4-1.1-1-1.4-1.1-.7-.2-.9.5-1.1 1.2 3.2 7.4 6.5 14.7 9.7 22.1.4.9 1 1.9 1.3 2.9.2.7.1 1.9.6 2.6.6.9 2 .9 2.6 1.5.3.3.1 1.2.4 1.5.4.4 1.5.8 1.5.8-.1-.2-.3-.3-.2-.5.3-.5.5.1.8-.1v-.7c0-.3.3-.9.3-1.1 0-.1-.3-.1-.3-.2 0-.2.3-.2.3-.4 0-.4-.8-1.2-.2-2.2.4-.6 1.3-1.2 1.3-2.1 0-.5-1.1-1.1-.6-1.8.5-.7.4.4.5.3.2-.1.1-.9.2-.9s0 .2.1.2l.6-.5c.1-.2-.2-.4-.4-.6-.2-.4-1.2.1-1.2-.2 0-.2.5 0 .5-.2.1-.2-.3-.5-.3-.7 0-.6.5-1.9.9-2.3l.5-.2c.1-.2 0-.5.2-.6.1 0 .2.2.3.2.1-.1.1-.4.2-.4s-.2 1.6-.1 1.7c0 .1.2.2.3.2.2-.2 0-2 0-2 .2-.1.3 1.8.9.8.3-.6-.5-.8-.6-.9-.1-.2.2-.6.4-.5s.9 2.4 1.3 2.3c.8-.3-.2-1.5-.4-1.9s-.8-1.9-1.2-2c-.2-.1-.2.5-.4.5-.5 0 .2-1.5.2-1.5.1-.2 0-.6.2-.6 0 0 .2 1.5.2 1.6.1.4.5.8.7 1.1.1.2.9 1.9 1.1 1.8.4 0 .2-.6.2-.7-.1-.4-1.1-1.3-1.1-1.5 0-.3.3-2.7.9-2.3l-.2.6c0 .9.5.7.6.9 0 .1-.3 0-.3.1-.1.1 0 .3.1.4.1.5-.1.4.5.5.2.1.4.1.5.1-.1-.1-.3-.2 0-.3.2-.1 0 .5.2.5.1 0 .1-.2.1-.3-.1-.3-1.6-2.5-.7-2.8.2-.1.2 2.8.9 2.8.1 0 0-.2-.1-.3-.2-1 .3.3.6-.3.5-1 0-2.8.1-3.3 0-.1.2.1.2.2 0 .7-.1-.2.5.4.1.2-.4.6-.1.6.1 0 .2-.2.3-.3.9-.8.1.6.6.5.2 0 .1-1.2.5-1.3 0 0-.4 1.6.1 1.4.3-.1.6-1.8.7-2.3 0-.2.3-.3.4-.5.3-.7-.3-.3-.4-.4-.2-.2-.4-2.8-.3-3.3 0-.2.5-.8.4-1-.1-.3-1-.7-1-1s.5-.3.6-.5c.2-.3 0-.9.4-1 .1-.1.3.2.4.1.2-.2-.6-1.3-.4-1.5 1-1.4.8 2.8 1.1 2.7.2-.1.1-.8.2-.9.2-.2.9 0 .9.2l-.7.3c-.1.1.1.2.1.2 0 .1.2.2.1.2-.1.1-.8.7-.4 1 .3.3.6-.8.7-.8.1 0 .7.5.8.5.2 0 1.6.2 1.7.2.2-.1.3-.8 0-.9-.1 0-.2.2-.3.1-.2-.1-.1-.9-.2-1l-.6-.6c0-.1.2 0 .3 0s.2.1.3 0c.2-.2.1-.7.3-.7.3 0 .5.9.5.7 0-.4-.5-1.2-.8-1.4-.2-.1.4-.3.5-.2.3.2.2 1.1.5 1.2.5.2.2-.8.4-1l.9-.4c.3-.6-.8-.6-.8-.8.4-.8.8.7 1.2.4l-.1-.8c.1-.3.5 1.1.9.8.2-.2-.5-.5-.3-.7.5-.5 1.1 1.1 1.1 1.2.2.2.7.6.9.8V42.1c0-.1-.2-.2-.1-.2.1-.1.3.2.5.1 1.7-.7-1.3-.1-.5-1.2v-.3c0-.1-.1-.3 0-.3.3.1.3.5.5.8.7 1.1.2-.3.2-.4.1-.1.5 1 .6.8.2-.2-.4-1-.3-1.3l.5-.2c0-.2-1.1-1.1-.6-1.5.1-.1.3.2.5.1.1 0-.1-.5 0-.6.5-.2.2 1 .2 1 .2.2 0-.9.3-.9.4 0 .4 1 .6 1.1.6.3.2-1.2.5-1.3.1-.1.8.8 1.1.1 0-.1-.3-1.2-.3-1.3-.1-.1-.3.3-.3.2-.1-.2.1-.8.3-.7.6.2.3.7 1 .4.1 0 .3 0 .3-.2.1-.2-.4-.4-.4-.6 0-.3 1 .6 1.1 0 .1-.5-1.3-.9-.9-1.1.1-.1.3.2.5.1.1-.1-.1-.9.4-.5l.1.8c.1.1.2 0 .3 0 1.1 0-.3-.3.3-.5s1 .3 1.3-1.2c.2 0-.1-.5.1-.8"/><path class="st0" d="M636.6 42.3c.2.1 1.2.7 1.2.9.1.5-1 .7-1.2 1.1-.1.3 1 1.1-.1 1.2-1.4.1-1.6-2.3-.9-3 .1-.2.8-.2 1-.2M567.7 158.8c.2.1.5.3.5.3.1.1.3.6.5 1.1.3-.5.9-1.7.8-2 0-.1-1.9-1.1-2-1-.5.1-.7 1.3-.7 1.3l.9.3M545.3 277.7c.3 0 .9-1.5 0-.4-.1.3-.1.4 0 .4"/><path class="st0" d="M548 274.4h-.8c-1.1-.4-3.2-.1-3.5-1.8-.1-.4.1-1.4-.2-1.8-.4-.5-1.1-.8-1.3-1.5l.1-.5c-.2-.2-.6-.1-.8-.3l-.1-.5c-.4-.1-2.1-.2-2.5-.7-.4-.6-.3-1.4-.5-2-.3-1-1.6-1.7-2-2.7v-.4-.4-.4c-.3-.8-3.7-.6-4.2-1.1-.1-.1-.1-.9-.2-1-.1-.1-.3.1-.4.1-.7-.1-.6-1.2-1-1.4-.2-.1-1.1 0-1.3-.5-.2-.7.1-.8-.3-1.5-.4-.8-3.1-1.1-3.8-1.5-.9-.6-1.2-2.1-2.2-2.7-.6-.4-1.5-.2-2.2-.6-.4-.2-.7-.7-1.1-.8-.2-.1-.5.3-.7.1-.7-.5-.9-1.8-1.6-2.3-.3-.2-1-.2-1.2-.5-.3-.3-.3-1.1-.5-1.5-.5-.8-1.4-1.4-1.9-2.2-.2-.2-.2-.6-.5-.7-.5-.2-1.4.5-1.9.4-.3-.1-1.8-.9-2-1.1l-.1-.5c-.1 0-.1.3-.2.3-.3.1-2.3-.8-2.5-1.1-.4-.7 2-4.1 2.2-5.2-5.2 1.2-10.4 2.4-15.5 3.5-5.6 1-11.2 2-16.8 2.9 0 0 .1.3.2.4.3.7.6 1.4.8 2.2.6 1.7 1.3 3.5 2 5.2 1.9 5.1 3.8 10.2 5.6 15.3 1.1 3.2 2.1 6.7 4 9.4.6.8.8 2 1.4 2.9.3.3.8.5 1.1.8.4.5.8 1.8.8 1.9.1.2-.6.5-.3.8.3.3 1.4.4 1.5.8.2.5-1.3 1.5-1.5 2 0 .1-.5 4.9-.4 5.2.1.6.3 1.7.6 2.2.4.7 1.5 1.1 1.6 2l-.3.8.3.5c.2 1.4-1 2.9.1 4.1l.5.2c.9.7 1.2 1.5 1.4 2.6 0 0 .9.8 1.2 1.3.6 1 .3 1.9 1.4 2.3.4.2 5.5-.7 6.4-.8 5.8-.8 11.5-1.6 17.3-2.4 2.2-.3 10.8-2.1 12.2-1.9.9.1.2.1.3.5.1.3.7.3.9.6.5 1.2-.7 2 1.6 1.5l.9-.2c.2-.2-.1-.5-.2-.8-.1-.6 0-1.3-.1-1.9v-.5c-.4-1.1-1.6-2.4-.3-3.3l.1-.5c.8-.7 5.1 1 6.7 0l.1-.1v-.7c-.1-.2-1-.8-1-1.1 0-.2.6 0 .7-.2.1-.2-.3-.3-.3-.4 0-.3.4-.7.3-1-.1-.4-.9-.1-.9-.4 0-.1 1.2-.1.8-.7l-.8-.5c0-.3.8.3 1 .1.1-.1.2-1.2 0-1.2s-.3.2-.4.4c-.1.2.3.5.1.5-.8 0-1-2-.5-2.2.8-.4.3 1.6 1 1.1.1-.1 1.1-2.3 1.1-2.4-.3-.7-1.7-.5-2.2-.5-.2 0-.8 0-.7-.2s1.8-.1 2.1-.2c1-.4-.2-.4-.1-.8.1-.6.5 0 .6 0l.1-.8c.1-.3.7-1.1.6-1.4-.2-1-1 .4-1.1.5s0-.4-.1-.5c-.2-.1-.8.3-.8 0 .1-.4 1.9-.3 1.4-1.2l-.6-.4c0-.1.2 0 .2.1.5.1.3.5.7.8.2.1.5-.5.5-.7.1-1-1.3-.9-1.3-1s.3-.2.3-.3c0-.3-1.6-.6-1.4-.7.1-.1.3 0 .4 0h1.3c.1 0 .3.1.4 0 .3-.2.8-1.3.5-1.6 0 0-.6 0-.9-.1-.2 0-.3-.1-.2-.2l.2-.2c0-.1 0-.2.1-.4v-.3c.4-.1 1.2.7 1.7.4 1.2-.6-1-1.6.8-1.5.2 0 .7-.8.7-1-.2-.5-.5-.4-.7-.3M412.9 236.6c-.1-.1.7-2 .8-2.2l.6-.3c.1-.2 0-.6.1-.8.2-.3.9-.4 1.2-.7 1.1-1.2.7-2-.2-3.1-.2-.3-.4-1.1-.8-1.2-.5-.2-3.5.4-4.1.5-3.8.5-7.7.9-11.5 1.3-13.6 1.5-28 3-41.7 3.9 0 0 .3 1.2.4 1.8.2 1.1.5 2.1.7 3.2.7 3.2 1.5 6.4 2.1 9.6.7 3.6.6 7.3.8 10.9.3 6.2.5 12.3.8 18.5l.7.7c.2.2.8.1.9.2s-.2.1-.2.3c0 .4 1 .3 1.1.2.8-.5-.5-.6 1.1-.3.3 0 2.2-.5 2.5.1.5 1.1.5 6.6.6 8.2 12.8-1 26.1-2.4 39-3.6 0 0 .6-.7.6-1.1 0-.1-1.5-.8-1-1.2.3-.2 1.1.1 1.3-.1.1-.2-.2-1-.1-1.3s.6-.6.6-.8c-.1-.5-1.6 1.1-1.5-.9 0-.4 1.3-1.2.9-1.7-.6-.8-.6 1.6-1.9 1-.3-.1 1.2-1.1 1-1.4-.8-1.5-.8 1.6-1.5.7-.1-.1.6-.9.5-1.1-.3-2.4-.2 1.8-.5-.6-.1-.6.6-.2.7-.7 0-.1.1-.2.1-.3-.1-.4-1.1-1-1-1.4 0-.1.2-.1.3-.2.3-.2 1.7 1.5 2.2.4 0-.1-.1-.2-.1-.2-.4-.7-1.2.5-1.4-1.1 0-.1-.1-.2 0-.2.1-.1 2.1.3 2-.2-.1-.3-.9-.4-1-.7-.1-.4.4-1 .3-1.3 0-.2-1-.7-.5-1 .1-.1.2.1.4.1.2.1 2.4-1.1 2-1.9 0-.1-1.7 0-1.4-.6.3-.6 2 .1 2-.5-.1-.5-1.3-.2-1.6-.3-1-.6.8-.3.9-.4l.4-.7c.2-.5 1.1-.5 1-1.2l-.3-.5c.6-.7 1.2.6 1.2.6.1 0 .2-.9.3-1.1.2-.3.7-.3.8-.6.2-.4-.3-1.1-.2-1.5.2-.4.6-.3.6-.9v-.3c-.6-.7-1.1-.2-.7-1.5 0-.1 0-.3.1-.3.4 0 .2.9.3 1 .1.2 1-.7 1-.9-.1-.5-.9-.2-1.1-.4s-.4-1.6.3-1.3c.7.2-.2.9-.1 1.1.2.3 1-.4 1-.6 0-.2-.8-1.4-.4-1.6.6-.3.3.4.5.5l.7-.4c.5-.4.4.1.8 0 .9-.4.2-1.9-.1-2.3v-.4c0-.1-.1-.3 0-.4.1-.2.9 0 1.1-.1.3-.2.2-1.2.5-1.4.3-.1.6.3.9.1.2-.1.1-1.6 0-1.8-.2-.3-1.5-.3-1.4-.6s.9-.4 1-.6c.1-.2-.4-1.5-.6-1.5-.5.1-.1.5-.6.6 0 0 .1-1.6.9-1.7.6-.1 0 1.4 1.4.6.6-.3-1.3-.7-.9-1.7.3-.8 1.1.3 1.5-.2.2-.3-.5-.4-.3-.8.1-.1 1.4-.7 1.2-.9-.4-.5-2.3-.4-1.7-1.1.3-.4 1.6-.4 1.9-.8.1-.2-.1-.6.1-.8.1-.1.8.1.9-.1.5-.7-1.1-.4-.6-1.2.4-.6 1.9.2.9-.7-.3-.3-.4-.3-.7-.6-2.1.3-4.3.6-6.5.8-.7-.2-2.2.2-2.3 0M328.1 126.5c-.6.6.7 1.4.8 1.8.1.1 0 .3 0 .4v.4c0 .1.1.3 0 .4-.1.2-.9.2-.5.6.1.1.3.1.4.2 0 .1-.2.2-.2.3s1.3.1 1.4 1.8c0 .5-.7.9-.7 1.3 0 .3.5.9.2 1.3-.1.2-.7 1-.7 1.3 0 .1.2.1.2.2l-.6.3c-.1.2-.5 1.6-.3 1.9.1.2 1.4.8 1.4 1s-.4.1-.4.3c0 .1.3.1.4.2.3.4.5 1.1.6 1.6 0 0 1 .3 1 .7s-.4 1.2-.3 1.6c.1.5.9.8 1 1.3.1.4-.4 1.1-.1 1.6.2.4.8.6 1 1 .2.3.1.8.2 1 .3.4 1 .6 1.2 1s-.1.9.1 1.3c.2.5.9 1 1 1.5.1.7-.2 1.3-.3 1.9-.2.7.4 1 .5 1.6 0 .3-.3.6-.2.8.2.3.8-.4 1-.3.5.1-.1.8 0 1 .1.3.9.2 1 .5.2.5-.5 1.4-.3 1.9.2.4.9 0 .8.7 0 .3-.7.7-.5 1.3s.8-.1 1 .2c.1.1-.4 1.6-.3 1.9.2 1 .9 1.7.9 2.8 0 .8-.5 1.7-.5 2.4 0 .5 1 .9 1.3 2 11.9-.3 23.8-1.2 35.6-2.5 3.2-.3 6.3-.8 9.5-1.3.9-.1 3.1-.6 3.1-.5.7 1 1.3 1.7 2.3 2.4.6.4.6.7 1.3 1 .1.1.4.1.4.1 1.9-.2-.3-2.6-.1-2.9.4-.7 2.9-1.6 3-1.9.3-.9.2-1.8.5-2.7.2-.8 1.2-1.4 1.4-2.3.5-2.7-3.5-2.8-1.8-6.9.2-.5 3.5-.7 4.1-1 .5-.2.8-.9 1.2-1.2.7-.4 2-.5 2.4-1.3.4-.7-.1-1.9.3-2.7.2-.5.8-.7 1-1.2.3-.6.5-2.3.4-2.9-.3-2.4-2.3-2-3.6-3.5-.5-.6-.2-1.3-.9-1.7-.5-.3-2.6-1.2-2.2-1.9-.5-4.1-4.5-1.4-5.4-3.3-.3-.5-.1-1.3-.4-1.8-.1-.3-.5-.4-.7-.7-.4-.8-.8-2.2-.9-3.1-.1-.9 1.1-1.9.9-2.7-.2-.9-1-.6-1.5-1.1s-.4-2.1-.4-2.1-.3 0-.5.1c-.6.1-1.2.1-1.9.2-1.4.2-2.8.3-4.2.4-4.5.5-9 .9-13.4 1.3-13.1 1.1-26.3 2-39.5 2.6.1.1-1.3-.1-1.5.1M595.8 113.7c0-.3 2.1-2.3 2-2.6 0-.3-1-.7-1.2-1s-.2-.6-.2-.9c-.9-3.5-1.9-7-2.8-10.5-.9-.6-.6-2.1-.7-3.1-.1-2.7-.2-5.5-.4-8.2 0 0-.6-.5-.7-.9-.4-.9-.5-2.2-.8-3.2-.7-2.2-1.5-7-3.2-8.4-1.3-1.1-.4 1.4-1.6.6v-.4-.4c-.1-1.2-.1-2.3-.6-3.4-.1-.2-1-2-1.1-2.1l-.5-.4c-.2-.4-.3-1.9-.2-2.4 0-.3.5-.7.5-1 0-.6-.7-1.1-.8-1.7-.1-.4.2-1 .1-1.4-.3-.8-1.6-1.3-1.9-2.1-.3-.8 0-1.9-.3-2.7-.2-.3-.7-.5-.9-.8-.2-.6.1-1.2-.4-2.5-2.4.9-4.7 1.7-7.1 2.5-2.3.8-4.6 1.7-6.9 2.3-.6.1-1.3.1-1.8.3-.4.2-.9.9-1.3 1.2-2.3 2.2-3.8 5-5.1 7.8-.3.6-.6 1.4-.9 2.1.8 1-3.1 5.1-3.6 5.8-.2.3-1.3 1.2-1.1 1.7.2.4.3.2.7.4.3.1.1.7.3.7s.5-1.5.8-1c.1.2.5-.4.7-.2.1.1-.2.5 0 .4.7-.4.3.2 0 .6-.1.1-.4.6-.2.5.7-.2 1.2-.9 1.5-.9.4 0-.6 1.1-.6 1.1-.1.2 0 1-.4 1.6-.1.2-.3-.3-.3-.5 0-.1-.2.1-.2.2-.2.2-.5.3-.4.7.1.2.8.1.8.3.1.3.7.8.7 1.1.1.4 0 1 .3 1.3.1.1.1-.9.4-.3.1.2-.3.6-.3.8.1.5.4.3.5.5s-.2.3-.3.5c-.6 1.7-1.6.5-2 1-.5.6-.6 1-1.2 1.6-.4.3-.9 1.1-1 1.7 0 .2.1.7 0 .8-.1.1-.3-.3-.5-.1-.7.7-1 .8-1.8 1.4-.2.2.3.6 0 .7-.5.2-.4-.4-.6-.3-.6.2-1.2.1-1.8.3-1.3.4-2.5.8-3.6 1.6-.2.2-.5.4-.8.4-.8.1-1.5-.7-2.1-.8-1.2-.2-3.3.1-4.4.4-3.8.9-6.8 2.5-10.1 4.6h-.1v.1c.4.8.3 1.8.7 2.5.1.3.5.4.6.7v.3c0 .1-.1.2 0 .3.4.6 1.5.7 1.8 1.2h.1c.2-.3 1.2 1.2 1 1.8-.2 1.1-1.5 1.3-1.7 2.5 0 .2-.3.5-.4.8l-.1.8c-2.3 1.3-3.5 4.3-5.4 6.2l-.4.4c.6 2.1 1.1 3.9 1.1 3.9.3.2 2.3-.6 2.7-.7l8.1-2.1c10.8-2.9 21.4-6 32.1-9.3.9-.3 6.6-2.3 7.1-2.2.9.2 1.1 1.4 1.6 1.7.4.2 1.5-.7 2-.1v.6l.6.1c.3.3.4 2.1.6 2.6.2.3 1.2 1.6 1.6 1.7l.8-.2c.2 0 .3.3.5.4.5.1 1.1-.3 1.6-.2.5.1 1 1.1 1 1.1 2.7.6 5.4 1.3 8.1 1.9.4.1 1.9.2 2.5.5-.1-.5-.3-1.1-.6-1.8-.2-.5-2.3-2.2-1.4-2.8.3-.2.3 1 .3 1 .4.6 1 .6 1.7 2 1.1 2.4.1 5.9.4 6.1.3.2.4-1.4.5-1.6.2-.2 1.2-.4 1.2-.7l-.4-.7c0-.1.3 0 .4-.1.3-.3.1-1.1.3-1.5l.6-.2.1-.9c-.6-.4-1.8-1.1-1.8-1.4"/><path class="st0" d="M616.2 107.3c-.7.8-4.2 4.9-4.9 5.1-.1 0-.2-1.2-.7-.3-.1.2.6.3.3.7-.6.8-2.4 1.7-2.4 1.7s.9-.7.6-.8c-.2 0-1.5.8-1.6.8-.1.1 0 .7-.3.9l-.5-.1c-.4.1-1.1.8-1.3 1-.3.2-.9.1-1.1.4-.1.1 0 .2 0 .3l-.3.3c-.2.1-.5-.1-.7.1-.4.3-.9 1-1.4 1.3-.6.3-1.3.5-1.8.9-.3.2-.6.7-1 .9-.1.1-.3-.2-.5-.1-.7.6.5.4.7.3.1 0-.2.1-.3.1-.3.1-.5.2-.8.3-.6.2-1.3 1.1-1.9 1.2-.1 0 .1-.2.1-.2.2-.2 1.6-1.1 1.2-1.3-.4-.3-1.6-.2-1.5.5 0 .2.9-.2.4.4-.7.8-1.3.8-1.9.1-.4-.5.7-2.9 1.2-3.2.2-.2.9.1 1-.1.2-.3-.5-.9.2-.8.1 0 .7-.1.5-.3l-.6-.1c-.4-.6 1-.2 1-.3.2-.7-.4-1 .5-1.4.2-.1 1.1 0 1.2-.1 0-.1-.6-.5-.4-.7.4-.4.8.5 1 .5l.7-.5c0-.1-.3-.1-.3-.2.1-.4 1.3-.2 1.6-.3.9-.3.8-1.5 1.2-1.5l.2.5c.1 0 .1-.1.2-.2.5-.7 2.2-1.1 3.1-1.4 1.8-.8 2.9-2 4-3.5.2-.2.7-2 1.3-1.6.7.5-.9.8-1.3 1.6s.4.6.4 1l-.6.2c-.1.2.3.5.3.7-.1.2-.2-.4-.4-.4s-1.2 1.8-1.2 1.9c0 .2 1.8-.3 1.9-.5.1-.1-.2-.3-.2-.5.1-.5.7-.9.8-1.1.1-.1-.3-.3-.2-.5.3-.4.7.5 1-.1l-.2-.5c.5-.2.2.5.7.3.2-.1-.3-.6.2-.6.3 0 .8.5 1 .5.6-.1 1.4-1.8 1.6-2 .1-.1.6.1.5.2 0 .4-.3.5-.3.5M466.7 138.3c2.5 13.4 5 26.7 7.5 40.1 0 0 .4-.9.9-1s1.2.9 1.8.7c.5-.1 1.2-1.2 1.7-1.1.2 0 .6.8.8.9.4.3 1 .2 1.4.5.7.6 1 2 1.8 2.6 1.2.9 3-.7 4.2-.1.5.3 1 1.3 1.6 1.5 1.6.7 1.7-1.5 3.1-1.4.2 0 .3.4.5.4H493.2c.3.1.6.6 1 .6 0 0 .6-.4.7-.4.2 0 .9-.1 1.1-.2l.2-.9c.2-.2 2.2-2 2.5-1.9.6.2.6 2 1.2 2.4 1 .8 2.2.2 3.6 1.9 0 0 .3.2.5.2.4 0 2.4-1 2.7-1.4.3-.5-.2-1.7.1-2.2.2-.2.6 0 .8-.2.8-.6-.8-2.3-.8-2.8 0-.1 1.2-4.2 1.5-4.4.4-.2 1.6.5 1.7.9s-.5.7 0 .9c.1 0 .2.1.2.1.8-.5 0-1.6 1.4-1.4.2 0-.3-.3-.3-.5v-.8c-.1-.2-.4-.2-.5-.4-.3-.6.3-.5.4-.9.2-.9-.5-1.9.2-2.7.3-.3 1.1-.2 1.3-.6.3-.5.1-1.6.8-2.1.6-.4.8.6 1.4.5.4-.1 1-.8 1.4-1.1 1.5-1.2 1.8-3.1 3.4-4.3.1-.1.3-1.5.2-1.7l-.6-.7s.4-1.1.4-1.3-.2-1.1-.1-1.2c.2-.4.4.2.6-.1.1-.2-.3-.3-.3-.5 0-.3.2-.6.2-.9 0-.4-.3-.9-.3-1.3-.1-1.4 1.2-3.5.5-4.7l-.5-.4c-.1-.3.2-.8.1-1.1-.2-.6-1.1-1-1.2-1.6-.1-.7 1.2-.9 1.6-1.2-1.2-5.1-3.5-13.7-5.2-20.6-2.6 1.6-5.4 3.6-7.6 5.5-1.6 1.4-2.6 4.3-4.4 5.3-1.1.6-2.9.1-3.8.7-.6.4-4.2 2.9-4.3 2.9-1 .1-2.1-.6-2.8-1.1-.3-.2.5.5.8.7.1.1.4.2.3.2-.4 0-.7-.4-1.1-.4-.3 0-.4.1-.6.3-.2.1-.5-.2-.7-.3-.1 0-1 1-1.1 1.1-.2.1-.4-.1-.6-.2 0 0 0 .3-.1.3-.2 0-.1-.3-.2-.3-.2 0-.5.2-.8.1-.1 0 .8-.3.9-.4.2-.1.1-.3.2-.4.7-.4 3-.5 2.7-1.4-.1-.4-.9.2-1 .2-.4-.1-.2-.6-.7-.6-.1 0-.1.1-.1.2.1.6-.3 1.1-1.1 1.1s-1-.6-1.6-.9c-.6-.3-1.5 0-2.2-.4-.2-.1-.8-.7-1-.6-.3 0-1 .5-1.6.2-.1 0-.1-.1-.2-.2-5.5 1.8-10.6 3.1-15.7 4.3M463.7 317.3l.5-1c-.2.2-.6.7-.8 1h.3M463.9 318s0-.1-.1-.1c-.3.2-.9.3-.8.5 0 .2.2.2.5.1-.1-.6-.1-.1.4-.5"/><path class="st0" d="M470.6 306.1c8.5-1.3 16.9-2.8 25.3-4.3-.2-1-.5-1.9-1.4-2.6l-.5-.2c-1-1.2.1-2.8-.1-4.1l-.3-.5.3-.8c0-1-1.1-1.4-1.6-2-.3-.5-.6-1.6-.6-2.2 0-.3.4-5.1.4-5.2.2-.5 1.7-1.5 1.5-2-.1-.4-1.2-.5-1.5-.8s.4-.6.3-.8c0-.2-.4-1.5-.8-1.9-.3-.3-.8-.5-1.1-.8-.7-.8-.9-2-1.4-2.9-1.9-2.7-2.8-6.2-4-9.4-1.8-5.1-3.7-10.2-5.6-15.3-.7-1.7-1.3-3.5-2-5.2-.3-.7-.5-1.4-.8-2.2 0-.1-.2-.4-.2-.4-8.4 1.5-16.9 2.9-25.3 4.1-2 .3-4 .6-6 .8-.5.1-1.9 0-1.8.5.4.4 1.3 1 1.5 1.3.4.7.2 4.6.2 5.6.2 4.7.3 9.3.5 14 .2 6.1.4 12.1.5 18.2.1 2.9-.1 5.9.2 8.8.3 2.4 1 4.9 1.4 7.3 1 5.2 2 10.4 3 15.5.3-.4 2.4-.5 2.8-.1.1.1-.1.4.1.5.4.2.5-.2 1 .1.1.1 0-.3.1-.4.1-.5 0-.9 0-1.3 0-.6-.1-1.1 0-1.7v-.7l.4-.3c.1-.4.1-1.1.2-1.6l-.1-.5c.7.5-.3.2.3.7l.7.1c.3.2 1 1.3 1 1.7l-.4.7c-.1.5.7 1.9 1.4 1.7l.4-.6c.1 0-.1 1-.1 1 .2.4 1.2.3 1.1 1-.2 1.1-2.1.4-2.3.5s-.2.5-.4.6-.6-.1-.7.1c-.1.4 1.2-.2 1.4-.2.9-.1 2.1-.1 2.9-.6.2-.1 2.1-1.1 1.8-1.2-.2-.1-1 0-.8-.6 0-.1.2.1.2.1.4.1.4.6 1 .2.1-.1.2-.2.2-.3 0-.1-.1-.2 0-.2.1-.1.3-.1.4 0 .2-.3.6-.8.8-1 .1-.2.2-.4.2-.5 0-.2-.3-.3-.2-.5l.1-.1c-.4-.2-.8-.5-.9-.9-.1-.6.5-1.3.4-1.9-.1-.8-1.3-.7-1.8-1-.3-.2-1.8-1.4-1.9-1.8-.1-.3.2-1 .3-1.3 0-.1-.2-.7-.1-.8.9-.2 8.9-1.1 10.4-1.4M244.8 87.3c18.1.9 36.2 1.2 54.3 1 6-.1 12.1-.2 18.1-.4 2-.1 4-.1 6-.2 1.1 0 3.2-.1 3.2-.1-.4-1.3-.2-1.4-.1-2.6 0-.7-.5-1.2-.6-1.8-.1-.5.1-1.1-.1-1.6-.3-.7-1-1.1-1.3-1.8-.3-.7-.2-1.6-.5-2.3-.1-.3-.5-.7-.6-1-.2-.9.4-3.7.2-4.2-.2-.4-.7-.7-.8-1.3-.4-1.9.3-4.2-.2-6l-.4-.5c-.2-.9.2-2 .1-2.9-.2-1.2-1-2.1-1.5-3.1-.3-.5-.1-1.4-.2-1.8-.1-.2-.4-.3-.5-.5s-1-2.9-1-3.1c-.1-.7.2-1.4.1-2.1 0-.5-.4-1.1-.4-1.6l.3-.8c0-.6-.4-1.2-.4-1.8 0-.5.4-1.1.5-1.6.1-1-.8-2.6-1.1-3.6-.2-.5-.5-1.1-.3-1.6 0-.1.2-.3.2-.3-16.7.6-33.5.7-50.2.3-6.7-.2-13.4-.4-20.1-.8-1 16-1.8 32-2.7 48.1M285.7 236h2.4c.2 0 .3-.1.5 0 .1 0 0 .2 0 .3v29c0 .1-.1.3 0 .5.2.3 1.2.1 1.5.3 1.1.6 2.4 3.5 4 2.8.3-.1.4-.5.7-.5.4 0 .9.7 1.3.8.5.1.7-1.9 1.1-1.5.2.2 0 .6.2.8.5.5 1.4.5 1.8 1.3.2.4-.3 1.5.2 1.8.9.5 2.1-.1 2.9 0 1 .1 2 1.2 3.1 1.2.5 0 1.2-.4 1.8-.3.5.1 1.1 1.5 1.8 1.3.9-.3.9-.9 1.5-1.1.2-.1 3.3-.4 3.3-.3.6.4-.3 1.5.3 2.1.4.3 1.5.1 1.8.5s-.6 1.2 0 1.5c2 1.1 3-1.9 3.9-1.7 2 .5.4.8.9 1.3.1.1.3 0 .4 0h.8c.1 0 .3-.1.4 0 .3.2 0 1.1.5 1.3 1 .2 1-1 1.5-1.1.3-.1.4.5.7.5.2 0 .4-.8.6-.8.7 0 0 1.9.8 2.5.1.1.3.4.4.3.2-.2 1-1.6 1-1.6l-.5-.5c0-.1.8.1.9 0 .8-.7-.1-1.8 1.3-1.9.8 0 .5 1.2 1 1.5.1.1 2 .3 2.2.2.2-.2.4-1.7 1.1-1.1.2.2-.1.8 0 1 .2.3.9.2 1.1.5l.2.5h.9c.1 0 .3-.1.5 0 .1 0 1 1.5 1.2 1.2s.2-.9.4-1c.2-.2.9.1 1.1 0 .3-.2.3-.9.6-1.1.4-.3 1.3-.2 1.8-.3.3-.1.9-.8 1.1-.8s1.8.9 2 .7l.2-.8c.1-.1.2 0 .3 0 .9 0 1.7-.9 1.8-.9.6 0 .9 1 1.4 1.2.3.1 1.7 0 2-.1s.6-.3.9-.6c0-.1-.1-.2 0-.3.1 0 .1.2.2.2.4 0 0-.9.4-1.1.8-.3 1 .5 1.4.7h.7c.3.1.5.6.7.7.4.3.4-.1.7 0 .3.1.2.6.5.8.1.1.3-.1.4 0 .3.1.4.8.7 1 .5.3 1.1.1 2 .6.2.1 1.1.5 1.4.4.2 0 .3-.4.4-.3.4.2 1.4.4 1.4.4-.3-6.2-.5-12.3-.8-18.5-.2-3.6-.1-7.3-.8-10.9-.6-3.2-1.4-6.4-2.1-9.6-.2-1.1-.5-2.1-.7-3.2-.1-.6-.4-1.8-.4-1.8-.2-2.6-.4-5.2-.5-7.8 0 0-2.4.2-3.6.2-2.3.1-4.5.3-6.8.4-7 .4-14 .7-20.9 1-20.8.8-41.5.9-62.3.4-4.2-.1-8.5-.2-12.7-.4l-.3 7.8c9.2.3 18.5.6 27.7.7 2.4-.3 5.1-.3 7.7-.3M578.5 160.4c.1-.2.2-.4 0 0M593.2 158.3c.2.2.4 1.1.5.8s0-.6-.1-.9c-.1 0-.3 0-.4.1"/><path class="st0" d="M538.8 160.3l.8-.2.2-.9c.2-.5.9-.9 1.1-1.4.2-.4.1-1.1.7-1.3.4-.1.9.6 1.3.2.4-.4.4-1.4.8-1.8l.5-.4c0-.1-.2-.1-.3-.2-.1-.3-.1-.9.2-.9 1.1.2.1.4.7.9s4 0 4-.8c0-.2-.5-.2-.5-.4s.5-.2.5-.4-.5 0-.5-.1.7-.7.8-.8h.9c.4-.2.4-1.1.9-1.3 1.1-.5 1.7.7 2.6.9.3.1 1.9-.7 2-.6.2.7-.4.5-.4.9 0 .7.8 0 .9 0 .1.1 0 .2 0 .3s-.1.2 0 .3c.2.1.6-.4.8-.2l-.2.9c.1.2.8.1.9.3.3.4-.2.9.4 1.2.9 0 3.2-.1 3.8.6.4.4-1.4 2 .7 2.5.7.2 1.5-.7 2.2-.4.3.1.5.7.9.8h.7c.1 0 .2-.1.4 0s.3.4.3.4.2-1.2.7-1.3c.2 0 2 .9 2 1 .1.3-.5 1.4-.8 2 .2.6.4 1.2.3 1.4-.1.3-.8.3-.9.5-.1.3.2.8.1 1.1l-.7.5c-.6.6.4.2.3.4l-.7.5c-.4.6.1 1.8.4 2.3.4.5 1.6.2 1.6-.5l-.4-.7c.2-.5.9.9 1.3-.1.1-.1 0-.3 0-.4 0-.1-.1-.4 0-.4s.2.2.2.4c.6.9 1.3 2.2 2.5 2.4s-.9-1.7-.2-1.8c.6-.1 1 1.5 1.3 1.8.5.5 1.5-.4 2.1-.3.3 0 1.8 1.2 1.8 1.1.1-.2-.5-.8.1-.3.1.1.2.2.3.2.2-.1-.2-1.3.1-1.1.5.4.6 1.9 1.7 1.7.1 0 .1-.2.1-.3-.2-1.6-1.3-1.7-1.4-2.4v-.4c-.4-.6-1 .3-1.5-.2-.2-.2-.2-.5-.4-.7-.3-.2-.8-.1-1.1-.2-.9-.4-2-1.6-2-2.6 0-.2.9 1.4 1 1.6.2.3 3.2 1.5 3.2 1.5 1.4-.8-1.5-2.1-1.9-2.7-.5-.7-.4-2-1-2.7-.2-.2-.7-.1-.6-.6 0-.1.7-1.4.4-1.5-.3 0-.5.9-.5.1 0-.2-.3-.3-.2-.5 0-.1.7 0 .5-.4-.1-.2-1.6-.6-.7-.9l.7.3c.4-.2-.9-.7-.3-1 .2-.1.6.1.9-.3.5-.6-2-.9-1.8-1.1.2-.1 1.3.2 1.3.1.2-.2-.7-1.3-.8-1.4-.1 0-.3.1-.4.1-.1 0-.2 0-.2-.1-.1 0-.2 0-.2-.1l-.1-.5s-1.2.3-1.2-.1c.1-.9 1.7.1 2.3-.3l.3-.4s-1.3-.1-1.2-.4c.2-.6.8.6 1-.1 0-.1-1.3-.7-.7-.9.4-.1.4.4.7.3.2-.1-.3-.4-.1-.5.1-.1.3 0 .4-.1.5-.6-1.8-.1-.7-.7.2-.1.4-.4.6-.4.4.2.3.9.9.9.1 0-.4-1.6-.4-1.9 0-.2.2-.5.3-.4.1.2 0 1.8.7 1.4.2-.1 1.2-1.6 1.2-1.7 0 0-1.4-.7-.5-1.7.3-.4.9.1 1-.1l.2-.6c.2-.2-.1 1.6-.1 1.7 0 .1 0 .3.1.2.4-.1 1.2-1.9 1.4-2.4.1-.1 0 .3 0 .4 0 .3-.5.9-.4 1.1 0 .2.6 0 .6.2 0 .1-2.1 1.3-1.1 1.7.4.1 1-.2 1.4-.1.3.1-.6.3-.9.4-.3.1-1.9.4-2 .6-.1.2.2.3.2.5l-.5.4c-.2.4-.6 2.4-.4 2.9l.5.4c.1.2.2 1.1.4 1.2.8.4.2-1.4.2-1.4.1-.4.2-.2.4-.1.1.1.8-.6.7-.2-.1.6-.5.7-.7 1-.1.2.7.5.3 1-.7.8-1.4-.2-1.7.4-.1.2-.1 2.1.1 2.1.1 0 .3-.1.4-.2l-.4-.4c.2-.2.6 0 .8-.2.1-.1-.1-.6.2-.7 1.1-.3.4.7.9.9l.2-.6.2.5c.2.1.7-.2.7.1 0 .5-1.1.4-.7 1.3.3.5 1.2-.6.6.2s-1.1-.9-1.7-.4c-.6.4-.5 2-.1 2.5.2.2.1-1.8.3-1.7l.1.7c.2.1.6-1.2.9-.4 0 .1-.5 1.2.3 1 .3-.1-.1-.5.2-.6l.2.5c.3.1.6-.4.8-.2l-.4.7c.1.2.4-.3.6-.2.1 0 0 .2.1.2.1.1.2.2.3.2.7.2 1.7-1.2 1.4-.1-.2.8-1.7.8-2.3.6l-.2-.5c-.2 0-.3.3-.5.4-.2.1-.6 0-.6.2-.1.8.2.4.3.2.2-.4.1-.2 0 0 0 .1-.1.2-.1.3-.4 1 1-.2 1-.2.1 0 .2 0 .2.1.1.3-.3 1.3-.6 1.6 0 0-1.1-.1-1 .3 0 .2 1.7 1.8 1.8 1.8 1.4-.2-1.1-.7.7-.4.4.1 2 1.4 2.2.8.2-.5-.3-.5-.4-.8 0-.1.4-1.1.6-1 .6.4-.7 1.1.4 1.4.6.1.4-2.2 1-2.4v.4c-.1.4-.3 1.2-.2 1.6.1.7 1.1.2 1.2.4.1.1-.2.1-.3.2-.6.5-1.2.8-.6 1.7.3.4.3-.6 1-.6.9.1 0 .7.2 1s.8-.8.9-.5c.4.7-1.4 1.6-.9 2.1.1.1.6-.4.5.1 0 .2-.4.2-.3.4l.5.1.4-.7c.2-.2 1.3-.7 1.8-.6 0-.1.1-.2.1-.3.3-.8 2.3-1.2 3-1.5.3-1.4-.6-.4.5-1.8.4-.5-.5-2.3.5-2.6.1 0 0 .2 0 .3s-.1.2 0 .3c.6.3.8-2.1.6-2.1-1.4-.4.1 0-.6-.6-.2-.1-.8.1-.7-.1.2-.4.9.1 1.1-.1.1-.1-.1-.1-.2-.2-.4-.5-.1 0 .2-.3.1-.1.1-.2.1-.3-1.8.6-3.7 1.2-5.5 1.8-.3.1-1.9.8-2.1.7-.1 0-.9-2.7-1-3-1-3.1-2.1-6.1-3.2-9.1-.5-1.4-1.1-2.9-1.6-4.4-.2-.6-.4-1.2-.7-1.8-.1-.1-.2-.4-.2-.4-14.3 4.4-28.8 8.6-43.3 12.4.2 1 1.6 7 1.9 7.4.2.6.8-1.1 1-1.3M592.7 166.9c.2-1.1.3-2.2.5-3.2.1-.5.1-.9.2-1.4 0-.1.1-.6.1-.5-.1 1.4-.3 2.8-.5 4.2-.1.5.1 1.3-.5 1.5-.1 0-.3.2-.3.1 0-.3.4-.5.5-.7M630.4 85.4s0 .1 0 0M622.9 97.1c.2-.1.3-.3.4-.4-.3.2-.5.3-.7.6 0-.1.2-.2.3-.2"/><path class="st0" d="M634.5 88.7c-.6-1.5-2.3-4-4.1-4-.1 0-1 .7-1 .8 0 .2.2.2.4.3.1 0 .1-.1.1-.2.1-.1.1-.2.2-.2-.2.2-.5.6-.3-.2l1-.1c.3.2.4.9.7 1.2.5.5 1.7.6 1.7 1.6s-2.7 2.6-3.5 2.8c-3.2.7-1.7-1.2-2.5-2.1-.2-.2-1.5.2-1.9-.1-.2-.2 0-3.2-1.8-3.5-1.9-.3-1.3 1.1-3-.8-.2-.3-1-.6-.8-1.1.1-.6.9-1 1.1-1.5.1-.4-.4-.9-.1-1.4.3-.6 2.3-.8 2.3-1.5 0-.3-1-.1-1.1-.1-.3-.1-.3-.7-.8-.5-.2.1-.2.3-.3.4-.1.1-.2.1-.4.1-.9.3-2-2-2.2-2.5-2 .2-1.3.7-2.6 1.8-.3.3-.7 0-.8.6l.1.8c0 .1-.2.1-.3.1-.6.2-.3.8-.7 1.1-.8.7-10.9 3.5-12.7 4.1-2.9.9-5.9 1.9-8.8 2.8.1 2.7.2 5.5.4 8.2 0 1.1-.2 2.5.7 3.1 1.2-.4 6.6-2.4 7.5-2.3.3 0 .1.5.5.4.4-.2 0-.4.2-.6.3-.3 1.9-.4 1.9-.4 1.4-1.1 3.8-1.6 5.6-2.3.7-.2 2.3-1.2 2.9-1.1 0 0 .1.1.1.2.6-.2 4.5-1.7 4.5-1.7.1.1.1.3.2.4.7 1.8.4.8 1.1 1.3.4.3.2 1.2.6 1.5.2.2.4.3.7.4v-.1.1c.3.1.7.2 1.1.3.1-.1.1-.2.2-.3.2-.2 0-.6.1-.8.1-.1.1 1.1.1 1.1v.1c.3.1.5.2.6.3.4.3.6 1.3.8 1.8 0 .1 0 .1.1.2v-.1-.6c.1-.1.3.2.5.1.1-.1 0-.2 0-.3s-.1-.2 0-.3c.2-.1.3.2.2.5.5-.3 1.1-.5 1.4-.8.3-.3.5-.9.8-1.2.1-.1.1-.2.2-.1 1.8 1.2 0 2.6.2 3.8 0 .1.5-1.4 1-2.4.5-.9 2.6-1.4 2.6-1.5-.1-.2 0-1 .1-1.2.2-.2 4.7-3.3 4.8-3.3.7 0 .2 1.2.5 1.2.4.2-.1-2.1-.1-2.3"/><path class="st0" d="M629.4 95.8c.1 1.2 1.4.9 1.2 1.5 0 .2-1 .7-1.1.8-.3.2-1.2 1.1-1.5 1.1-.2 0-1.6-.5-1.1-.7 1.3-.5.8-1.9 1.7-2.6.1-.1.3 0 .4 0 .1-.1.3-.1.4-.1M416.7 56.7c-1.6 1.3-2.3 2.9-3.2 4.2-.1.2-.5 2-.7 2-.1 0-.9-1.1-.9-1.2 0-.6.9-.9.6-1.8 0-.1-.1-.2-.2-.2-1.1.4.7.8-.1 1.3-.1.1-.2.1-.4.1-.1 0-.2-.5-.2-.5-.5-.2-1.3.6-1.5-.3-.1-.4 1.2-3 1.5-3.4.5-.7 1.6-.9 2.1-1.4.2-.1.1-.5.3-.6.4-.3 1.3-.3 1.7-.5.1-.1.3 0 .4 0H417.3c.2-.1.4-.4.7-.4.2 0 1.3.6 1.2.9-.1.3-3.3.5-3.3 1 .1.8 1-.5.8.8M389.7 67.8c.1.2-1.6 2-1.9 2.1-.1 0 0-.2 0-.3 0-.5.6-.8 1-1 .2-.3.6-.6.9-.8M462.5 65.1c.7.3 2.5.9 1.7 2.1-.1.2-.9 0-1.1.2-.1.1.4 1.4-.3 1.4-.1 0-2.1-2.6-2.3-2.9-.1-.1-.2-.2-.2-.3.2-.3 1.9-.4 2.2-.5M466.1 67.6c.5.2.9.2 1.2.7.2.4 1.3.8.6 1.6-.3.3-5.2.6-4-.5.4-.4 1.3-.2 1.7-.6.7-.7-1.1-.8.1-1.1.1 0 .3-.1.4-.1M469.7 68.7c2.2.3-.1 2.7-1.3 1.9-.7-.5.7-2.1 1.3-1.9M488.1 66.3c.1.5-.5 1.5.5 1.2.2 0 .4-.3.5-.1.3.5-1.3 5.6-2.6 4.9-.2-.1-.1-.5-.3-.5-.1 0-1.1.5-.2-.3s-.4.2.5 0l.2-.6c.1-.2 1.4-1.4.8-1.5-1.1-.1-1.5 2.2-2.2 2.7-.7.4-2.5-.7-3.2-.9-.7-.2-1.7 0-2.1-.1s-2.2-1.1-2.7-1c-.1 0-.2.3-.3.3-.6.1-2 .1-2.7-.2-.4-.2-3.1.1-3.2-.1s0-1.3.3-1.4c.4-.2.9.8 1.2.5.2-.2-.1-.7.2-.8.3-.1.5.4.8.4.1 0 .2-.2.3-.3 0-.1-.1-.2-.1-.3.2-.2.6 0 .9-.2.1-.1-.1-.4.1-.6.9-.6.2 1.2.3 1.3.5 1.1 2 .3 2.1.3l.5.4c.4-.1.2-.7.7-.1.1.1.4.4.5.2 0-.1 0-1-.3-.9-.1 0-.1.3-.3.3-.1 0-.3-.1-.5-.4-.1-.3.5-.5.6-.7s0-.5.2-.6.3.6.5.4c.7-.7-.1-.7 1.2-1.3.8-.3.1.4.7.6 0 0 .6-.4.7-.4.3.1.6 1.7.9 1.7.2 0 .6-3.2 2-2.9.9.2.3.8.6 1.2.2.2.9-.2 1 .3.1.4-.4 1.8.5 1.8.1 0 .2-.1.2-.2.2-.1 0-3.2 1.2-2.1M432.3 86.9c0 .6-.5.8-.5 1.3 0 .3.4.6.3.8-.1.3-.6-.2-.5.3 0 .2.5.2.5.5l-.5.1c-.1.2.4.3.3.5-.1.1-.3 0-.4.1-.2.1-.8 1.8-.6 2 .1.1.4.1.4.2l-.5.3c-.2.3-.2 1.8-.8 2-1.2.3-1.3-1.8-1.1-2.4.3-.8.7-1.2.9-1.5.2-.5-.2-1.5.1-1.9.3-.3.9 0 1.2-.7.1-.2-.1-.6.1-.8.1-.3.1-.8.4-.9 0 0 .6 0 .7.1"/><path class="st1" d="M165.1 102.4c-1.7-.2-1.7-4.4-3-4.4-1.6.1-.8.5-1.1 1.2-.2.3-.5 0-.7.6-.3.9.2.7.5 1.3 0 .1-1-.4-1.1-.4-.5-.2-1.2-.2-1.7-.1-1.4.3-.8 0-1.8-.4-.5-.2-1.4.2-1.7.3-.5.1-1.9-.7-2.3-.9-1.3-.5-1.2 1.7-2.1 1.5l-.5-.6c-.7-.4-2.5-.9-3.3-.5-1.2.5-.9 1.7-1.2 1.7l-.3-.6c-.4-.4-1-.7-1.3-1.3-.2-.3.2-.8.2-1-.1-.4-.5-.8-.6-1.2-.1-.3.3-.5.3-.8 0-.5-.3-1.7-.6-2.2-.7-1.5-1.9-.2-2.2-.4l-.1-.8c-.2-.3-1.6-1-1.2-1.8.2-.4.8-.6.8-1.2 0-.3-.3-1.4-.5-1.7l-.5-.1c-.3-.4 0-1.2-.3-1.6l-.6-.6c-.3-.6 0-1.5-.2-2.2-.1-.2-.4-.4-.5-.6-.1-.4.5-.9.4-1.3l-.6-.6c0-.5.8-.5.4-1-.3-.3-1.2-1.6-1.4-1.7-.6-.3-1.3 1.3-2 1.7-.4.2-1-.1-1.3 0-.5.2-.5 1-1.3.8s-.6-1.2-1.2-1.6c-.2-.1-.5-.1-.7-.1-.1 0-.4 0-.4-.1.2-.3.1-.8.2-1 .2-.4 1-.4 1-1.2 0-.4-.6-.8-.5-1.2.1-1.4 1.9-.3 2.1-1.5 0-.2-.3-.4-.3-.6l.3-.7c-.1-.4-.8-.3-.7-1.2 0-.3.5-.6.5-1 0-.2-.5-.7-.4-.9.1-.2.6.1.8-.1s0-1 .1-1.3c.3-.9 1.2-1.8 1.4-2.7l-.2-.8c.3-.6.6 0 .7-.7 0-.2.8-1.6.7-1.7-.6-.6-1.8.1-2.7-.2-1.1-.4.2-1.6-1-1.8l-.8.4c-.4-.1.1-.9 0-1.1-.1-.2-.5 0-.7-.1-.8-.6-.3-1.5-.5-2.2-.2-.9-1.1-1.2-1.2-1.3V56c-.1-.3-.6-.6-.7-.9-.4-.9-.7-2.1-1.3-2.9-.4-.6-1.3-.7-1.8-1.2-.3-.3-.2-1.1-.5-1.4-.3-.4-1.3-.7-1.4-1.1-.2-.9 1.1-.1 1-.6 0-.2-.8-1.2-.8-1.2 0-.3.8-.6.9-.9 0-.2-.4-.4-.4-.6l.2-.8c0-.4-.7-.9-.8-1.2-.2-.4.1-1-.1-1.3-.1-.3-.6-.4-.8-.7-.2-.3-.8-1.7-.8-2-.2-1.2 1.8-8.6 2.2-10.4.2-1 .5-2.1.7-3.2.1-.6.4-1.8.4-1.8-3.4-.7-7-1.9-10.3-2.6l.2.5s-.4.7-.6 1.3c-.2 1.2-.5 2.3-.8 3.5-.8 3.5-1.5 7-2.3 10.5-1.3 6.2-2.7 12.3-4 18.5-.4 1.7-.4 3.6-.9 5.2-.1.3-.5.7-.6.9 0 .6.7 1.2.7 1.8 0 .3.1 1.4 0 1.6-.1.3-.7.6-.8.9-.1.4.7 1.7.8 2.2 0 0 .2 2.2.9 2.9l.5.1c.9.7 2.3 3 1.9 4.2-.3 1.2-2.3 2.3-3 3.4-.5.8-.8 1.9-1.3 2.7-.5.6-1.3 1.1-1.7 1.8-.6 1.2-.5 2.7-1.9 3.6-.3.2-.9.1-1.2.3-.8.6-1.1 2.1-1.8 2.8-.3.3-.9.5-1.1.8-.2.2-.4 2.8-.3 3.2.3.8.5.1.9.2 1 .2-.2.3.4.6.3.2.5-.2.8-.1.3.2 0 .6 0 .8.1.3.7.6.8 1 .1.9-.9.5-1.1.8-.1.1.1 1.3-.1 1.8s-.3 1.2-.7 1.6c-.2.3-.8.5-1 .9-.3.6-.3 1.6-.5 2.3-1.8 8.6-3.6 17.1-5.3 25.7 11.4 2.4 22.8 4.7 34.3 6.7s23 3.8 34.5 5.4c1.9-13.2 3.7-26.2 5.5-39.2M377.7 317.5l.7-.3c0-.2-.7-.7-.8-1-.1-.4.5-1 .4-1.3-.1-.1-.8-.1-.9-.2-.2-.2-.1-.8-.3-1-.1-.2-.9-.5-1-.7-.1-.3.4-.5.4-.8 0-.5-1.5-1.1-1.5-1.7 0-.1.2-.2.2-.3 0-.1 0-.3-.1-.4-.3-.4-1.2-.4-1.4-1-.1-.4.2-1.1.1-1.5-.2-.9-.7-2-1.4-2.7-.5-.5-1.8-1-2.2-1.6s-.3-3.7-.3-4.6c-.3-3.7-.5-7.4-.8-11-.1-1.6-.1-7.1-.6-8.2-.3-.6-2.2 0-2.5-.1-1.6-.2-.2-.1-1.1.3-.2.1-1.1.2-1.1-.2 0-.1.3-.2.2-.3-.1-.1-.7 0-.9-.2-.2-.2-.3-.5-.5-.7 0 0-.9-.2-1.4-.4-.1-.1-.3.3-.4.3-.3 0-1.1-.3-1.4-.4-1-.6-1.5-.4-2-.6-.3-.2-.4-.8-.7-1-.1-.1-.3.1-.4 0-.3-.1-.2-.7-.5-.8-.2 0-.2.4-.7 0-.2-.2-.5-.6-.7-.7h-.7c-.4-.2-.6-1-1.4-.7-.4.1 0 1-.4 1.1-.1 0-.1-.2-.2-.2s.1.2 0 .3c-.2.3-.5.4-.9.6-.3.1-1.7.2-2 .1-.5-.2-.8-1.2-1.4-1.2-.1 0-1 .8-1.8.9-.1 0-.2-.1-.3 0l-.2.8c-.3.2-1.8-.7-2-.7-.1 0-.8.7-1.1.8-.5.1-1.4.1-1.8.3-.3.2-.3.9-.6 1.1-.2.2-.9-.1-1.1 0-.2.2-.2.8-.4 1-.2.3-1.1-1.2-1.2-1.2-.1-.1-.3 0-.5 0h-.9l-.2-.5c-.3-.2-.9-.2-1.1-.5-.2-.2.1-.9 0-1-.7-.6-.9.9-1.1 1.1s-2.1-.1-2.2-.2c-.4-.3-.2-1.5-1-1.5-1.4 0-.5 1.1-1.3 1.9-.1.1-.8-.1-.9 0l.5.5s-.9 1.4-1 1.6c-.1.1-.3-.2-.4-.3-.8-.6-.1-2.5-.8-2.5-.2 0-.4.8-.6.8-.3 0-.4-.6-.7-.5-.5.1-.6 1.3-1.5 1.1-.5-.1-.2-1-.5-1.3-.1-.1-.3 0-.4 0h-.8c-.1 0-.3.1-.4 0-.6-.5 1-.8-.9-1.3-1-.3-1.9 2.8-3.9 1.7-.6-.4.2-1.1 0-1.5-.3-.4-1.4-.2-1.8-.5-.6-.5.3-1.7-.3-2.1 0 0-3.1.3-3.3.3-.6.2-.6.8-1.5 1.1-.7.2-1.2-1.1-1.8-1.3-.5-.1-1.2.3-1.8.3-1.1-.1-2.1-1.2-3.1-1.2-.8-.1-2 .5-2.9 0-.5-.3 0-1.4-.2-1.8-.4-.8-1.3-.8-1.8-1.3-.2-.2 0-.6-.2-.8-.4-.3-.5 1.6-1.1 1.5-.4 0-.9-.8-1.3-.8-.3 0-.4.4-.7.5-1.6.6-2.9-2.2-4-2.8-.3-.2-1.3 0-1.5-.3-.1-.1 0-.3 0-.5v-.3-5-16.9-5.5-1.3c0-.1.1-.2 0-.3s-.3 0-.5 0h-2.4c-2.6 0-5.2 0-7.9-.1-9.2-.1-18.5-.3-27.7-.7-.7 0-.5 2.9-.6 3.7-.2 4.2-.3 8.3-.5 12.5-.7 17.8-1.8 35.6-2.5 53.4 0 0-2.2-.1-2.8-.1-2.8-.1-5.6-.2-8.4-.4-9.6-.5-19.1-1-28.7-1.8-2.3-.2-4.6-.4-6.9-.5-.3 0-2.1-.4-2.3-.2 0 0 .4 2.1.7 2.6.2.3.8.6 1.1.9 2.7 1 2.3 3.2 3.7 4.9 1.1 1.4 3.3 2 4.6 3.2 2.5 2.3 4.1 5.2 6.7 7.4.9.7 2 1 2.8 1.7 1.1.9 2.8 2.8 3.5 4 .4.7.2 1.6.6 2.3.4.9 1.5 1.7 1.7 2.7.3 1.1-.5 2.5-.2 3.6.2 1 2.2 5 3 5.8 1.5 1.8 7.1 5 9.4 6.1.9.5 2.1.7 3 1.1.8.4 1.3 1.4 2 1.9.5.3 3.7 1 4 .7.2-.3.2-1 .5-1.2.2-.2 1.8-1.2 2.4-1.6.2-.2.7 0 .8-.3.2-.5-.4-1.3-.2-1.8.1-.4.8-.6 1-1 .8-1.3.7-4.4 2.3-5.3 1-.6 3 .5 4-.1.5-.3.5-1.6 1-1.8.5-.2 5.4 1.2 6.3 1.4 1 .2 3 .9 4 .7.1 0 .6-.8.7-.8v.8c.1.1.3 0 .5 0h.9c.2 0 .3-.1.5 0 .3.2 1.1 1.9 1.4 2.4.3.6.6-.2.9-.1.5.2 1 1.4 1.4 1.8.4.3 1.1.4 1.4.8.2.2 0 .8.2 1 .8 1 2.5 1.3 3.3 2.3.2.2 0 .8.2 1 .3.4 1.1.4 1.4.8.8 1.1.8 3.1 1.4 4.3.5 1 1.2 2.4 1.9 3.3.4.5 1.2 1 1.4 1.5V360.5c.7 2.3 3.3 3.2 4.5 5.1.2.3.1.7.2 1 .4.6 1.2.9 1.7 1.5.6.8.5 1.6 1.3 2.3.4.4.9 1 1.3 1.3.9.5 2.5.4 2.9 1.5.5 1.2-.4 3.2.3 4.3.1.3.6.2.7.5.4.8-.8 2.2-.5 3 0 .1.2.1.3.2 1.4.8.7 1.6 1.4 2.3.2.2 1 0 1.2.2.7.6.9 3.6 1.5 4.5.2.4 1.1.6 1.2 1 .1.3-.4 1-.2 1.3.4.8 1.9.2 2.5.2.6.1 1.5.6 2.1.8 1.4.5 2.8 1 4.1 1.6 1.1.5 2.1 1.5 3.2 1.9.8.3 2.7.1 3.2.4l.3.5c1.2.4 2.9-.8 4.2-.6 1.7.2 5.4 3.5 6.3 3.3.4-.1.1-1.1.2-1.3.1-.2 2.8-.8 3.2-.9-.2-2.1-1.2 0-1.7-.2-.3-.1-.3-1 0-1.2 0 0 .9.1.5-.3-.3-.3-.9 0-1.2-.5-.1-.2-.6-1.5-.5-1.7 0 0 .5-.6.2-.8-.2-.1-.3.3-.5.3-.5-.1 0-.9-.3-1.2-.1-.1-.1-.2-.3-.2-.1 0-.2.1-.2 0-.1-.1-.1-.6-.3-.7h-.5c-.5-.9.6-1.4.4-2-.2-.8-.8-3.1-1.3-3.7-.2-.2-.7-.2-1-.5-.1-.1.2-.3.2-.5v-.5c.4 0 .6 1.2 1 .5.1-.3-1.5-.7-1.3-2 .1-.7 1.2.4 1.5-.3.1-.2-.6-1.1-.5-1.2.1-.2.6-.1.7-.3l.3-1.9c0-.1-1.9.2-3.3-.3-.1 0-1.6 0-1.5-.1s.3-.1.5-.1c.4 0 1.4-.5.4-.5-.1 0-.3.1-.4 0s.5-.1.5-.3c0-.3-.8-.7-.8-.7 0-.7.6.1 0-.5-.1-.1-.3-.2-.2-.2.4-.5 1.5 1.8 1.8 2 .4.3 1.5-1.2 1.9-1.5.1 0 .2-.2.2-.1v.8c.1.2.6.1.5.2h-.7v.5c-.1.2-.5.1-.5.3 0 .1.7-.3.7-.3.3-.1 1-.3 1.2-.5.6-.7 1-3.4 1.5-4.4.1-.2.6-1 .5-1.2s-.4-.1-.6-.1c-.4-.1-.7-.3-1.1-.6-.8-.6-.1-1.1-.3-1.3-.3-.4-1.9 1.1-1.9-.4 0-.7.7.2.7.2.1 0 .1-.2.2-.3.5-.2 1 .2 1.5.2.4 0 .8-.6 1.2-.5 1 .1.2 1 1 1 .2 0 1-1.7 1.1-1.9.3-.5 1.2-1 1.4-1.4 0-.1-.1-.2-.1-.2-.1-.2.2-1-.2-1-.3 0-1.5 2.4-2.3 1-.4-.6.6-.5.6-1 0-.2-.5-.3-.5-.5 0-.5.9 0 1 0 .5 0 1.1-.8 1.4-.8.5 0-.3 1.7.8 1.2.9-.4-.3-2 .6-2.3.1 0 .2.1.2.2 0 .2-.5.4-.5.5s.2 1.4.5 1.2c.3-.2 1.6-1.3 1.6-1.6.1-.3-.2-.5-.3-.8 0-.3.3-.7.2-1s-.6-.5-.8-.7c-.3-.6.7.3.6-.5-.1-.4-1.2-1.1.1-.8.3.1.3.5.5.7.1.2.6.3.7.5s-.1.8 0 1c.4.5 3.9-1.2 4.2-1.7.2-.2-1.1-1-1.2-1-.2 0-.6.6-.9.5-.1 0 .8-.8.7-1-.2-.6-1.1-.1-1.5-.5-.2-.1 0-.8 0-1-.1-.2-1.2-.9-.8-1.2.9-.8 1.2.7 1.5 1h.7v.5c.2.2.5-.3.7-.3.8.2-.5.6-.4.8 0 .1-.1.2 0 .2s1.1-.5 1.2-.6c.2-.3-.3-.4-.3-.8 0-.3.4-.7.2-.9-.1-.1-.3.4-.5.3 0 0-.1-.8.1-.8.9.3.5 1.5 1.1 1.7s1.6-1.5 2.4-.9c.3.2-.5.7-.4.8.1.1 1.1-.3.9.2 0 .1-1.1.5-.8.5.7.2 2.7-1.6 3.3-.9.1.1-.1.2-.1.3-.1.4-2.6 1.8-2.4 1.8 1.4-.5 2.8-1.6 4.2-2.2.2-.1 1-.4 1.1-.6 0-.1-1.8.8-1.9.8-.5 0-.6-.5-.5-.8.4-1.2 2.9-.6 3.8-1 1.4-.5 3.1-1.7 4.4-2.5.3-.2 3.1-2.6 3.2-2.7 0 0-.5-2-.6-2.2s.5.1.7.2 1-.4 1.1-.6c.4-.5.3-1 .8-1.3.3-.3.9.1 1-.3v-.8h.8c0-.1-.1-.2-.2-.3-.3-.2-.5-.6-.8-.6-.1 0-.1.6-.5.3-.8-.8.5-1 .4-1.3-.2-.3-1.2.1-1.4-.4-.3-.5.5-.8.4-1 0-.1-.2-.1-.4-.2-.8-.5.1-.4 0-1 0-.2-.5 0-.7-.2-.1-.1-.2-.1.1-.3.9-.5 1.5 1 2.1.6.8-.5.5-2.1 2-1.9.1 0 .2.2.4.2.7.4.2 2.7-.4 3.3 0 .1-.2 0-.2 0-.1 0-.2-.1-.2 0s.1.2.2.2c.6.1 1.5-.5 2.1-.6s1.5.3 1.9 0c.1 0 .2-.2.2-.1.1.1-.1.3-.1.4-.2.9-.5 0-1 .2-.7.2-1.6 1.2-2 1.7-.2.2-1.4.6-.9 1.1.3.3 1.6-1.2 1.8-1.4.9-.6 2-1 2.9-1.5 1.7-.8 3.5-2.2 5.3-2.7.6-.2 2 .2 2.4-.2.6-.5-.9-1.4-1.1-1.7-.3-.5.8-2.7 1.2-2.9.4-.3.7-.2.9 0 1.5-2.3.7-3.2 0-5.6-.3-.9.5-.9.6-1.6.1-.5-.5-1-.6-1.5 0-.5.5-.5.6-.8l-.1-.8c.1-.3.7-.5.9-.8.5-1 .3-2.1.5-3.1l.4-.8c.1 0-.7-.2-.4-.8"/><path class="st1" d="M123.6 25.4c-.2 1-.5 2.1-.7 3.2-.4 1.8-2.4 9.2-2.2 10.4 0 .4.6 1.7.8 2 .2.3.6.4.8.7.2.4-.1 1 .1 1.3.2.4.8.8.8 1.2l-.2.8c0 .2.5.4.4.6 0 .3-.8.6-.9.9 0 0 .8 1 .8 1.2.1.5-1.3-.3-1 .6.1.4 1.2.7 1.4 1.1.3.4.1 1.1.5 1.4.4.5 1.4.5 1.8 1.2.5.8.8 2 1.3 2.9.2.3.6.6.7.9l.2 1c.1.1.8.2 1 1.1.2.7-.2 1.8.6 2.4.2.1.6-.1.7.1.1.2-.3.9.1 1.1l.8-.4c1.1.2-.2 1.4 1 1.8.9.3 1.9-.4 2.5.2.1.1-.7 1.3-.7 1.5 0 .7-.4.1-.7.7l.2.8c-.2.9-1.2 1.8-1.4 2.7-.1.3.1 1.1-.1 1.3-.2.2-.7-.1-.8.1s.4.7.4.9c0 .3-.5.6-.5 1-.1.9.6.8.7 1.2l-.3.7c0 .2.3.4.3.6-.2 1.2-2 .1-2.1 1.5 0 .4.5.8.5 1.2 0 .7-.7.7-1 1.2-.1.2.2 1 0 1.3-.1.1.2 0 .4.1.2 0 .5 0 .7.1.6.3.4 1.3 1.2 1.6.8.2.8-.6 1.3-.8.3-.1 1 .1 1.3 0 .7-.3 1.4-2 2-1.7.2.1.9 1.1 1.2 1.4.4.5-.4.6-.4 1l.6.6c.1.3-.5.9-.4 1.3.1.2.4.4.5.6.2.7-.1 1.5.2 2.2l.6.6c.2.4 0 1.4.3 1.8l.5.1c.2.2.5 1.2.5 1.5 0 .6-.5 1.1-.7 1.5-.4.8 1 1.4 1.2 1.8 0 0 0 .7.1.7.3.2 1.5-1.1 2.2.4.2.5.5 1.5.5 2 0 .3-.4.5-.3.8.1.4.4.8.6 1.2.1.2-.3.7-.2 1 .3.6.9.8 1.3 1.3l.5.8c.4.1.1-1.2 1.2-1.7.8-.3 2.6.1 3.3.5l.5.6c.9.1.8-2.1 2.1-1.5.4.2 1.8 1 2.3.9.4-.1 1.2-.5 1.7-.3 1.1.4.4.7 1.8.4.5-.1 1.2-.1 1.7.1.1 0 1.1.5 1.1.4-.3-.6-.8-.4-.5-1.3.2-.5.6-.2.7-.6.4-.7-.5-1.1 1.1-1.2 1.3 0 1.2 4.3 3 4.5.1-.8 1-7.7 1.1-7.8 0 0 3.2.4 3.6.5 3.4.5 6.6.9 10 1.3 13.4 1.7 26.9 3 40.4 4 5.3.4 10.7.8 16 1.1 1.7.1 3.4.2 5 .3.7 0 1.5.1 2.2.1h.6c.2-4.9.6-10.2.6-15 .9-16 1.7-32.1 2.6-48.2-41.2-1.8-82.5-7-123.2-15.2 0 0-.3 1.2-.4 1.8M55.7 24.5c.9.1.5-2.7-.5-2.9-.3-.1-.4.7-.5 1 .2.7.7 1.9 1 1.9zM54.4 22.5c.1.2.2.2.2.1-.1-.2-.2-.4-.2-.5s0-.1-.1-.2c0 .3 0 .5.1.6zM54.3 20.3c.2.7-.4.7 0 1.6.1-.7.5-1.5.4-2-.1-.6-.7-.6-1-1-.1-.1.3-.1.4-.2.2-.2 0-.6.2-.8.3-.1 1.2 1.1 1.6.2.1-.2-.4-1.2-.5-1.5-.9 0-2.2 1-2.4 2 0 .6 1.2 1.2 1.3 1.7z"/><path class="st1" d="M113.9 21.5c-10.1-2.2-20.1-4.5-30.1-7.1-7.7-2-15.3-4-22.9-6.2-.6-.2-2.5-.8-4.4-1.4 0 .1 0 .1.1.2 0 .1.1.2.1.2-.2.2-.8.2-1 .5-.3.3.5.3.5.6s-.4.4-.4.7c0 .5.7 1.8.7 1.9 0 .3-.5.4-.4.7.2.7 2-2.1 1.7.2 0 .2-.3.3-.3.5-.1.7.8 1.6.2 2.2-.5.5-.4-.4-.9-.5-.1 0-.2-.2-.2-.1-.1.6 1.2 1.4.3 2.3l-.6-.2c-.1-.1-.1-.2-.1-.3-.3-.9-.2.4-.4.2-.2-.1.2-1 0-1.1-.7-.5-1.1.8-1.1 1.3 0 .8 1 0 1.2.1.4.1-.2.9 0 1.1.4.3 1.1.8 1.2 1.4.3 1.6-1.6-.4-2 1.3-.1.5.8 2.4 1.3 2.5 0-.1 0-.3-.1-.4 0-.2-1.3-2.6 0-2.6.8 0 0 2.9.8 3.5.2.1.5 0 .7.2.6.6-1.1.7-1.1.8 0 0-1.8 2.4-1.8 2.5 0 .3.2.6.1.9-.1.3-.9.5-1 .8l.4.7c0 .3-.5.3-.5.4-.1.1 0 2.8 0 3.3-.1 1-.9.2-1.3.7l.2.6c-.6.8-.7-1-1.3-.5-.5.4-1.9 3-3 2.5-.5-.2 0-1.7-1.2-1.4-.3.1-.9 1.5-.9 1.4-.1-.3.3-.6.1-.9-.2-.2-.8.1-.8.1s.8-.6 1-1.1c0-.1.2-.2.1-.2-.3-.1-1.2.7-1.6.8h-.1c.5-.8.9-.3 1.5-.8.4-.3.3-1.1.6-1.5.2-.2.8-.1 1-.2.2-.2.2-.8.5-.8s.2 1.1.1 1.2c-.1.2-.7.3-.7.6l.1.9c0 .1 0 .4.1.4.9-.3.4-.9.6-1.5.2-.8 1.3-.9 1.9-1.4 0 0-.6.8-.9 1.1-.2.3.5 1 .8 1 .8.1.1-.7.3-1 .1-.1.3 0 .4-.2.2-.2 0-.8.1-1.1.2-.3.6-.7.8-1 .1-.1.3-.2.3-.3 0-.2-.4-.2-.4-.4 0-.3.4-.6.2-.8-.1-.1-.3.1-.4.2-.2.1-1.7.5-.8 0 .1-.1.3-.1.3-.2.1-.2-.4-.2-.4-.4v-.8c.4-.9.2 1.2.9.4.4-.5-.2-1.1 0-1.5 0-.2.2.3.4.4l.5-.4c.7-.2.4.3 1.1 0 0 0 .2-2.5-.5-3-.2-.2.3.8-.2 1.3-.3.4-.4-.3-.6-.3-.4 0-1.8 2.2-2.2 2.4-.6.4-1.5.1-2.2.5-.8.5-1.5 1.5-2.1 2.2-.2.2-.6.3-.5.6.2.9 1.8.2 2.2.1.2-.1.8-.2.7 0-.1.3-3.8 1.2-3.6.3.3-1.8 3.2-2.8 4.1-4.1.3-.4 1.1-1.8 1.4-1.8.4.1-.6 1.5-.2 1.9.1.1.2-.2.2-.3.5-.7 1.1-1 1.6-1.6 1.4-1.5.1-2-.2-3.9 0-.5 1.3-.9.5-1.2-2-.7-.4 2.1-1.5 2.2-.2 0 .2-.3.3-.5s-.6-1.5-.8-1.6c-.8-.4-.4 1-.8.9-.2-.1 0-1 0-1.1-.1-.3-1-1-1-1.1 0-.2.9-.3.7-.4-.4-.1-1.2.6-1.6.6-.7 0-5.4-2.2-6.5-2.7-1-.5-1.4-1.1-2.2-1.9-.7-.6-1.6-.9-2.3-1.5-.8-.7-1.1-2.2-2.3-2.3-.9-.1 0 .8 0 1-.1 1-1.5 1.9-1.4 2.7.1.9-.5 3.6 0 4.2.8 1.1 1.4 2.4 1.3 4-.1 1-1.1 4-.9 4.7.1.2.5 0 .5.2.1.4-.4-.1-.1.8.4 1.2-.1 3.3-.4 4.4 0 .1-.2.3-.1.4.1.1.4-.8 1.1-.6.8.2.2 1.2.6 1.6.1.1.5-.2.6-.1.1.1-.1.2-.1.2l.8.2s.1.2 0 .2c-.5.3-2 0-2.4.4-.1.1.2.7.1.9-.1.1-.3-.2-.4-.3-.2-.1-.2-1.8-.5-1.1-.2.5-.1 1.3-.2 1.8-.2 2.3 1.2 1.1 2 1.5.5.3.3.9 1 1.1.2.1-.5.2-.6.1-.2-.1 0-.5-.2-.6-1.2-.4-.9 1.3-1 1.3-.2.1-.3-.6-.4-.4-.1.1.2 1 .2 1.2 0 .8-1 .8-.5 1.8 0 .1.1.2.1.2.4.2.3.5 0 0-.1 0-.1-.1-.2-.1-.6-.2-.4.5-1.2.3v-.4c0-.7.8-3.3.8-3.5-.3-1-1.1 2.7-1.1 2.8-.1.5-.2 1.2-.4 1.7-.1.2-.6.4-.4.6.2.2.7-.3.9-.2.2.1.3.8.5 1.2v.1c.4.5 1-.2 1.4-.1.1 0 .1.3.3.4.2.1.7-.3.8-.3 0 0 .4.7.8 1 .4.1 1 .1 1.3.2.1 0 .2 0 .3.1.5.3.5 1.8 1.1 2.2h.4c.2-.1.4-.2.5-.1v.1c.4 0 .9.1 1.2.3 2.1 1.7 2 4.6 1.7 7.1-.1.5-.4 1-.4 1.5 0 1.4 1.3 1.2 2.2 1.7.8.5 1.6 1.3 2.6 1.6.8.2 2.5 0 3.3-.2.6-.1 1.3-.8 1.9-.8.4 0 .8.5 1.2.6h1.9c.6.2 1.8.6 2.4.9.8.4 1.1 1.9 1.2 1.9.3.1.9-.5 1.3-.5.5 0 1 .6 1.5.7 1.1.1 2.4-.8 3.6-.7.6 0 .7.5 1.1.8.6.4 2.2.6 2.9.5.4-.1.7-.4 1.1-.5 1.1-.3 2.5-.3 3.7-.3.5 0 1.1.4 1.6.3.4-.1.9-.8 1.3-.8.3 0 .4.3.7.4.8.3 3.1.6 4 .7.8.1 1.2-.6 1.8-.6 1.3-.1 5.2 1.2 6.7 1.6 5.2 1.2 10.5 2.4 15.7 3.5-.1-.5-.6-1.3-.6-1.7 0-.3.7-.6.8-.9v-1.6c0-.6-.8-1.2-.7-1.8 0-.3.5-.7.6-.9.5-1.6.6-3.6.9-5.2 1.3-6.2 2.7-12.3 4-18.5.8-3.5 1.5-7 2.3-10.5.2-1.2.5-2.3.8-3.5 0-.4.3-1.6.3-1.6zM264.3 181.3c0-3.8.1-7.7.1-11.5 0-.4.1-4.1 0-4.1 0-.1-5.3-.1-5.9-.2-5.9-.2-11.8-.4-17.7-.7-20-1-39.9-2.6-59.8-4.9-2.3 20.7-4.5 41.5-6.8 62.2 17 1.9 34 3.4 51.1 4.5 5.6.4 11.2.6 16.8.9 1.9.1 3.9.2 5.8.2.8 0 1.5.1 2.2.1h.5c4.2.1 8.4.3 12.7.4.4-15.6.7-31.3 1-46.9M94 277c.6-.1 0-.7.2-1 .2-.4 1.1-.4 1.3-.8.1-.1 0-.2 0-.4v-.7c.1-2.3-2.7-1.1-2.7-2.8 0-.6.8-1.3.8-2 0-.6-.6-1-.7-1.4 0-.3.6-.6.6-.9 0-.1-.2-.2-.2-.3 0-.1.2-.2.3-.3h1c.4-.2.7-1.1.9-1.4.2-.2.6-.4.8-.6.3-.4.3-1.3.5-1.7l.5-.4c.3-.7-.4-1.6 0-2.4l.5-.4-.3-.8c.1-.4 1.2-.7 1.5-1s.3-.9.7-1.2c.7-.5 3.6-.8 3.9-1.9.1-.4-2-3.1-2.3-3.3-.1-.1-.3 0-.4-.1s0-.2.1-.3c.1-.3-.3-2.6-.4-3.1-.2-.8-1.4-1.8-1.3-2.4.1-.5-.4-.7-.5-1.1-.1-.5.3-1.5.3-1.5-13.9-17.7-27.1-35.9-39.6-54.6-3.3-5-6.6-9.9-9.8-15-.7-1.1-3.8-5.3-3.9-6.2-.2-1 .7-2.9 1-3.9.8-3.1 1.6-6.1 2.3-9.2 2.8-10.8 5.6-21.8 8.3-32.7-15.8-4-31.6-8.5-47.2-13.3.3 1.4-1.9 3-1.9 3.2s.8.6 1 .8c.3.6 0 4.8-.2 5.4-.4 1.3-1.7 2.4-2.4 3.7-.5.9 0 1.8-.4 2.6-.3.6-1.6 1.9-1.6 2.1 0 .1 1.3-.6 1.2.2 0 .3-1.5.2-1.8.8v.3c0 .1.1.2 0 .3-.2.2-.8 0-.8-.2.2-.6.4-.1.6-.6 0-.1-.2.1-.3.2-.6.4-.6.8-1 1.3-.6.8-1.8 1.6-2.1 2.6-.2.6.3 1.4.2 2 0 .4-.4.9-.4 1.2.2 1.1 1.9 2 2.2 3.1.1.3-.2.7-.1 1.1.1.4.7.7.9 1.1.3.6.8 2 .9 2.7 0 .3-.3.7-.3 1 0 .9.3 2.4.1 3.3-.2.7-1.4 1.7-1.7 2.8-.4 1.6.4 3 .2 4.6-.2 1.3-1 1.5-1 2.3.1 1.4 1.5 2.8 2 3.9.5.9.2 2.1.8 3 .5.8 1.7 1.4 2.1 2.3.2.4-.1 2.4-.1 2.4.1.1.2-.2.3-.2.5.1 1.2 2.1 1 2.4-.1.1-.3-.1-.4 0-.4.2-.5 1.8-.9 2.2-.1.2-.6.2-.5.4.4 1 .7-.5 1.1-.8.2-.1 0 .4 0 .6.2.3.6.6.9.9.5.5.5 1.7 1.1 2.1.5.4.2-.8.7-.1l.6.7c.2.2.9 1.4 1.3 1.2.1-.1 0-.3 0-.4v-.4c.1-.8.1.7.6.2.1-.1-.6-.9-.6-1 0-.3 1-.6.9-.8l-.5-.4c0-.2.4-.7.5-.9l-.1-.6c.5-.4.9.2 1.4-.4.2-.2.3.4.5.6.3.3 1.7 2.1 2 2.1.5 0 2.2-1.5 2.4-.9.2.4-1 .3.5 1.5 0 0 1.8.3 1.9.2.2 0 .6-.6.6-.4.1.6-1 .3-.8.9.2.5 1.9-.6 2.3-.4.1 0 2.2 2.5 1.3 2.2-.1 0-1.2-1.9-1.6-2.1-.2-.1-1.4.5-1.5.7 0 .1.4.2.3.4 0 .1-.9-.4-1-.4-.8-.4-1.5-.8-2.3-1.1-.8-.4-1.5 0-2.3-.3-.3-.1-.5-.7-.9-.8-.1 0-.2.1-.3.2-.6.3-1.3 0-1.5.1l-.4.7c-.1.1-.3-.2-.4-.1-.3.2.9 1.3.9 1.3.3.6-.7 1.2-.5 1.8l.7.6c.1.1.1.2.1.4 0 .1-.2.3-.1.4l.6.2c.3.3.1 1.6.2 2 0 1.6.2.8.5 1.7.1.1.3.4.1.5-.5.3-2.2-1.6-2.3-1.9l.1-.5c-.3-.4-1.4-.5-1.3-1.5.1-.7.8-1.1.8-1.1 0-.2-.3-.2-.3-.4s.3-.3.3-.4c.1-.8-1.2-1.1-1.6-.5-.3.6-.1 1.5-.4 2.1-.2.6-1.1 1.1-.8 1.9l.5.4c.2.2.1.4.1.7v2c-.1.6-.7 1.1-.7 1.7-.1 1 1.1 2.9 1.6 3.7.3.4 1.1 1.4 1.5 1.5.3.1.4-.2.7-.1l.3.4c.3 0 .4-.3.8-.3.2 0 1.2 2.6 1.1 3l-.4.7c0 .2.5.5.3.6l-.5-.4c-.4.1-.6 1.3-.9 1.6-.7.7-.7-1.3-1.8 0-.2.3.2.4.3.6 0 0 0 2.4-.1 2.7 0 .4-.5 1.2-.4 1.5.3.8 1.8 1.8 2.2 2.5s.2 1.9.6 2.6c.2.3.8.5.9.8.1.1 0 .3 0 .5v1.4c.2.8 1 1.4 1.2 2.2.1.4-.3 1.2 0 1.6.3.4 1.1.3 1.4.6.7.8.5 2.4 1.1 3.2.4.5 1.5.5 1.8 1 .1.1 0 .2 0 .4v.7c0 .2.4.2.3.4l-.5.1.1-.5c-.6.2-1.1 1.7-.8 2.2.7 1.3 2 .8 2.6 2s-1 2-1.2 2.9c-.1.4.4 1 .3 1.4s-.5.8-.5 1.2c0 .3.3.8.2 1.1-.2.9-1 .8-.9 1.9l.8.2c.2.1.4.4.5.7.2.3.1 1.2.3 1.4.4.4 3.6.4 4.4.6 1.2.3 1.9 1.3 2.9 1.8 1.2.6 3.3.5 4.3 1.1s1.4 2.1 2.3 2.7c.2.1.5 0 .6.2.6.8-.3 1.6 1.3 3 .5.4 3.3 2.5 3.7 2.5.9 0 2.6-.2 3.6.3.2.1 1.2 3 1.2 3.5 0 .6-.7.7-.6 1.5l.7.2c.2.1.5.7.8.7 0 0 .7-1.4 2.3-.3.8.5 1.1 1.8 1.7 2.5.3.3.8.5 1.2.8.6.6.8 1.5 1.3 2.1 2 2.7 3 2.9 3.8 6.6.2.9.7 2.9.3 3.8-.1.3-.5.4-.6.7-.1.3.3.8.2 1.1 0 .2-.8 1.4-.3 1.5.2 0 .5-.9.7-.9s1.4 1.9.9 2c-.3.1-1.1-2.1-1.1-1.3l.5.6c.1.3.1.8.2 1.1 0 .3.1.5.1.8 7.7 1 15.4 1.9 23.2 2.7 1 .1 8.5.6 8.8.9l.2.2.3-.2c1.3-1.4 1.8-.3 2.8-.4"/><path class="st1" d="M111.6 213s-.2.9-.2 1.4c-.2 1.1-.4 2.1-.6 3.2-.3 1.6-.7 6.6-1.4 7.7-.2.4-.8.6-1 .9-.3.4-.3 1.2-.7 1.5-1.7 1.2-2-2.1-2.4-2.3-.1-.1-.3 0-.4 0h-.9c-1.5-.4-1.1-1-3-.3-1 .4-1.2 2.3-.8 3.3.1.2.4.2.4.3 0 .2-.3.7-.4 1-.3 1.1 0 2.1-.1 3.1-.1.6-.5 1.1-.5 1.7-.1 1.6.8 2.9.5 4.6-.1.7-1.1 1.3-1.1 1.4-.1.4.4.2.3.6-.1.4-.5.3-.5 1.5 0 0-.3 1-.3 1.5.1.5.5.6.5 1.1-.1.6 1.1 1.7 1.3 2.4.1.5.5 2.7.4 3.1 0 .1-.1.2-.1.3.1.1.3 0 .4.1.4.2 2.4 2.9 2.3 3.3-.3 1.1-3.3 1.4-3.9 1.9-.3.3-.4.9-.7 1.2-.3.3-1.4.6-1.5 1l.3.8-.5.4c-.4.8.3 1.7 0 2.4l-.5.4c-.3.5-.2 1.3-.5 1.7-.2.3-.6.4-.8.6-.3.3-.6 1.2-.9 1.4h-.9c-.1 0-.3.2-.3.3 0 .1.2.2.2.3 0 .3-.7.6-.6.9 0 .5.6.9.7 1.4 0 .6-.8 1.3-.8 2 0 1.7 2.8.5 2.7 2.8v.7c0 .1.1.2 0 .4-.2.4-1.1.4-1.3.8-.1.3.4.9-.2 1-1.1.1-1.5-1-2.5-.2l-.3.2c.3.8-1.8 2.3-1.7 2.9 0 0 2.6 1.4 2.8 1.6 2.8 1.6 5.7 3.2 8.6 4.7 8.1 4.4 16.3 8.8 24.4 13.2 2.8 1.5 5.6 3 8.5 4.5 1.2.6 2.4 1.5 3.7 1.9 2.8.9 6.3.9 9.3 1.2 6 .8 12 1.5 18.1 2.2 3.4-29 6.7-58.1 10.1-87.1-21.5-2.2-42.4-5.2-63.2-8.9M442.2 188.5c-.1-.3-.5-.6-.6-1v-.4-.4-.4c-.3-.8-1.5-1.6-2-2.3s.7-.9.8-1.4c.1-.4-.9-1-.8-1.4 0-.5 1-.6 1.1-1 .3-.8-.7-4.9-.9-5.9-1.5-10.2-3.1-20.5-4.6-30.8-1.7-1-1.6-3.6-2.6-5.1-.2-.3-.6-.3-.9-.5-.6-.5-1.3-2-1.5-2.7-.2-.9 0-1.8-.1-2.7v-.3c-10.9 1.5-21.8 2.9-32.7 4.1-.4.6 1.7 1.5 2.2 1.9.7.4.5 1.2.9 1.7 1.3 1.5 3.3 1.1 3.6 3.5.1.7-.1 2.3-.4 2.9-.2.5-.8.7-1 1.2-.4.8.1 1.9-.3 2.7s-1.8 1-2.4 1.3c-.5.3-.8 1-1.2 1.2-.6.3-3.8.4-4.1 1-1.8 4.1 2.2 4.2 1.8 6.9-.1.8-1.1 1.5-1.4 2.3-.2.9-.2 1.8-.5 2.7-.1.3-2.6 1.2-3 1.9-.2.3 2 2.7.1 2.9 0 0-.3.2-.4.3-.4.7-.2 1.9-.2 2.6 0 1.1.1 2.1.6 3.1.2.3.6.6.7 1 .1.3-.2.8-.1 1.1.1.4.6.6.7 1 .2.4.1.9.3 1.3.8 1.1 2.7 1.7 3.8 2.5.4.3.6.9 1 1.2 1.1.9 3.2 1.2 3.8 2.7.2.6.1 1.2.4 1.8.1.2.4.3.5.5.3.8-.2 2.7 1.4 3.2.9.3 1.4-1.2 2.1-1.6.4-.2 3.6 1.2 3.9 1.6.4.5-.6 1.4-.6 1.9 0 .4.4.9.4 1.3-.1 1.9-2.9 4.5-1.5 6.5.4.6 1.3 1.5 1.9 1.9.3.2.8.2 1.1.4.2.2.3.5.5.7.5.4 1.9.4 2.2.8.3.4-.4.6.1 1 .7.5.7-.4 1.2-.4.2 0 .3.4.5.5.3.2.8.2 1.1.4.4.4.6 1.1 1 1.4.4.3 1.4.2 1.8.6.4.4.1 1.6.3 2.1.3.7 1.3 1.2 1.5 1.9.4 1.1-.9 1.3-.7 2.5l.7.2.1.8c.2.6 1 .9 1.2 1.4.1.2 0 .6.1.8.1.1 1.2.6 1.4.6.7-.2-1-.9-.4-1.3s1 1.2 1.5 1.4.6-.3 1.1.1c0 0-.2-.1-.2-.2-.5-.4-.5-.6-.6-1.2 0-.1 1.4-2.5 1.6-2.6 1.8-1.1 5 1.7 7 1.4.1 0 .1-.2.2-.4 1.1-2.5-2.1-1.9-.9-4.5.3-.6.9-.2 1.4-.5l.3-.6c.7-.6 1.8-.5 2.6-.9.1-.1.4-.2.4-.3.2-1.1-1.4-1.3-1.4-2.2s1-2 1.3-2.8c0 0-1.1-.8-.9-1.3l.7-.3s-.6-2.2-.5-2.3c0-.2.6-.2.6-.4.2-.8-.6.2-.3-.6.1-.3.7-.4.8-.7v-.3c-.6-.8-.9-.6-.5-1.8.3-.7.2.1.6-.1.2-.1-.1-.5.1-.6.1 0 .2.1.2.2s.1.3.2.2 0-.3.1-.4c.1-.8.4-.7.7-1.2.2-.3 0-.8 0-1.1.2-.6.9-.7 1.1-1 .1-.1-.4-.8-.4-1 .1-.3.5-.4.5-.6l-.1-.8c.3-1 1.6-1 .9-2.8"/><path fill="none" d="M457.2 62.9"/><text transform="scale(-1) rotate(83.846 -150.968 -304.566)" class="st3 st4" font-size="6.048"></text><text transform="rotate(-95.486 273.246 -138.626)" class="st3 st4 st6"></text><text transform="rotate(-94.796 273.033 -141.868)" class="st3 st4 st6"></text><text transform="rotate(-94.077 272.901 -145.117) scale(1.00003)" class="st3 st4" font-size="6.049"></text><text transform="rotate(-93.331 272.775 -148.559) skewX(.006)" class="st3 st4 st6"></text><text transform="matrix(.3532 -.9355 .9355 .3533 439.508 87.529)" class="st3 st4 st6"></text><text transform="rotate(52.807 154.296 526.132)" class="st3 st4 st6"></text><text transform="rotate(-38.749 426.265 -676.474)" class="st3 st4 st6"></text><text transform="rotate(-24.091 485.488 -1201.347)" class="st3 st4" font-size="6.049"></text><text transform="rotate(-7.52 930.686 -4175.36)" class="st3 st4 st6"></text></svg>